<?xml version="1.0" encoding="UTF-8" standalone="no"?>
<!DOCTYPE svg PUBLIC "-//W3C//DTD SVG 1.1//EN"
 "http://www.w3.org/Graphics/SVG/1.1/DTD/svg11.dtd">
<!-- Generated by graphviz version 2.50.0 (0)
 -->
<!-- Title: G Pages: 1 -->
<svg width="1032pt" height="1736pt"
 viewBox="0.00 0.00 1031.86 1736.48" xmlns="http://www.w3.org/2000/svg" xmlns:xlink="http://www.w3.org/1999/xlink">
<g id="graph0" class="graph" transform="scale(1 1) rotate(0) translate(4 1732.48)">
<title>G</title>
<!-- run -->
<g id="node1" class="node">
<title>run</title>
<g id="a_node1"><a href="https://cee-gitlab.sandia.gov/ascic-test-infra/nvtest/-/blob/main/src/_nvtest/plugins/commands/nvtest_run.py?ref_type=heads" xlink:title="nvtest run [options] [pathspec ...]">
<text text-anchor="middle" x="477.06" y="-1705.48" font-family="Monaco" font-size="20.00">nvtest run [options] [pathspec ...]</text>
</a>
</g>
</g>
<!-- init -->
<g id="node4" class="node">
<title>init</title>
<g id="a_node4"><a href="https://cee-gitlab.sandia.gov/ascic-test-infra/nvtest/-/blob/main/src/_nvtest/session.py?ref_type=heads" xlink:title="Initialize\nCreate test session\ndirectory, database, etc.">
<polygon fill="none" stroke="black" points="634.56,-1651.09 319.56,-1651.09 319.56,-1571.09 634.56,-1571.09 634.56,-1651.09"/>
<text text-anchor="middle" x="477.06" y="-1628.09" font-family="Monaco" font-size="20.00">Initialize</text>
<text text-anchor="middle" x="477.06" y="-1606.09" font-family="Monaco" font-size="20.00">Create test session</text>
<text text-anchor="middle" x="477.06" y="-1584.09" font-family="Monaco" font-size="20.00">directory, database, etc.</text>
</a>
</g>
</g>
<!-- run&#45;&gt;init -->
<g id="edge14" class="edge">
<title>run&#45;&gt;init</title>
<path fill="none" stroke="black" d="M477.06,-1692.07C477.06,-1683.36 477.06,-1672.33 477.06,-1661.26"/>
<polygon fill="black" stroke="black" points="480.56,-1661.16 477.06,-1651.16 473.56,-1661.16 480.56,-1661.16"/>
</g>
<!-- plug_test_run -->
<g id="node2" class="node">
<title>plug_test_run</title>
<g id="a_node2"><a href="https://cee-gitlab.sandia.gov/ascic-test-infra/nvtest/-/blob/main/src/_nvtest/plugin.py?ref_type=heads#L70" xlink:title="Plugins\ntest_prelaunch\ntest_finish">
<polygon fill="none" stroke="black" points="1006.19,-710.01 1006.19,-760.93 924.1,-796.93 808.02,-796.93 725.94,-760.93 725.94,-710.01 808.02,-674.01 924.1,-674.01 1006.19,-710.01"/>
<text text-anchor="middle" x="866.06" y="-752.47" font-family="Monaco" font-size="20.00">Plugins</text>
<text text-anchor="middle" x="866.06" y="-730.47" font-family="Monaco" font-size="20.00">test_prelaunch</text>
<text text-anchor="middle" x="866.06" y="-708.47" font-family="Monaco" font-size="20.00">test_finish</text>
</a>
</g>
</g>
<!-- plug_test_run_b1 -->
<g id="node3" class="node">
<title>plug_test_run_b1</title>
<g id="a_node3"><a href="https://cee-gitlab.sandia.gov/ascic-test-infra/nvtest/-/blob/main/src/_nvtest/plugin.py?ref_type=heads#L70" xlink:title="Plugins\ntest_prelaunch\ntest_finish">
<polygon fill="none" stroke="black" points="280.19,-234.55 280.19,-285.47 198.1,-321.47 82.02,-321.47 -0.06,-285.47 -0.06,-234.55 82.02,-198.55 198.1,-198.55 280.19,-234.55"/>
<text text-anchor="middle" x="140.06" y="-277.01" font-family="Monaco" font-size="20.00">Plugins</text>
<text text-anchor="middle" x="140.06" y="-255.01" font-family="Monaco" font-size="20.00">test_prelaunch</text>
<text text-anchor="middle" x="140.06" y="-233.01" font-family="Monaco" font-size="20.00">test_finish</text>
</a>
</g>
</g>
<!-- run_async_b1 -->
<g id="node21" class="node">
<title>run_async_b1</title>
<g id="a_node21"><a href="https://cee-gitlab.sandia.gov/ascic-test-infra/nvtest/-/blob/main/src/_nvtest/runners.py?ref_type=heads#L26" xlink:title="Run tests in\nbatch asynchronously">
<polygon fill="none" stroke="black" points="570.56,-289.01 315.56,-289.01 315.56,-231.01 570.56,-231.01 570.56,-289.01"/>
<text text-anchor="middle" x="443.06" y="-266.01" font-family="Monaco" font-size="20.00">Run tests in</text>
<text text-anchor="middle" x="443.06" y="-244.01" font-family="Monaco" font-size="20.00">batch asynchronously</text>
</a>
</g>
</g>
<!-- plug_test_run_b1&#45;&gt;run_async_b1 -->
<g id="edge7" class="edge">
<title>plug_test_run_b1&#45;&gt;run_async_b1</title>
<path fill="none" stroke="black" d="M280.32,-260.01C291.97,-260.01 303.63,-260.01 315.28,-260.01"/>
</g>
<!-- search -->
<g id="node5" class="node">
<title>search</title>
<g id="a_node5"><a href="https://cee-gitlab.sandia.gov/ascic-test-infra/nvtest/-/blob/main/src/_nvtest/finder.py?ref_type=heads" xlink:title="Search\nFind test files and\ninstantiate TestGenerator\nobjects for each">
<polygon fill="none" stroke="black" points="634.56,-1529.7 319.56,-1529.7 319.56,-1427.7 634.56,-1427.7 634.56,-1529.7"/>
<text text-anchor="middle" x="477.06" y="-1506.7" font-family="Monaco" font-size="20.00">Search</text>
<text text-anchor="middle" x="477.06" y="-1484.7" font-family="Monaco" font-size="20.00">Find test files and</text>
<text text-anchor="middle" x="477.06" y="-1462.7" font-family="Monaco" font-size="20.00">instantiate TestGenerator</text>
<text text-anchor="middle" x="477.06" y="-1440.7" font-family="Monaco" font-size="20.00">objects for each</text>
</a>
</g>
</g>
<!-- init&#45;&gt;search -->
<g id="edge16" class="edge">
<title>init&#45;&gt;search</title>
<path fill="none" stroke="black" d="M477.06,-1570.97C477.06,-1561.19 477.06,-1550.48 477.06,-1539.94"/>
<polygon fill="black" stroke="black" points="480.56,-1539.92 477.06,-1529.92 473.56,-1539.92 480.56,-1539.92"/>
</g>
<!-- plug_session_init -->
<g id="node10" class="node">
<title>plug_session_init</title>
<g id="a_node10"><a href="https://cee-gitlab.sandia.gov/ascic-test-infra/nvtest/-/blob/main/src/_nvtest/session.py?ref_type=heads#L175" xlink:title="Plugin\nsession_initialize">
<polygon fill="none" stroke="black" points="1023.66,-1592.75 1023.66,-1629.43 920.21,-1655.37 773.91,-1655.37 670.46,-1629.43 670.46,-1592.75 773.91,-1566.81 920.21,-1566.81 1023.66,-1592.75"/>
<text text-anchor="middle" x="847.06" y="-1617.09" font-family="Monaco" font-size="20.00">Plugin</text>
<text text-anchor="middle" x="847.06" y="-1595.09" font-family="Monaco" font-size="20.00">session_initialize</text>
</a>
</g>
</g>
<!-- init&#45;&gt;plug_session_init -->
<g id="edge15" class="edge">
<title>init&#45;&gt;plug_session_init</title>
<path fill="none" stroke="black" d="M634.6,-1611.09C646.5,-1611.09 658.39,-1611.09 670.29,-1611.09"/>
</g>
<!-- lock -->
<g id="node6" class="node">
<title>lock</title>
<g id="a_node6"><a href="https://cee-gitlab.sandia.gov/ascic-test-infra/nvtest/-/blob/main/src/_nvtest/finder.py?ref_type=heads#L161" xlink:title="Lock\nExpand parameters and\ncreate concrete test cases\nfrom each generator">
<polygon fill="none" stroke="black" points="640.56,-1390.7 313.56,-1390.7 313.56,-1288.7 640.56,-1288.7 640.56,-1390.7"/>
<text text-anchor="middle" x="477.06" y="-1367.7" font-family="Monaco" font-size="20.00">Lock</text>
<text text-anchor="middle" x="477.06" y="-1345.7" font-family="Monaco" font-size="20.00">Expand parameters and</text>
<text text-anchor="middle" x="477.06" y="-1323.7" font-family="Monaco" font-size="20.00">create concrete test cases</text>
<text text-anchor="middle" x="477.06" y="-1301.7" font-family="Monaco" font-size="20.00">from each generator</text>
</a>
</g>
</g>
<!-- search&#45;&gt;lock -->
<g id="edge18" class="edge">
<title>search&#45;&gt;lock</title>
<path fill="none" stroke="black" d="M477.06,-1427.46C477.06,-1418.9 477.06,-1409.93 477.06,-1401.13"/>
<polygon fill="black" stroke="black" points="480.56,-1400.93 477.06,-1390.93 473.56,-1400.93 480.56,-1400.93"/>
</g>
<!-- plug_session_discovery -->
<g id="node11" class="node">
<title>plug_session_discovery</title>
<g id="a_node11"><a href="https://cee-gitlab.sandia.gov/ascic-test-infra/nvtest/-/blob/main/src/_nvtest/session.py?ref_type=heads#L402" xlink:title="Plugin\nsession_discovery">
<polygon fill="none" stroke="black" points="1005.79,-1460.36 1005.79,-1497.04 907.54,-1522.98 768.59,-1522.98 670.33,-1497.04 670.33,-1460.36 768.59,-1434.42 907.54,-1434.42 1005.79,-1460.36"/>
<text text-anchor="middle" x="838.06" y="-1484.7" font-family="Monaco" font-size="20.00">Plugin</text>
<text text-anchor="middle" x="838.06" y="-1462.7" font-family="Monaco" font-size="20.00">session_discovery</text>
</a>
</g>
</g>
<!-- search&#45;&gt;plug_session_discovery -->
<g id="edge17" class="edge">
<title>search&#45;&gt;plug_session_discovery</title>
<path fill="none" stroke="black" d="M634.65,-1478.7C646.57,-1478.7 658.48,-1478.7 670.4,-1478.7"/>
</g>
<!-- setup -->
<g id="node7" class="node">
<title>setup</title>
<g id="a_node7"><a href="https://cee-gitlab.sandia.gov/ascic-test-infra/nvtest/-/blob/main/src/_nvtest/test/case.py?ref_type=heads#L806" xlink:title="Setup\ncreate execution\ndirectories for test cases\nand copy/link resources">
<polygon fill="none" stroke="black" points="640.56,-1251.7 313.56,-1251.7 313.56,-1149.7 640.56,-1149.7 640.56,-1251.7"/>
<text text-anchor="middle" x="477.06" y="-1228.7" font-family="Monaco" font-size="20.00">Setup</text>
<text text-anchor="middle" x="477.06" y="-1206.7" font-family="Monaco" font-size="20.00">create execution</text>
<text text-anchor="middle" x="477.06" y="-1184.7" font-family="Monaco" font-size="20.00">directories for test cases</text>
<text text-anchor="middle" x="477.06" y="-1162.7" font-family="Monaco" font-size="20.00">and copy/link resources</text>
</a>
</g>
</g>
<!-- lock&#45;&gt;setup -->
<g id="edge19" class="edge">
<title>lock&#45;&gt;setup</title>
<path fill="none" stroke="black" d="M477.06,-1288.46C477.06,-1279.9 477.06,-1270.93 477.06,-1262.13"/>
<polygon fill="black" stroke="black" points="480.56,-1261.93 477.06,-1251.93 473.56,-1261.93 480.56,-1261.93"/>
</g>
<!-- plug_test_setup -->
<g id="node13" class="node">
<title>plug_test_setup</title>
<g id="a_node13"><a href="https://cee-gitlab.sandia.gov/ascic-test-infra/nvtest/-/blob/main/src/_nvtest/test/case.py?ref_type=heads#L818" xlink:title="Plugin\ntest_setup">
<polygon fill="none" stroke="black" points="882.21,-1182.36 882.21,-1219.04 821.79,-1244.98 736.34,-1244.98 675.91,-1219.04 675.91,-1182.36 736.34,-1156.42 821.79,-1156.42 882.21,-1182.36"/>
<text text-anchor="middle" x="779.06" y="-1206.7" font-family="Monaco" font-size="20.00">Plugin</text>
<text text-anchor="middle" x="779.06" y="-1184.7" font-family="Monaco" font-size="20.00">test_setup</text>
</a>
</g>
</g>
<!-- setup&#45;&gt;plug_test_setup -->
<g id="edge20" class="edge">
<title>setup&#45;&gt;plug_test_setup</title>
<path fill="none" stroke="black" d="M640.74,-1200.7C652.45,-1200.7 664.16,-1200.7 675.86,-1200.7"/>
</g>
<!-- batched -->
<g id="node16" class="node">
<title>batched</title>
<g id="a_node16"><a href="https://cee-gitlab.sandia.gov/ascic-test-infra/nvtest/-/blob/main/src/_nvtest/test/batch.py?ref_type=heads" xlink:title="Batched?">
<polygon fill="lightgrey" stroke="black" points="477.06,-1112.7 369.06,-1076.7 477.06,-1040.7 585.06,-1076.7 477.06,-1112.7"/>
<text text-anchor="middle" x="477.06" y="-1071.7" font-family="Monaco" font-size="20.00">Batched?</text>
</a>
</g>
</g>
<!-- setup&#45;&gt;batched -->
<g id="edge21" class="edge">
<title>setup&#45;&gt;batched</title>
<path fill="none" stroke="black" d="M477.06,-1149.37C477.06,-1140.69 477.06,-1131.72 477.06,-1123.17"/>
<polygon fill="black" stroke="black" points="480.56,-1123.02 477.06,-1113.02 473.56,-1123.02 480.56,-1123.02"/>
</g>
<!-- finish -->
<g id="node8" class="node">
<title>finish</title>
<polygon fill="none" stroke="black" points="564.56,-135.39 477.56,-135.39 477.56,-99.39 564.56,-99.39 564.56,-135.39"/>
<text text-anchor="middle" x="521.06" y="-112.39" font-family="Monaco" font-size="20.00">Finish</text>
</g>
<!-- done -->
<g id="node9" class="node">
<title>done</title>
<polygon fill="none" stroke="black" points="552.56,-36 489.56,-36 489.56,0 552.56,0 552.56,-36"/>
<text text-anchor="middle" x="521.06" y="-13" font-family="Monaco" font-size="20.00">Done</text>
</g>
<!-- finish&#45;&gt;done -->
<g id="edge24" class="edge">
<title>finish&#45;&gt;done</title>
<path fill="none" stroke="black" d="M521.06,-98.98C521.06,-84.44 521.06,-63.44 521.06,-46.61"/>
<polygon fill="black" stroke="black" points="524.56,-46.26 521.06,-36.26 517.56,-46.26 524.56,-46.26"/>
</g>
<!-- plug_session_finish -->
<g id="node12" class="node">
<title>plug_session_finish</title>
<polygon fill="none" stroke="black" points="880.19,-99.05 880.19,-135.73 798.1,-161.67 682.02,-161.67 599.94,-135.73 599.94,-99.05 682.02,-73.11 798.1,-73.11 880.19,-99.05"/>
<text text-anchor="middle" x="740.06" y="-123.39" font-family="Monaco" font-size="20.00">Plugin</text>
<text text-anchor="middle" x="740.06" y="-101.39" font-family="Monaco" font-size="20.00">session_finish</text>
</g>
<!-- finish&#45;&gt;plug_session_finish -->
<g id="edge23" class="edge">
<title>finish&#45;&gt;plug_session_finish</title>
<path fill="none" stroke="black" d="M564.69,-117.39C576.45,-117.39 588.21,-117.39 599.97,-117.39"/>
</g>
<!-- queue -->
<g id="node14" class="node">
<title>queue</title>
<g id="a_node14"><a href="https://cee-gitlab.sandia.gov/ascic-test-infra/nvtest/-/blob/main/src/_nvtest/queues.py?ref_type=heads#L203" xlink:title="Put test cases in\nResourceQueue">
<polygon fill="none" stroke="black" points="708.56,-989.7 489.56,-989.7 489.56,-931.7 708.56,-931.7 708.56,-989.7"/>
<text text-anchor="middle" x="599.06" y="-966.7" font-family="Monaco" font-size="20.00">Put test cases in</text>
<text text-anchor="middle" x="599.06" y="-944.7" font-family="Monaco" font-size="20.00">ResourceQueue</text>
</a>
</g>
</g>
<!-- run_async -->
<g id="node23" class="node">
<title>run_async</title>
<g id="a_node23"><a href="https://cee-gitlab.sandia.gov/ascic-test-infra/nvtest/-/blob/main/src/_nvtest/runners.py?ref_type=heads#L26" xlink:title="Run tests\nasynchronously">
<polygon fill="none" stroke="black" points="690.56,-764.47 507.56,-764.47 507.56,-706.47 690.56,-706.47 690.56,-764.47"/>
<text text-anchor="middle" x="599.06" y="-741.47" font-family="Monaco" font-size="20.00">Run tests</text>
<text text-anchor="middle" x="599.06" y="-719.47" font-family="Monaco" font-size="20.00">asynchronously</text>
</a>
</g>
</g>
<!-- queue&#45;&gt;run_async -->
<g id="edge11" class="edge">
<title>queue&#45;&gt;run_async</title>
<path fill="none" stroke="black" d="M599.06,-931.43C599.06,-891.68 599.06,-819.15 599.06,-774.65"/>
<polygon fill="black" stroke="black" points="602.56,-774.51 599.06,-764.51 595.56,-774.51 602.56,-774.51"/>
</g>
<!-- batch_queue -->
<g id="node15" class="node">
<title>batch_queue</title>
<g id="a_node15"><a href="https://cee-gitlab.sandia.gov/ascic-test-infra/nvtest/-/blob/main/src/_nvtest/queues.py?ref_type=heads#L264" xlink:title="Put test cases in\nBatchResourceQueue">
<polygon fill="none" stroke="black" points="471.56,-989.7 240.56,-989.7 240.56,-931.7 471.56,-931.7 471.56,-989.7"/>
<text text-anchor="middle" x="356.06" y="-966.7" font-family="Monaco" font-size="20.00">Put test cases in</text>
<text text-anchor="middle" x="356.06" y="-944.7" font-family="Monaco" font-size="20.00">BatchResourceQueue</text>
</a>
</g>
</g>
<!-- batch_cases -->
<g id="node17" class="node">
<title>batch_cases</title>
<g id="a_node17"><a href="https://cee-gitlab.sandia.gov/ascic-test-infra/nvtest/-/blob/main/src/_nvtest/util/partition.py?ref_type=heads#L53" xlink:title="Batch test cases\nusing tiling\nalgorithm">
<polygon fill="none" stroke="black" points="459.56,-894.7 252.56,-894.7 252.56,-814.7 459.56,-814.7 459.56,-894.7"/>
<text text-anchor="middle" x="356.06" y="-871.7" font-family="Monaco" font-size="20.00">Batch test cases</text>
<text text-anchor="middle" x="356.06" y="-849.7" font-family="Monaco" font-size="20.00">using tiling</text>
<text text-anchor="middle" x="356.06" y="-827.7" font-family="Monaco" font-size="20.00">algorithm</text>
</a>
</g>
</g>
<!-- batch_queue&#45;&gt;batch_cases -->
<g id="edge2" class="edge">
<title>batch_queue&#45;&gt;batch_cases</title>
<path fill="none" stroke="black" d="M356.06,-931.56C356.06,-923.34 356.06,-914.11 356.06,-904.99"/>
<polygon fill="black" stroke="black" points="359.56,-904.8 356.06,-894.8 352.56,-904.8 359.56,-904.8"/>
</g>
<!-- batched&#45;&gt;queue -->
<g id="edge10" class="edge">
<title>batched&#45;&gt;queue</title>
<path fill="none" stroke="black" d="M504.75,-1049.83C521.48,-1034.2 543.03,-1014.05 561.31,-996.97"/>
<polygon fill="black" stroke="black" points="564.01,-999.25 568.92,-989.86 559.23,-994.13 564.01,-999.25"/>
<text text-anchor="middle" x="556.56" y="-1011.5" font-family="Times,serif" font-size="14.00">No</text>
</g>
<!-- batched&#45;&gt;batch_queue -->
<g id="edge1" class="edge">
<title>batched&#45;&gt;batch_queue</title>
<path fill="none" stroke="black" d="M449.61,-1049.83C433.01,-1034.2 411.63,-1014.05 393.5,-996.97"/>
<polygon fill="black" stroke="black" points="395.63,-994.17 385.95,-989.86 390.83,-999.27 395.63,-994.17"/>
<text text-anchor="middle" x="430.56" y="-1011.5" font-family="Times,serif" font-size="14.00">Yes</text>
</g>
<!-- scheduled -->
<g id="node19" class="node">
<title>scheduled</title>
<polygon fill="lightgrey" stroke="black" points="356.06,-656.24 248.06,-620.24 356.06,-584.24 464.06,-620.24 356.06,-656.24"/>
<text text-anchor="middle" x="356.06" y="-615.24" font-family="Monaco" font-size="20.00">Scheduled?</text>
</g>
<!-- batch_cases&#45;&gt;scheduled -->
<g id="edge3" class="edge">
<title>batch_cases&#45;&gt;scheduled</title>
<path fill="none" stroke="black" d="M356.06,-814.53C356.06,-773.65 356.06,-709.62 356.06,-666.58"/>
<polygon fill="black" stroke="black" points="359.56,-666.38 356.06,-656.38 352.56,-666.38 359.56,-666.38"/>
</g>
<!-- write_batch -->
<g id="node18" class="node">
<title>write_batch</title>
<g id="a_node18"><a href="https://cee-gitlab.sandia.gov/ascic-test-infra/nvtest/-/blob/main/src/_nvtest/plugins/runners/nvtest_slurm.py?ref_type=heads#L39" xlink:title="Write batch\nsubmission scripts">
<polygon fill="none" stroke="black" points="383.56,-533.24 152.56,-533.24 152.56,-475.24 383.56,-475.24 383.56,-533.24"/>
<text text-anchor="middle" x="268.06" y="-510.24" font-family="Monaco" font-size="20.00">Write batch</text>
<text text-anchor="middle" x="268.06" y="-488.24" font-family="Monaco" font-size="20.00">submission scripts</text>
</a>
</g>
</g>
<!-- run_batched_sched -->
<g id="node20" class="node">
<title>run_batched_sched</title>
<g id="a_node20"><a href="https://cee-gitlab.sandia.gov/ascic-test-infra/nvtest/-/blob/main/src/_nvtest/runners.py?ref_type=heads#L116" xlink:title="Run batches\nasynchronously\nthrough scheduler">
<polygon fill="none" stroke="black" points="351.56,-438.24 132.56,-438.24 132.56,-358.24 351.56,-358.24 351.56,-438.24"/>
<text text-anchor="middle" x="242.06" y="-415.24" font-family="Monaco" font-size="20.00">Run batches</text>
<text text-anchor="middle" x="242.06" y="-393.24" font-family="Monaco" font-size="20.00">asynchronously</text>
<text text-anchor="middle" x="242.06" y="-371.24" font-family="Monaco" font-size="20.00">through scheduler</text>
</a>
</g>
</g>
<!-- write_batch&#45;&gt;run_batched_sched -->
<g id="edge5" class="edge">
<title>write_batch&#45;&gt;run_batched_sched</title>
<path fill="none" stroke="black" d="M261.03,-475.1C258.95,-466.79 256.61,-457.45 254.31,-448.23"/>
<polygon fill="black" stroke="black" points="257.66,-447.19 251.84,-438.34 250.87,-448.89 257.66,-447.19"/>
</g>
<!-- scheduled&#45;&gt;write_batch -->
<g id="edge4" class="edge">
<title>scheduled&#45;&gt;write_batch</title>
<path fill="none" stroke="black" d="M334.53,-591.35C323.01,-576.42 308.67,-557.85 296.26,-541.78"/>
<polygon fill="black" stroke="black" points="298.86,-539.41 289.98,-533.63 293.32,-543.69 298.86,-539.41"/>
<text text-anchor="middle" x="325.56" y="-555.04" font-family="Times,serif" font-size="14.00">Yes</text>
</g>
<!-- run_batched_no_sched -->
<g id="node22" class="node">
<title>run_batched_no_sched</title>
<g id="a_node22"><a href="https://cee-gitlab.sandia.gov/ascic-test-infra/nvtest/-/blob/main/src/_nvtest/runners.py?ref_type=heads#L116" xlink:title="Run batches\nasynchronously">
<polygon fill="none" stroke="black" points="552.56,-427.24 369.56,-427.24 369.56,-369.24 552.56,-369.24 552.56,-427.24"/>
<text text-anchor="middle" x="461.06" y="-404.24" font-family="Monaco" font-size="20.00">Run batches</text>
<text text-anchor="middle" x="461.06" y="-382.24" font-family="Monaco" font-size="20.00">asynchronously</text>
</a>
</g>
</g>
<!-- scheduled&#45;&gt;run_batched_no_sched -->
<g id="edge8" class="edge">
<title>scheduled&#45;&gt;run_batched_no_sched</title>
<path fill="none" stroke="black" d="M370.66,-588.65C389.63,-548.92 422.72,-479.58 443.17,-436.73"/>
<polygon fill="black" stroke="black" points="446.43,-438.01 447.58,-427.48 440.12,-435 446.43,-438.01"/>
<text text-anchor="middle" x="432.56" y="-500.54" font-family="Times,serif" font-size="14.00">No</text>
</g>
<!-- run_batched_sched&#45;&gt;run_async_b1 -->
<g id="edge6" class="edge">
<title>run_batched_sched&#45;&gt;run_async_b1</title>
<path fill="none" stroke="black" d="M299.66,-358.2C329.2,-338.18 364.83,-314.03 393.19,-294.82"/>
<polygon fill="black" stroke="black" points="395.42,-297.53 401.74,-289.02 391.5,-291.73 395.42,-297.53"/>
</g>
<!-- run_async_b1&#45;&gt;finish -->
<g id="edge22" class="edge">
<title>run_async_b1&#45;&gt;finish</title>
<path fill="none" stroke="black" d="M458.66,-230.89C472.69,-205.59 493.14,-168.72 506.76,-144.17"/>
<polygon fill="black" stroke="black" points="509.83,-145.86 511.62,-135.41 503.71,-142.46 509.83,-145.86"/>
</g>
<!-- run_batched_no_sched&#45;&gt;run_async_b1 -->
<g id="edge9" class="edge">
<title>run_batched_no_sched&#45;&gt;run_async_b1</title>
<path fill="none" stroke="black" d="M457.33,-369.01C454.67,-348.83 451.05,-321.43 448.12,-299.28"/>
<polygon fill="black" stroke="black" points="451.57,-298.66 446.79,-289.2 444.63,-299.57 451.57,-298.66"/>
</g>
<!-- run_async&#45;&gt;plug_test_run -->
<g id="edge12" class="edge">
<title>run_async&#45;&gt;plug_test_run</title>
<path fill="none" stroke="black" d="M690.58,-735.47C702.35,-735.47 714.12,-735.47 725.88,-735.47"/>
</g>
<!-- run_async&#45;&gt;finish -->
<g id="edge13" class="edge">
<title>run_async&#45;&gt;finish</title>
<path fill="none" stroke="black" d="M599.06,-706.33C599.06,-671.8 599.06,-611.46 599.06,-559.74 599.06,-559.74 599.06,-559.74 599.06,-259.01 599.06,-213.98 568.09,-169.86 545.18,-143.39"/>
<polygon fill="black" stroke="black" points="547.64,-140.89 538.37,-135.76 542.42,-145.55 547.64,-140.89"/>
</g>
<!-- nothing1 -->
<!-- nothing2 -->
</g>
</svg>
