<?xml version="1.0" encoding="UTF-8" standalone="no"?>
<!DOCTYPE svg PUBLIC "-//W3C//DTD SVG 1.1//EN"
 "http://www.w3.org/Graphics/SVG/1.1/DTD/svg11.dtd">
<!-- Generated by graphviz version 12.2.1 (20241206.2353)
 -->
<!-- Title: G Pages: 1 -->
<svg width="2054pt" height="1159pt"
 viewBox="0.00 0.00 2054.00 1158.70" xmlns="http://www.w3.org/2000/svg" xmlns:xlink="http://www.w3.org/1999/xlink">
<g id="graph0" class="graph" transform="scale(1 1) rotate(0) translate(4 1154.7)">
<title>G</title>
<g id="clust1" class="cluster">
<title>cluster_00</title>
<polygon fill="none" stroke="black" points="1590,-902.5 1590,-1134.7 2038,-1134.7 2038,-902.5 1590,-902.5"/>
<text text-anchor="middle" x="1814" y="-1117.4" font-family="Times,serif" font-size="14.00">Key</text>
</g>
<g id="clust2" class="cluster">
<title>cluster_10</title>
<polygon fill="none" stroke="black" points="8,-41.5 8,-1134.7 410,-1134.7 410,-41.5 8,-41.5"/>
<text text-anchor="middle" x="209" y="-1117.4" font-family="Times,serif" font-size="14.00">Standard Canary run</text>
</g>
<g id="clust3" class="cluster">
<title>cluster_20</title>
<polygon fill="none" stroke="black" points="418,-8 418,-1142.7 1582,-1142.7 1582,-8 418,-8"/>
<text text-anchor="middle" x="1000" y="-1125.4" font-family="Times,serif" font-size="14.00">Batched run as implemented in canary_hpc</text>
</g>
<g id="clust4" class="cluster">
<title>cluster_21</title>
<polygon fill="none" stroke="black" points="426,-16 426,-1110.2 984,-1110.2 984,-16 426,-16"/>
</g>
<g id="clust5" class="cluster">
<title>cluster_22</title>
<polygon fill="none" stroke="black" points="992,-41.5 992,-1110.2 1574,-1110.2 1574,-41.5 992,-41.5"/>
</g>
<!-- run -->
<g id="node1" class="node">
<title>run</title>
<path fill="black" stroke="black" d="M360.2,-1102.2C360.2,-1102.2 57.8,-1102.2 57.8,-1102.2 51.8,-1102.2 45.8,-1096.2 45.8,-1090.2 45.8,-1090.2 45.8,-1074.3 45.8,-1074.3 45.8,-1068.3 51.8,-1062.3 57.8,-1062.3 57.8,-1062.3 360.2,-1062.3 360.2,-1062.3 366.2,-1062.3 372.2,-1068.3 372.2,-1074.3 372.2,-1074.3 372.2,-1090.2 372.2,-1090.2 372.2,-1096.2 366.2,-1102.2 360.2,-1102.2"/>
<text text-anchor="middle" x="209" y="-1076" font-family="Monaco" font-size="20.00" fill="white">$ canary run [options] ...</text>
</g>
<!-- main -->
<g id="node7" class="node">
<title>main</title>
<polygon fill="none" stroke="black" points="300.2,-1026.3 117.8,-1026.3 117.8,-986.4 300.2,-986.4 300.2,-1026.3"/>
<text text-anchor="middle" x="209" y="-1000.1" font-family="Monaco" font-size="20.00">console_main()</text>
</g>
<!-- run&#45;&gt;main -->
<g id="edge3" class="edge">
<title>run&#45;&gt;main</title>
<path fill="none" stroke="black" d="M209,-1061.83C209,-1054.54 209,-1046.05 209,-1037.98"/>
<polygon fill="black" stroke="black" points="212.5,-1038.15 209,-1028.15 205.5,-1038.15 212.5,-1038.15"/>
</g>
<!-- run_0 -->
<g id="node2" class="node">
<title>run_0</title>
<path fill="black" stroke="black" d="M844.2,-1102.2C844.2,-1102.2 565.8,-1102.2 565.8,-1102.2 559.8,-1102.2 553.8,-1096.2 553.8,-1090.2 553.8,-1090.2 553.8,-1074.3 553.8,-1074.3 553.8,-1068.3 559.8,-1062.3 565.8,-1062.3 565.8,-1062.3 844.2,-1062.3 844.2,-1062.3 850.2,-1062.3 856.2,-1068.3 856.2,-1074.3 856.2,-1074.3 856.2,-1090.2 856.2,-1090.2 856.2,-1096.2 850.2,-1102.2 844.2,-1102.2"/>
<text text-anchor="middle" x="705" y="-1076" font-family="Monaco" font-size="20.00" fill="white">$ canary run &#45;b spec=...</text>
</g>
<!-- main_0 -->
<g id="node8" class="node">
<title>main_0</title>
<polygon fill="none" stroke="black" points="796.2,-1026.3 613.8,-1026.3 613.8,-986.4 796.2,-986.4 796.2,-1026.3"/>
<text text-anchor="middle" x="705" y="-1000.1" font-family="Monaco" font-size="20.00">console_main()</text>
</g>
<!-- run_0&#45;&gt;main_0 -->
<g id="edge15" class="edge">
<title>run_0&#45;&gt;main_0</title>
<path fill="none" stroke="black" d="M705,-1061.83C705,-1054.54 705,-1046.05 705,-1037.98"/>
<polygon fill="black" stroke="black" points="708.5,-1038.15 705,-1028.15 701.5,-1038.15 708.5,-1038.15"/>
</g>
<!-- run_1 -->
<g id="node3" class="node">
<title>run_1</title>
<path fill="black" stroke="black" d="M1554.2,-1102.2C1554.2,-1102.2 1011.8,-1102.2 1011.8,-1102.2 1005.8,-1102.2 999.8,-1096.2 999.8,-1090.2 999.8,-1090.2 999.8,-1074.3 999.8,-1074.3 999.8,-1068.3 1005.8,-1062.3 1011.8,-1062.3 1011.8,-1062.3 1554.2,-1062.3 1554.2,-1062.3 1560.2,-1062.3 1566.2,-1068.3 1566.2,-1074.3 1566.2,-1074.3 1566.2,-1090.2 1566.2,-1090.2 1566.2,-1096.2 1560.2,-1102.2 1554.2,-1102.2"/>
<text text-anchor="middle" x="1283" y="-1076" font-family="Monaco" font-size="20.00" fill="white">$ canary run &#45;b exec=backend:NAME,batch:ID ...</text>
</g>
<!-- main_1 -->
<g id="node9" class="node">
<title>main_1</title>
<polygon fill="none" stroke="black" points="1374.2,-1026.3 1191.8,-1026.3 1191.8,-986.4 1374.2,-986.4 1374.2,-1026.3"/>
<text text-anchor="middle" x="1283" y="-1000.1" font-family="Monaco" font-size="20.00">console_main()</text>
</g>
<!-- run_1&#45;&gt;main_1 -->
<g id="edge27" class="edge">
<title>run_1&#45;&gt;main_1</title>
<path fill="none" stroke="black" d="M1283,-1061.83C1283,-1054.54 1283,-1046.05 1283,-1037.98"/>
<polygon fill="black" stroke="black" points="1286.5,-1038.15 1283,-1028.15 1279.5,-1038.15 1286.5,-1038.15"/>
</g>
<!-- run_execute -->
<g id="node4" class="node">
<title>run_execute</title>
<polygon fill="none" stroke="black" points="378.2,-418.5 39.8,-418.5 39.8,-378.6 378.2,-378.6 378.2,-418.5"/>
<text text-anchor="middle" x="209" y="-392.3" font-family="Monaco" font-size="20.00">run.execute(config.options)</text>
</g>
<!-- canary_discover_generators -->
<g id="node22" class="node">
<title>canary_discover_generators</title>
<g id="a_node22"><a xlink:title="Search directories for testcase generators">
<polygon fill="lightgreen" stroke="black" points="402.2,-342.6 15.8,-342.6 15.8,-302.7 402.2,-302.7 402.2,-342.6"/>
<text text-anchor="middle" x="209" y="-316.4" font-family="Monaco" font-size="20.00">canary_discover_generators(...)</text>
</a>
</g>
</g>
<!-- run_execute&#45;&gt;canary_discover_generators -->
<g id="edge11" class="edge">
<title>run_execute&#45;&gt;canary_discover_generators</title>
<path fill="none" stroke="black" d="M209,-378.13C209,-370.84 209,-362.35 209,-354.28"/>
<polygon fill="black" stroke="black" points="212.5,-354.45 209,-344.45 205.5,-354.45 212.5,-354.45"/>
</g>
<!-- run_execute_0 -->
<g id="node5" class="node">
<title>run_execute_0</title>
<polygon fill="none" stroke="black" points="874.2,-418.5 535.8,-418.5 535.8,-378.6 874.2,-378.6 874.2,-418.5"/>
<text text-anchor="middle" x="705" y="-392.3" font-family="Monaco" font-size="20.00">run.execute(config.options)</text>
</g>
<!-- canary_discover_generators_0 -->
<g id="node23" class="node">
<title>canary_discover_generators_0</title>
<g id="a_node23"><a xlink:title="Search directories for testcase generators">
<polygon fill="lightgreen" stroke="black" points="898.2,-342.6 511.8,-342.6 511.8,-302.7 898.2,-302.7 898.2,-342.6"/>
<text text-anchor="middle" x="705" y="-316.4" font-family="Monaco" font-size="20.00">canary_discover_generators(...)</text>
</a>
</g>
</g>
<!-- run_execute_0&#45;&gt;canary_discover_generators_0 -->
<g id="edge23" class="edge">
<title>run_execute_0&#45;&gt;canary_discover_generators_0</title>
<path fill="none" stroke="black" d="M705,-378.13C705,-370.84 705,-362.35 705,-354.28"/>
<polygon fill="black" stroke="black" points="708.5,-354.45 705,-344.45 701.5,-354.45 708.5,-354.45"/>
</g>
<!-- run_execute_1 -->
<g id="node6" class="node">
<title>run_execute_1</title>
<polygon fill="none" stroke="black" points="1452.2,-418.5 1113.8,-418.5 1113.8,-378.6 1452.2,-378.6 1452.2,-418.5"/>
<text text-anchor="middle" x="1283" y="-392.3" font-family="Monaco" font-size="20.00">run.execute(config.options)</text>
</g>
<!-- canary_runtests_0 -->
<g id="node29" class="node">
<title>canary_runtests_0</title>
<g id="a_node29"><a xlink:title="Run test cases asynchronously">
<polygon fill="lightgreen" stroke="black" points="1422.2,-89.4 1143.8,-89.4 1143.8,-49.5 1422.2,-49.5 1422.2,-89.4"/>
<text text-anchor="middle" x="1283" y="-63.2" font-family="Monaco" font-size="20.00">canary_runtests(cases)</text>
</a>
</g>
</g>
<!-- run_execute_1&#45;&gt;canary_runtests_0 -->
<g id="edge35" class="edge">
<title>run_execute_1&#45;&gt;canary_runtests_0</title>
<path fill="none" stroke="black" d="M1283,-378.55C1283,-324.12 1283,-167.3 1283,-100.82"/>
<polygon fill="black" stroke="black" points="1286.5,-101.02 1283,-91.02 1279.5,-101.02 1286.5,-101.02"/>
</g>
<!-- preparse -->
<g id="node10" class="node">
<title>preparse</title>
<g id="a_node10"><a xlink:title="Parse command line for &#45;p PLUGIN and register with plugin manager">
<polygon fill="none" stroke="black" points="324.2,-950.4 93.8,-950.4 93.8,-910.5 324.2,-910.5 324.2,-950.4"/>
<text text-anchor="middle" x="209" y="-924.2" font-family="Monaco" font-size="20.00">parser.pre_parse()</text>
</a>
</g>
</g>
<!-- main&#45;&gt;preparse -->
<g id="edge4" class="edge">
<title>main&#45;&gt;preparse</title>
<path fill="none" stroke="black" d="M209,-985.93C209,-978.64 209,-970.15 209,-962.08"/>
<polygon fill="black" stroke="black" points="212.5,-962.25 209,-952.25 205.5,-962.25 212.5,-962.25"/>
</g>
<!-- preparse_0 -->
<g id="node11" class="node">
<title>preparse_0</title>
<g id="a_node11"><a xlink:title="Parse command line for &#45;p PLUGIN and register with plugin manager">
<polygon fill="none" stroke="black" points="820.2,-950.4 589.8,-950.4 589.8,-910.5 820.2,-910.5 820.2,-950.4"/>
<text text-anchor="middle" x="705" y="-924.2" font-family="Monaco" font-size="20.00">parser.pre_parse()</text>
</a>
</g>
</g>
<!-- main_0&#45;&gt;preparse_0 -->
<g id="edge16" class="edge">
<title>main_0&#45;&gt;preparse_0</title>
<path fill="none" stroke="black" d="M705,-985.93C705,-978.64 705,-970.15 705,-962.08"/>
<polygon fill="black" stroke="black" points="708.5,-962.25 705,-952.25 701.5,-962.25 708.5,-962.25"/>
</g>
<!-- preparse_1 -->
<g id="node12" class="node">
<title>preparse_1</title>
<g id="a_node12"><a xlink:title="Parse command line for &#45;p PLUGIN and register with plugin manager">
<polygon fill="none" stroke="black" points="1398.2,-950.4 1167.8,-950.4 1167.8,-910.5 1398.2,-910.5 1398.2,-950.4"/>
<text text-anchor="middle" x="1283" y="-924.2" font-family="Monaco" font-size="20.00">parser.pre_parse()</text>
</a>
</g>
</g>
<!-- main_1&#45;&gt;preparse_1 -->
<g id="edge28" class="edge">
<title>main_1&#45;&gt;preparse_1</title>
<path fill="none" stroke="black" d="M1283,-985.93C1283,-978.64 1283,-970.15 1283,-962.08"/>
<polygon fill="black" stroke="black" points="1286.5,-962.25 1283,-952.25 1279.5,-962.25 1286.5,-962.25"/>
</g>
<!-- canary_subcommand -->
<g id="node13" class="node">
<title>canary_subcommand</title>
<g id="a_node13"><a xlink:title="Add subcommands to canary">
<polygon fill="lightgreen" stroke="black" points="330.2,-874.5 87.8,-874.5 87.8,-834.6 330.2,-834.6 330.2,-874.5"/>
<text text-anchor="middle" x="209" y="-848.3" font-family="Monaco" font-size="20.00">canary_subcommand()</text>
</a>
</g>
</g>
<!-- preparse&#45;&gt;canary_subcommand -->
<g id="edge5" class="edge">
<title>preparse&#45;&gt;canary_subcommand</title>
<path fill="none" stroke="black" d="M209,-910.03C209,-902.74 209,-894.25 209,-886.18"/>
<polygon fill="black" stroke="black" points="212.5,-886.35 209,-876.35 205.5,-886.35 212.5,-886.35"/>
</g>
<!-- canary_subcommand_0 -->
<g id="node14" class="node">
<title>canary_subcommand_0</title>
<g id="a_node14"><a xlink:title="Add subcommands to canary">
<polygon fill="lightgreen" stroke="black" points="826.2,-874.5 583.8,-874.5 583.8,-834.6 826.2,-834.6 826.2,-874.5"/>
<text text-anchor="middle" x="705" y="-848.3" font-family="Monaco" font-size="20.00">canary_subcommand()</text>
</a>
</g>
</g>
<!-- preparse_0&#45;&gt;canary_subcommand_0 -->
<g id="edge17" class="edge">
<title>preparse_0&#45;&gt;canary_subcommand_0</title>
<path fill="none" stroke="black" d="M705,-910.03C705,-902.74 705,-894.25 705,-886.18"/>
<polygon fill="black" stroke="black" points="708.5,-886.35 705,-876.35 701.5,-886.35 708.5,-886.35"/>
</g>
<!-- canary_subcommand_1 -->
<g id="node15" class="node">
<title>canary_subcommand_1</title>
<g id="a_node15"><a xlink:title="Add subcommands to canary">
<polygon fill="lightgreen" stroke="black" points="1404.2,-874.5 1161.8,-874.5 1161.8,-834.6 1404.2,-834.6 1404.2,-874.5"/>
<text text-anchor="middle" x="1283" y="-848.3" font-family="Monaco" font-size="20.00">canary_subcommand()</text>
</a>
</g>
</g>
<!-- preparse_1&#45;&gt;canary_subcommand_1 -->
<g id="edge29" class="edge">
<title>preparse_1&#45;&gt;canary_subcommand_1</title>
<path fill="none" stroke="black" d="M1283,-910.03C1283,-902.74 1283,-894.25 1283,-886.18"/>
<polygon fill="black" stroke="black" points="1286.5,-886.35 1283,-876.35 1279.5,-886.35 1286.5,-886.35"/>
</g>
<!-- canary_addhooks -->
<g id="node16" class="node">
<title>canary_addhooks</title>
<g id="a_node16"><a xlink:title="Add additional plugin hooks to canary">
<polygon fill="lightgreen" stroke="black" points="318.2,-798.6 99.8,-798.6 99.8,-758.7 318.2,-758.7 318.2,-798.6"/>
<text text-anchor="middle" x="209" y="-772.4" font-family="Monaco" font-size="20.00">canary_addhooks()</text>
</a>
</g>
</g>
<!-- canary_subcommand&#45;&gt;canary_addhooks -->
<g id="edge6" class="edge">
<title>canary_subcommand&#45;&gt;canary_addhooks</title>
<path fill="none" stroke="black" d="M209,-834.13C209,-826.84 209,-818.35 209,-810.28"/>
<polygon fill="black" stroke="black" points="212.5,-810.45 209,-800.45 205.5,-810.45 212.5,-810.45"/>
</g>
<!-- canary_addhooks_0 -->
<g id="node17" class="node">
<title>canary_addhooks_0</title>
<g id="a_node17"><a xlink:title="Add additional plugin hooks to canary">
<polygon fill="lightgreen" stroke="black" points="814.2,-798.6 595.8,-798.6 595.8,-758.7 814.2,-758.7 814.2,-798.6"/>
<text text-anchor="middle" x="705" y="-772.4" font-family="Monaco" font-size="20.00">canary_addhooks()</text>
</a>
</g>
</g>
<!-- canary_subcommand_0&#45;&gt;canary_addhooks_0 -->
<g id="edge18" class="edge">
<title>canary_subcommand_0&#45;&gt;canary_addhooks_0</title>
<path fill="none" stroke="black" d="M705,-834.13C705,-826.84 705,-818.35 705,-810.28"/>
<polygon fill="black" stroke="black" points="708.5,-810.45 705,-800.45 701.5,-810.45 708.5,-810.45"/>
</g>
<!-- canary_addhooks_1 -->
<g id="node18" class="node">
<title>canary_addhooks_1</title>
<g id="a_node18"><a xlink:title="Add additional plugin hooks to canary">
<polygon fill="lightgreen" stroke="black" points="1392.2,-798.6 1173.8,-798.6 1173.8,-758.7 1392.2,-758.7 1392.2,-798.6"/>
<text text-anchor="middle" x="1283" y="-772.4" font-family="Monaco" font-size="20.00">canary_addhooks()</text>
</a>
</g>
</g>
<!-- canary_subcommand_1&#45;&gt;canary_addhooks_1 -->
<g id="edge30" class="edge">
<title>canary_subcommand_1&#45;&gt;canary_addhooks_1</title>
<path fill="none" stroke="black" d="M1283,-834.13C1283,-826.84 1283,-818.35 1283,-810.28"/>
<polygon fill="black" stroke="black" points="1286.5,-810.45 1283,-800.45 1279.5,-810.45 1286.5,-810.45"/>
</g>
<!-- canary_addoption -->
<g id="node34" class="node">
<title>canary_addoption</title>
<g id="a_node34"><a xlink:title="Add canary_hpc command line options">
<polygon fill="lightgreen" stroke="black" points="360.2,-722.7 57.8,-722.7 57.8,-682.8 360.2,-682.8 360.2,-722.7"/>
<text text-anchor="middle" x="209" y="-696.5" font-family="Monaco" font-size="20.00">canary_addoption(parser)</text>
</a>
</g>
</g>
<!-- canary_addhooks&#45;&gt;canary_addoption -->
<g id="edge7" class="edge">
<title>canary_addhooks&#45;&gt;canary_addoption</title>
<path fill="none" stroke="black" d="M209,-758.23C209,-750.94 209,-742.45 209,-734.38"/>
<polygon fill="black" stroke="black" points="212.5,-734.55 209,-724.55 205.5,-734.55 212.5,-734.55"/>
</g>
<!-- hpc_addoption -->
<g id="node35" class="node">
<title>hpc_addoption</title>
<g id="a_node35"><a xlink:title="Add canary_hpc command line options">
<polygon fill="lightcyan" stroke="black" points="922.2,-722.7 487.8,-722.7 487.8,-682.8 922.2,-682.8 922.2,-722.7"/>
<text text-anchor="middle" x="705" y="-696.5" font-family="Monaco" font-size="20.00">canary_hpc.canary_addoption(parser)</text>
</a>
</g>
</g>
<!-- canary_addhooks_0&#45;&gt;hpc_addoption -->
<g id="edge19" class="edge">
<title>canary_addhooks_0&#45;&gt;hpc_addoption</title>
<path fill="none" stroke="black" d="M705,-758.23C705,-750.94 705,-742.45 705,-734.38"/>
<polygon fill="black" stroke="black" points="708.5,-734.55 705,-724.55 701.5,-734.55 708.5,-734.55"/>
</g>
<!-- hpc_addoption_1 -->
<g id="node36" class="node">
<title>hpc_addoption_1</title>
<g id="a_node36"><a xlink:title="Add canary_hpc command line options">
<polygon fill="lightcyan" stroke="black" points="1500.2,-722.7 1065.8,-722.7 1065.8,-682.8 1500.2,-682.8 1500.2,-722.7"/>
<text text-anchor="middle" x="1283" y="-696.5" font-family="Monaco" font-size="20.00">canary_hpc.canary_addoption(parser)</text>
</a>
</g>
</g>
<!-- canary_addhooks_1&#45;&gt;hpc_addoption_1 -->
<g id="edge31" class="edge">
<title>canary_addhooks_1&#45;&gt;hpc_addoption_1</title>
<path fill="none" stroke="black" d="M1283,-758.23C1283,-750.94 1283,-742.45 1283,-734.38"/>
<polygon fill="black" stroke="black" points="1286.5,-734.55 1283,-724.55 1279.5,-734.55 1286.5,-734.55"/>
</g>
<!-- parse_args -->
<g id="node19" class="node">
<title>parse_args</title>
<g id="a_node19"><a xlink:title="parse the command line and determine subcommand to run">
<polygon fill="none" stroke="black" points="336.2,-646.8 81.8,-646.8 81.8,-606.9 336.2,-606.9 336.2,-646.8"/>
<text text-anchor="middle" x="209" y="-620.6" font-family="Monaco" font-size="20.00">parser.parser_args()</text>
</a>
</g>
</g>
<!-- canary_configure -->
<g id="node31" class="node">
<title>canary_configure</title>
<g id="a_node31"><a xlink:title="Add configurations">
<polygon fill="lightgreen" stroke="black" points="360.2,-532.65 57.8,-532.65 57.8,-492.75 360.2,-492.75 360.2,-532.65"/>
<text text-anchor="middle" x="209" y="-506.45" font-family="Monaco" font-size="20.00">canary_configure(config)</text>
</a>
</g>
</g>
<!-- parse_args&#45;&gt;canary_configure -->
<g id="edge9" class="edge">
<title>parse_args&#45;&gt;canary_configure</title>
<path fill="none" stroke="black" d="M209,-606.57C209,-589.48 209,-564.22 209,-544.36"/>
<polygon fill="black" stroke="black" points="212.5,-544.62 209,-534.62 205.5,-544.62 212.5,-544.62"/>
</g>
<!-- parse_args_0 -->
<g id="node20" class="node">
<title>parse_args_0</title>
<g id="a_node20"><a xlink:title="parse the command line and determine subcommand to run">
<polygon fill="none" stroke="black" points="832.2,-646.8 577.8,-646.8 577.8,-606.9 832.2,-606.9 832.2,-646.8"/>
<text text-anchor="middle" x="705" y="-620.6" font-family="Monaco" font-size="20.00">parser.parser_args()</text>
</a>
</g>
</g>
<!-- hpc_configure_0 -->
<g id="node32" class="node">
<title>hpc_configure_0</title>
<g id="a_node32"><a xlink:title="For batched runs, the canary_hpc.Conductor manages batching and running test cases.">
<polygon fill="lightcyan" stroke="black" points="976.2,-570.9 433.8,-570.9 433.8,-454.5 976.2,-454.5 976.2,-570.9"/>
<text text-anchor="start" x="441" y="-544.7" font-family="Monaco" font-size="20.00">canary_hpc.canary_configure(config):</text>
<text text-anchor="start" x="441" y="-519.2" font-family="Monaco" font-size="20.00"> &#160;&#160;&#160;conductor = canary_hpc.Conductor()</text>
<text text-anchor="start" x="441" y="-493.7" font-family="Monaco" font-size="20.00"> &#160;&#160;&#160;conductor.setup(config)</text>
<text text-anchor="start" x="441" y="-468.2" font-family="Monaco" font-size="20.00"> &#160;&#160;&#160;config.pluginmanager.register(conductor)</text>
</a>
</g>
</g>
<!-- parse_args_0&#45;&gt;hpc_configure_0 -->
<g id="edge21" class="edge">
<title>parse_args_0&#45;&gt;hpc_configure_0</title>
<path fill="none" stroke="black" d="M705,-606.57C705,-599.61 705,-591.3 705,-582.55"/>
<polygon fill="black" stroke="black" points="708.5,-582.82 705,-572.82 701.5,-582.82 708.5,-582.82"/>
</g>
<!-- parse_args_1 -->
<g id="node21" class="node">
<title>parse_args_1</title>
<g id="a_node21"><a xlink:title="parse the command line and determine subcommand to run">
<polygon fill="none" stroke="black" points="1410.2,-646.8 1155.8,-646.8 1155.8,-606.9 1410.2,-606.9 1410.2,-646.8"/>
<text text-anchor="middle" x="1283" y="-620.6" font-family="Monaco" font-size="20.00">parser.parser_args()</text>
</a>
</g>
</g>
<!-- hpc_configure_1 -->
<g id="node33" class="node">
<title>hpc_configure_1</title>
<g id="a_node33"><a xlink:title="For batched runs, the canary_hpc.Conductor manages in&#45;process running of test cases within a batch.">
<polygon fill="lightcyan" stroke="black" points="1548.2,-570.9 1017.8,-570.9 1017.8,-454.5 1548.2,-454.5 1548.2,-570.9"/>
<text text-anchor="start" x="1025" y="-544.7" font-family="Monaco" font-size="20.00">canary_hpc.canary_configure(config):</text>
<text text-anchor="start" x="1025" y="-519.2" font-family="Monaco" font-size="20.00"> &#160;&#160;&#160;executor = canary_hpc.Executor()</text>
<text text-anchor="start" x="1025" y="-493.7" font-family="Monaco" font-size="20.00"> &#160;&#160;&#160;executor.setup(config)</text>
<text text-anchor="start" x="1025" y="-468.2" font-family="Monaco" font-size="20.00"> &#160;&#160;&#160;config.pluginmanager.register(executor)</text>
</a>
</g>
</g>
<!-- parse_args_1&#45;&gt;hpc_configure_1 -->
<g id="edge33" class="edge">
<title>parse_args_1&#45;&gt;hpc_configure_1</title>
<path fill="none" stroke="black" d="M1283,-606.57C1283,-599.61 1283,-591.3 1283,-582.55"/>
<polygon fill="black" stroke="black" points="1286.5,-582.82 1283,-572.82 1279.5,-582.82 1286.5,-582.82"/>
</g>
<!-- lock -->
<g id="node24" class="node">
<title>lock</title>
<g id="a_node24"><a xlink:title="Generate testcases from generators">
<polygon fill="none" stroke="black" points="270.2,-266.7 147.8,-266.7 147.8,-226.8 270.2,-226.8 270.2,-266.7"/>
<text text-anchor="middle" x="209" y="-240.5" font-family="Monaco" font-size="20.00">lock(...)</text>
</a>
</g>
</g>
<!-- canary_discover_generators&#45;&gt;lock -->
<g id="edge12" class="edge">
<title>canary_discover_generators&#45;&gt;lock</title>
<path fill="none" stroke="black" d="M209,-302.23C209,-294.94 209,-286.45 209,-278.38"/>
<polygon fill="black" stroke="black" points="212.5,-278.55 209,-268.55 205.5,-278.55 212.5,-278.55"/>
</g>
<!-- lock_0 -->
<g id="node25" class="node">
<title>lock_0</title>
<g id="a_node25"><a xlink:title="Generate testcases from generators">
<polygon fill="none" stroke="black" points="766.2,-266.7 643.8,-266.7 643.8,-226.8 766.2,-226.8 766.2,-266.7"/>
<text text-anchor="middle" x="705" y="-240.5" font-family="Monaco" font-size="20.00">lock(...)</text>
</a>
</g>
</g>
<!-- canary_discover_generators_0&#45;&gt;lock_0 -->
<g id="edge24" class="edge">
<title>canary_discover_generators_0&#45;&gt;lock_0</title>
<path fill="none" stroke="black" d="M705,-302.23C705,-294.94 705,-286.45 705,-278.38"/>
<polygon fill="black" stroke="black" points="708.5,-278.55 705,-268.55 701.5,-278.55 708.5,-278.55"/>
</g>
<!-- canary_testsuite_mask -->
<g id="node26" class="node">
<title>canary_testsuite_mask</title>
<g id="a_node26"><a xlink:title="Filter tests">
<polygon fill="lightgreen" stroke="black" points="372.2,-190.8 45.8,-190.8 45.8,-150.9 372.2,-150.9 372.2,-190.8"/>
<text text-anchor="middle" x="209" y="-164.6" font-family="Monaco" font-size="20.00">canary_testsuite_mask(...)</text>
</a>
</g>
</g>
<!-- lock&#45;&gt;canary_testsuite_mask -->
<g id="edge13" class="edge">
<title>lock&#45;&gt;canary_testsuite_mask</title>
<path fill="none" stroke="black" d="M209,-226.33C209,-219.04 209,-210.55 209,-202.48"/>
<polygon fill="black" stroke="black" points="212.5,-202.65 209,-192.65 205.5,-202.65 212.5,-202.65"/>
</g>
<!-- canary_testsuite_mask_0 -->
<g id="node27" class="node">
<title>canary_testsuite_mask_0</title>
<g id="a_node27"><a xlink:title="Filter tests">
<polygon fill="lightgreen" stroke="black" points="868.2,-190.8 541.8,-190.8 541.8,-150.9 868.2,-150.9 868.2,-190.8"/>
<text text-anchor="middle" x="705" y="-164.6" font-family="Monaco" font-size="20.00">canary_testsuite_mask(...)</text>
</a>
</g>
</g>
<!-- lock_0&#45;&gt;canary_testsuite_mask_0 -->
<g id="edge25" class="edge">
<title>lock_0&#45;&gt;canary_testsuite_mask_0</title>
<path fill="none" stroke="black" d="M705,-226.33C705,-219.04 705,-210.55 705,-202.48"/>
<polygon fill="black" stroke="black" points="708.5,-202.65 705,-192.65 701.5,-202.65 708.5,-202.65"/>
</g>
<!-- canary_runtests -->
<g id="node28" class="node">
<title>canary_runtests</title>
<g id="a_node28"><a xlink:title="Run test cases asynchronously">
<polygon fill="lightgreen" stroke="black" points="348.2,-89.4 69.8,-89.4 69.8,-49.5 348.2,-49.5 348.2,-89.4"/>
<text text-anchor="middle" x="209" y="-63.2" font-family="Monaco" font-size="20.00">canary_runtests(cases)</text>
</a>
</g>
</g>
<!-- canary_testsuite_mask&#45;&gt;canary_runtests -->
<g id="edge14" class="edge">
<title>canary_testsuite_mask&#45;&gt;canary_runtests</title>
<path fill="none" stroke="black" d="M209,-150.68C209,-136.61 209,-117.21 209,-101"/>
<polygon fill="black" stroke="black" points="212.5,-101.41 209,-91.41 205.5,-101.41 212.5,-101.41"/>
</g>
<!-- hpc_runtests -->
<g id="node30" class="node">
<title>hpc_runtests</title>
<g id="a_node30"><a xlink:title="Run batches asynchronously">
<polygon fill="lightcyan" stroke="black" points="928.2,-114.9 481.8,-114.9 481.8,-24 928.2,-24 928.2,-114.9"/>
<text text-anchor="start" x="489" y="-88.7" font-family="Monaco" font-size="20.00">conductor.canary_runtests(cases):</text>
<text text-anchor="start" x="489" y="-63.2" font-family="Monaco" font-size="20.00"> &#160;&#160;&#160;batches = batch_testcases(cases)</text>
<text text-anchor="start" x="489" y="-37.7" font-family="Monaco" font-size="20.00"> &#160;&#160;&#160;exec_batches(batches)</text>
</a>
</g>
</g>
<!-- canary_testsuite_mask_0&#45;&gt;hpc_runtests -->
<g id="edge26" class="edge">
<title>canary_testsuite_mask_0&#45;&gt;hpc_runtests</title>
<path fill="none" stroke="black" d="M705,-150.68C705,-143.62 705,-135.22 705,-126.55"/>
<polygon fill="black" stroke="black" points="708.5,-126.61 705,-116.61 701.5,-126.61 708.5,-126.61"/>
</g>
<!-- canary_configure&#45;&gt;run_execute -->
<g id="edge10" class="edge">
<title>canary_configure&#45;&gt;run_execute</title>
<path fill="none" stroke="black" d="M209,-492.42C209,-475.33 209,-450.07 209,-430.21"/>
<polygon fill="black" stroke="black" points="212.5,-430.47 209,-420.47 205.5,-430.47 212.5,-430.47"/>
</g>
<!-- hpc_configure_0&#45;&gt;run_execute_0 -->
<g id="edge22" class="edge">
<title>hpc_configure_0&#45;&gt;run_execute_0</title>
<path fill="none" stroke="black" d="M705,-454.31C705,-445.99 705,-437.72 705,-430.21"/>
<polygon fill="black" stroke="black" points="708.5,-430.31 705,-420.31 701.5,-430.31 708.5,-430.31"/>
</g>
<!-- hpc_configure_1&#45;&gt;run_execute_1 -->
<g id="edge34" class="edge">
<title>hpc_configure_1&#45;&gt;run_execute_1</title>
<path fill="none" stroke="black" d="M1283,-454.31C1283,-445.99 1283,-437.72 1283,-430.21"/>
<polygon fill="black" stroke="black" points="1286.5,-430.31 1283,-420.31 1279.5,-430.31 1286.5,-430.31"/>
</g>
<!-- canary_addoption&#45;&gt;parse_args -->
<g id="edge8" class="edge">
<title>canary_addoption&#45;&gt;parse_args</title>
<path fill="none" stroke="black" d="M209,-682.33C209,-675.04 209,-666.55 209,-658.48"/>
<polygon fill="black" stroke="black" points="212.5,-658.65 209,-648.65 205.5,-658.65 212.5,-658.65"/>
</g>
<!-- hpc_addoption&#45;&gt;parse_args_0 -->
<g id="edge20" class="edge">
<title>hpc_addoption&#45;&gt;parse_args_0</title>
<path fill="none" stroke="black" d="M705,-682.33C705,-675.04 705,-666.55 705,-658.48"/>
<polygon fill="black" stroke="black" points="708.5,-658.65 705,-648.65 701.5,-658.65 708.5,-658.65"/>
</g>
<!-- hpc_addoption_1&#45;&gt;parse_args_1 -->
<g id="edge32" class="edge">
<title>hpc_addoption_1&#45;&gt;parse_args_1</title>
<path fill="none" stroke="black" d="M1283,-682.33C1283,-675.04 1283,-666.55 1283,-658.48"/>
<polygon fill="black" stroke="black" points="1286.5,-658.65 1283,-648.65 1279.5,-658.65 1286.5,-658.65"/>
</g>
<!-- builtin -->
<g id="node37" class="node">
<title>builtin</title>
<polygon fill="none" stroke="black" points="2030,-1102.2 1598,-1102.2 1598,-1062.3 2030,-1062.3 2030,-1102.2"/>
<text text-anchor="middle" x="1814" y="-1076" font-family="Monaco" font-size="20.00">Builtin functions</text>
</g>
<!-- standard -->
<g id="node38" class="node">
<title>standard</title>
<polygon fill="lightgreen" stroke="black" points="2030,-1026.3 1598,-1026.3 1598,-986.4 2030,-986.4 2030,-1026.3"/>
<text text-anchor="middle" x="1814" y="-1000.1" font-family="Monaco" font-size="20.00">Builtin plugin implementation</text>
</g>
<!-- builtin&#45;&gt;standard -->
<!-- outside -->
<g id="node39" class="node">
<title>outside</title>
<polygon fill="lightcyan" stroke="black" points="2030,-950.4 1598,-950.4 1598,-910.5 2030,-910.5 2030,-950.4"/>
<text text-anchor="middle" x="1814" y="-924.2" font-family="Monaco" font-size="20.00">External plugin implementation</text>
</g>
<!-- standard&#45;&gt;outside -->
</g>
</svg>
