<?xml version="1.0" encoding="UTF-8" standalone="no"?>
<!DOCTYPE svg PUBLIC "-//W3C//DTD SVG 1.1//EN"
 "http://www.w3.org/Graphics/SVG/1.1/DTD/svg11.dtd">
<!-- Generated by graphviz version 2.50.0 (0)
 -->
<!-- Title: G Pages: 1 -->
<svg width="1031pt" height="1714pt"
 viewBox="0.00 0.00 1031.30 1714.48" xmlns="http://www.w3.org/2000/svg" xmlns:xlink="http://www.w3.org/1999/xlink">
<g id="graph0" class="graph" transform="scale(1 1) rotate(0) translate(4 1710.48)">
<title>G</title>
<!-- run -->
<g id="node1" class="node">
<title>run</title>
<g id="a_node1"><a href="https://cee-gitlab.sandia.gov/ascic-test-infra/nvtest/-/blob/main/src/_nvtest/plugins/commands/nvtest_run.py?ref_type=heads" xlink:title="nvtest run [options] [pathspec ...]">
<text text-anchor="middle" x="476.5" y="-1683.48" font-family="Monaco" font-size="20.00">nvtest run [options] [pathspec ...]</text>
</a>
</g>
</g>
<!-- init -->
<g id="node4" class="node">
<title>init</title>
<g id="a_node4"><a href="https://cee-gitlab.sandia.gov/ascic-test-infra/nvtest/-/blob/main/src/_nvtest/session.py?ref_type=heads" xlink:title="Initialize\nCreate test session\ndirectory, database, etc.">
<polygon fill="none" stroke="black" points="634,-1629.09 319,-1629.09 319,-1549.09 634,-1549.09 634,-1629.09"/>
<text text-anchor="middle" x="476.5" y="-1606.09" font-family="Monaco" font-size="20.00">Initialize</text>
<text text-anchor="middle" x="476.5" y="-1584.09" font-family="Monaco" font-size="20.00">Create test session</text>
<text text-anchor="middle" x="476.5" y="-1562.09" font-family="Monaco" font-size="20.00">directory, database, etc.</text>
</a>
</g>
</g>
<!-- run&#45;&gt;init -->
<g id="edge14" class="edge">
<title>run&#45;&gt;init</title>
<path fill="none" stroke="black" d="M476.5,-1670.07C476.5,-1661.36 476.5,-1650.33 476.5,-1639.26"/>
<polygon fill="black" stroke="black" points="480,-1639.16 476.5,-1629.16 473,-1639.16 480,-1639.16"/>
</g>
<!-- plug_test_run -->
<g id="node2" class="node">
<title>plug_test_run</title>
<g id="a_node2"><a href="https://cee-gitlab.sandia.gov/ascic-test-infra/nvtest/-/blob/main/src/_nvtest/plugin.py?ref_type=heads#L70" xlink:title="Plugins\ntest_prelaunch\ntest_finish">
<polygon fill="none" stroke="black" points="1005.62,-688.01 1005.62,-738.93 923.54,-774.93 807.46,-774.93 725.38,-738.93 725.38,-688.01 807.46,-652.01 923.54,-652.01 1005.62,-688.01"/>
<text text-anchor="middle" x="865.5" y="-730.47" font-family="Monaco" font-size="20.00">Plugins</text>
<text text-anchor="middle" x="865.5" y="-708.47" font-family="Monaco" font-size="20.00">test_prelaunch</text>
<text text-anchor="middle" x="865.5" y="-686.47" font-family="Monaco" font-size="20.00">test_finish</text>
</a>
</g>
</g>
<!-- plug_test_run_b1 -->
<g id="node3" class="node">
<title>plug_test_run_b1</title>
<g id="a_node3"><a href="https://cee-gitlab.sandia.gov/ascic-test-infra/nvtest/-/blob/main/src/_nvtest/plugin.py?ref_type=heads#L70" xlink:title="Plugins\ntest_prelaunch\ntest_finish">
<polygon fill="none" stroke="black" points="570.62,-234.55 570.62,-285.47 488.54,-321.47 372.46,-321.47 290.38,-285.47 290.38,-234.55 372.46,-198.55 488.54,-198.55 570.62,-234.55"/>
<text text-anchor="middle" x="430.5" y="-277.01" font-family="Monaco" font-size="20.00">Plugins</text>
<text text-anchor="middle" x="430.5" y="-255.01" font-family="Monaco" font-size="20.00">test_prelaunch</text>
<text text-anchor="middle" x="430.5" y="-233.01" font-family="Monaco" font-size="20.00">test_finish</text>
</a>
</g>
</g>
<!-- run_async_b1 -->
<g id="node21" class="node">
<title>run_async_b1</title>
<g id="a_node21"><a href="https://cee-gitlab.sandia.gov/ascic-test-infra/nvtest/-/blob/main/src/_nvtest/runners.py?ref_type=heads#L26" xlink:title="Run tests in\nbatch asynchronously">
<polygon fill="none" stroke="black" points="255,-289.01 0,-289.01 0,-231.01 255,-231.01 255,-289.01"/>
<text text-anchor="middle" x="127.5" y="-266.01" font-family="Monaco" font-size="20.00">Run tests in</text>
<text text-anchor="middle" x="127.5" y="-244.01" font-family="Monaco" font-size="20.00">batch asynchronously</text>
</a>
</g>
</g>
<!-- plug_test_run_b1&#45;&gt;run_async_b1 -->
<g id="edge7" class="edge">
<title>plug_test_run_b1&#45;&gt;run_async_b1</title>
<path fill="none" stroke="black" d="M290.33,-260.01C278.57,-260.01 266.8,-260.01 255.03,-260.01"/>
</g>
<!-- search -->
<g id="node5" class="node">
<title>search</title>
<g id="a_node5"><a href="https://cee-gitlab.sandia.gov/ascic-test-infra/nvtest/-/blob/main/src/_nvtest/finder.py?ref_type=heads" xlink:title="Search\nFind test files and\ninstantiate TestGenerator\nobjects for each">
<polygon fill="none" stroke="black" points="634,-1507.7 319,-1507.7 319,-1405.7 634,-1405.7 634,-1507.7"/>
<text text-anchor="middle" x="476.5" y="-1484.7" font-family="Monaco" font-size="20.00">Search</text>
<text text-anchor="middle" x="476.5" y="-1462.7" font-family="Monaco" font-size="20.00">Find test files and</text>
<text text-anchor="middle" x="476.5" y="-1440.7" font-family="Monaco" font-size="20.00">instantiate TestGenerator</text>
<text text-anchor="middle" x="476.5" y="-1418.7" font-family="Monaco" font-size="20.00">objects for each</text>
</a>
</g>
</g>
<!-- init&#45;&gt;search -->
<g id="edge16" class="edge">
<title>init&#45;&gt;search</title>
<path fill="none" stroke="black" d="M476.5,-1548.97C476.5,-1539.19 476.5,-1528.48 476.5,-1517.94"/>
<polygon fill="black" stroke="black" points="480,-1517.92 476.5,-1507.92 473,-1517.92 480,-1517.92"/>
</g>
<!-- plug_session_init -->
<g id="node10" class="node">
<title>plug_session_init</title>
<g id="a_node10"><a href="https://cee-gitlab.sandia.gov/ascic-test-infra/nvtest/-/blob/main/src/_nvtest/session.py?ref_type=heads#L175" xlink:title="Plugin\nsession_initialize">
<polygon fill="none" stroke="black" points="1023.1,-1570.75 1023.1,-1607.43 919.65,-1633.37 773.35,-1633.37 669.9,-1607.43 669.9,-1570.75 773.35,-1544.81 919.65,-1544.81 1023.1,-1570.75"/>
<text text-anchor="middle" x="846.5" y="-1595.09" font-family="Monaco" font-size="20.00">Plugin</text>
<text text-anchor="middle" x="846.5" y="-1573.09" font-family="Monaco" font-size="20.00">session_initialize</text>
</a>
</g>
</g>
<!-- init&#45;&gt;plug_session_init -->
<g id="edge15" class="edge">
<title>init&#45;&gt;plug_session_init</title>
<path fill="none" stroke="black" d="M634.04,-1589.09C645.93,-1589.09 657.83,-1589.09 669.73,-1589.09"/>
</g>
<!-- lock -->
<g id="node6" class="node">
<title>lock</title>
<g id="a_node6"><a href="https://cee-gitlab.sandia.gov/ascic-test-infra/nvtest/-/blob/main/src/_nvtest/finder.py?ref_type=heads#L161" xlink:title="Lock\nExpand parameters and\ncreate concrete test cases\nfrom each generator">
<polygon fill="none" stroke="black" points="640,-1368.7 313,-1368.7 313,-1266.7 640,-1266.7 640,-1368.7"/>
<text text-anchor="middle" x="476.5" y="-1345.7" font-family="Monaco" font-size="20.00">Lock</text>
<text text-anchor="middle" x="476.5" y="-1323.7" font-family="Monaco" font-size="20.00">Expand parameters and</text>
<text text-anchor="middle" x="476.5" y="-1301.7" font-family="Monaco" font-size="20.00">create concrete test cases</text>
<text text-anchor="middle" x="476.5" y="-1279.7" font-family="Monaco" font-size="20.00">from each generator</text>
</a>
</g>
</g>
<!-- search&#45;&gt;lock -->
<g id="edge18" class="edge">
<title>search&#45;&gt;lock</title>
<path fill="none" stroke="black" d="M476.5,-1405.46C476.5,-1396.9 476.5,-1387.93 476.5,-1379.13"/>
<polygon fill="black" stroke="black" points="480,-1378.93 476.5,-1368.93 473,-1378.93 480,-1378.93"/>
</g>
<!-- plug_session_discovery -->
<g id="node11" class="node">
<title>plug_session_discovery</title>
<g id="a_node11"><a href="https://cee-gitlab.sandia.gov/ascic-test-infra/nvtest/-/blob/main/src/_nvtest/session.py?ref_type=heads#L402" xlink:title="Plugin\nsession_discovery">
<polygon fill="none" stroke="black" points="1005.23,-1438.36 1005.23,-1475.04 906.98,-1500.98 768.02,-1500.98 669.77,-1475.04 669.77,-1438.36 768.02,-1412.42 906.98,-1412.42 1005.23,-1438.36"/>
<text text-anchor="middle" x="837.5" y="-1462.7" font-family="Monaco" font-size="20.00">Plugin</text>
<text text-anchor="middle" x="837.5" y="-1440.7" font-family="Monaco" font-size="20.00">session_discovery</text>
</a>
</g>
</g>
<!-- search&#45;&gt;plug_session_discovery -->
<g id="edge17" class="edge">
<title>search&#45;&gt;plug_session_discovery</title>
<path fill="none" stroke="black" d="M634.08,-1456.7C646,-1456.7 657.92,-1456.7 669.84,-1456.7"/>
</g>
<!-- setup -->
<g id="node7" class="node">
<title>setup</title>
<g id="a_node7"><a href="https://cee-gitlab.sandia.gov/ascic-test-infra/nvtest/-/blob/main/src/_nvtest/test/case.py?ref_type=heads#L806" xlink:title="Setup\ncreate execution\ndirectories for test cases\nand copy/link resources">
<polygon fill="none" stroke="black" points="640,-1229.7 313,-1229.7 313,-1127.7 640,-1127.7 640,-1229.7"/>
<text text-anchor="middle" x="476.5" y="-1206.7" font-family="Monaco" font-size="20.00">Setup</text>
<text text-anchor="middle" x="476.5" y="-1184.7" font-family="Monaco" font-size="20.00">create execution</text>
<text text-anchor="middle" x="476.5" y="-1162.7" font-family="Monaco" font-size="20.00">directories for test cases</text>
<text text-anchor="middle" x="476.5" y="-1140.7" font-family="Monaco" font-size="20.00">and copy/link resources</text>
</a>
</g>
</g>
<!-- lock&#45;&gt;setup -->
<g id="edge19" class="edge">
<title>lock&#45;&gt;setup</title>
<path fill="none" stroke="black" d="M476.5,-1266.46C476.5,-1257.9 476.5,-1248.93 476.5,-1240.13"/>
<polygon fill="black" stroke="black" points="480,-1239.93 476.5,-1229.93 473,-1239.93 480,-1239.93"/>
</g>
<!-- plug_test_setup -->
<g id="node13" class="node">
<title>plug_test_setup</title>
<g id="a_node13"><a href="https://cee-gitlab.sandia.gov/ascic-test-infra/nvtest/-/blob/main/src/_nvtest/test/case.py?ref_type=heads#L818" xlink:title="Plugin\ntest_setup">
<polygon fill="none" stroke="black" points="881.65,-1160.36 881.65,-1197.04 821.23,-1222.98 735.77,-1222.98 675.35,-1197.04 675.35,-1160.36 735.77,-1134.42 821.23,-1134.42 881.65,-1160.36"/>
<text text-anchor="middle" x="778.5" y="-1184.7" font-family="Monaco" font-size="20.00">Plugin</text>
<text text-anchor="middle" x="778.5" y="-1162.7" font-family="Monaco" font-size="20.00">test_setup</text>
</a>
</g>
</g>
<!-- setup&#45;&gt;plug_test_setup -->
<g id="edge20" class="edge">
<title>setup&#45;&gt;plug_test_setup</title>
<path fill="none" stroke="black" d="M640.18,-1178.7C651.89,-1178.7 663.59,-1178.7 675.3,-1178.7"/>
</g>
<!-- batched -->
<g id="node16" class="node">
<title>batched</title>
<g id="a_node16"><a href="https://cee-gitlab.sandia.gov/ascic-test-infra/nvtest/-/blob/main/src/_nvtest/test/batch.py?ref_type=heads" xlink:title="Batched?">
<polygon fill="lightgrey" stroke="black" points="476.5,-1090.7 368.5,-1054.7 476.5,-1018.7 584.5,-1054.7 476.5,-1090.7"/>
<text text-anchor="middle" x="476.5" y="-1049.7" font-family="Monaco" font-size="20.00">Batched?</text>
</a>
</g>
</g>
<!-- setup&#45;&gt;batched -->
<g id="edge21" class="edge">
<title>setup&#45;&gt;batched</title>
<path fill="none" stroke="black" d="M476.5,-1127.37C476.5,-1118.69 476.5,-1109.72 476.5,-1101.17"/>
<polygon fill="black" stroke="black" points="480,-1101.02 476.5,-1091.02 473,-1101.02 480,-1101.02"/>
</g>
<!-- finish -->
<g id="node8" class="node">
<title>finish</title>
<polygon fill="none" stroke="black" points="406,-135.39 319,-135.39 319,-99.39 406,-99.39 406,-135.39"/>
<text text-anchor="middle" x="362.5" y="-112.39" font-family="Monaco" font-size="20.00">Finish</text>
</g>
<!-- done -->
<g id="node9" class="node">
<title>done</title>
<polygon fill="none" stroke="black" points="394,-36 331,-36 331,0 394,0 394,-36"/>
<text text-anchor="middle" x="362.5" y="-13" font-family="Monaco" font-size="20.00">Done</text>
</g>
<!-- finish&#45;&gt;done -->
<g id="edge24" class="edge">
<title>finish&#45;&gt;done</title>
<path fill="none" stroke="black" d="M362.5,-98.98C362.5,-84.44 362.5,-63.44 362.5,-46.61"/>
<polygon fill="black" stroke="black" points="366,-46.26 362.5,-36.26 359,-46.26 366,-46.26"/>
</g>
<!-- plug_session_finish -->
<g id="node12" class="node">
<title>plug_session_finish</title>
<polygon fill="none" stroke="black" points="721.62,-99.05 721.62,-135.73 639.54,-161.67 523.46,-161.67 441.38,-135.73 441.38,-99.05 523.46,-73.11 639.54,-73.11 721.62,-99.05"/>
<text text-anchor="middle" x="581.5" y="-123.39" font-family="Monaco" font-size="20.00">Plugin</text>
<text text-anchor="middle" x="581.5" y="-101.39" font-family="Monaco" font-size="20.00">session_finish</text>
</g>
<!-- finish&#45;&gt;plug_session_finish -->
<g id="edge23" class="edge">
<title>finish&#45;&gt;plug_session_finish</title>
<path fill="none" stroke="black" d="M406.13,-117.39C417.89,-117.39 429.65,-117.39 441.41,-117.39"/>
</g>
<!-- queue -->
<g id="node14" class="node">
<title>queue</title>
<g id="a_node14"><a href="https://cee-gitlab.sandia.gov/ascic-test-infra/nvtest/-/blob/main/src/_nvtest/queues.py?ref_type=heads#L203" xlink:title="Put test cases in\nResourceQueue">
<polygon fill="none" stroke="black" points="708,-967.7 489,-967.7 489,-909.7 708,-909.7 708,-967.7"/>
<text text-anchor="middle" x="598.5" y="-944.7" font-family="Monaco" font-size="20.00">Put test cases in</text>
<text text-anchor="middle" x="598.5" y="-922.7" font-family="Monaco" font-size="20.00">ResourceQueue</text>
</a>
</g>
</g>
<!-- run_async -->
<g id="node23" class="node">
<title>run_async</title>
<g id="a_node23"><a href="https://cee-gitlab.sandia.gov/ascic-test-infra/nvtest/-/blob/main/src/_nvtest/runners.py?ref_type=heads#L26" xlink:title="Run tests\nasynchronously">
<polygon fill="none" stroke="black" points="690,-742.47 507,-742.47 507,-684.47 690,-684.47 690,-742.47"/>
<text text-anchor="middle" x="598.5" y="-719.47" font-family="Monaco" font-size="20.00">Run tests</text>
<text text-anchor="middle" x="598.5" y="-697.47" font-family="Monaco" font-size="20.00">asynchronously</text>
</a>
</g>
</g>
<!-- queue&#45;&gt;run_async -->
<g id="edge11" class="edge">
<title>queue&#45;&gt;run_async</title>
<path fill="none" stroke="black" d="M598.5,-909.43C598.5,-869.68 598.5,-797.15 598.5,-752.65"/>
<polygon fill="black" stroke="black" points="602,-752.51 598.5,-742.51 595,-752.51 602,-752.51"/>
</g>
<!-- batch_queue -->
<g id="node15" class="node">
<title>batch_queue</title>
<g id="a_node15"><a href="https://cee-gitlab.sandia.gov/ascic-test-infra/nvtest/-/blob/main/src/_nvtest/queues.py?ref_type=heads#L264" xlink:title="Put test cases in\nBatchResourceQueue">
<polygon fill="none" stroke="black" points="471,-967.7 240,-967.7 240,-909.7 471,-909.7 471,-967.7"/>
<text text-anchor="middle" x="355.5" y="-944.7" font-family="Monaco" font-size="20.00">Put test cases in</text>
<text text-anchor="middle" x="355.5" y="-922.7" font-family="Monaco" font-size="20.00">BatchResourceQueue</text>
</a>
</g>
</g>
<!-- batch_cases -->
<g id="node17" class="node">
<title>batch_cases</title>
<g id="a_node17"><a href="https://cee-gitlab.sandia.gov/ascic-test-infra/nvtest/-/blob/main/src/_nvtest/util/partition.py?ref_type=heads#L53" xlink:title="Batch test cases\nusing tiling\nalgorithm">
<polygon fill="none" stroke="black" points="453,-872.7 246,-872.7 246,-792.7 453,-792.7 453,-872.7"/>
<text text-anchor="middle" x="349.5" y="-849.7" font-family="Monaco" font-size="20.00">Batch test cases</text>
<text text-anchor="middle" x="349.5" y="-827.7" font-family="Monaco" font-size="20.00">using tiling</text>
<text text-anchor="middle" x="349.5" y="-805.7" font-family="Monaco" font-size="20.00">algorithm</text>
</a>
</g>
</g>
<!-- batch_queue&#45;&gt;batch_cases -->
<g id="edge2" class="edge">
<title>batch_queue&#45;&gt;batch_cases</title>
<path fill="none" stroke="black" d="M353.88,-909.56C353.4,-901.34 352.87,-892.11 352.34,-882.99"/>
<polygon fill="black" stroke="black" points="355.83,-882.58 351.76,-872.8 348.84,-882.98 355.83,-882.58"/>
</g>
<!-- batched&#45;&gt;queue -->
<g id="edge10" class="edge">
<title>batched&#45;&gt;queue</title>
<path fill="none" stroke="black" d="M504.18,-1027.83C520.92,-1012.2 542.47,-992.05 560.75,-974.97"/>
<polygon fill="black" stroke="black" points="563.45,-977.25 568.36,-967.86 558.67,-972.13 563.45,-977.25"/>
<text text-anchor="middle" x="556" y="-989.5" font-family="Times,serif" font-size="14.00">No</text>
</g>
<!-- batched&#45;&gt;batch_queue -->
<g id="edge1" class="edge">
<title>batched&#45;&gt;batch_queue</title>
<path fill="none" stroke="black" d="M449.04,-1027.83C432.45,-1012.2 411.07,-992.05 392.94,-974.97"/>
<polygon fill="black" stroke="black" points="395.07,-972.17 385.39,-967.86 390.27,-977.27 395.07,-972.17"/>
<text text-anchor="middle" x="430" y="-989.5" font-family="Times,serif" font-size="14.00">Yes</text>
</g>
<!-- scheduled -->
<g id="node19" class="node">
<title>scheduled</title>
<polygon fill="lightgrey" stroke="black" points="347.5,-634.24 239.5,-598.24 347.5,-562.24 455.5,-598.24 347.5,-634.24"/>
<text text-anchor="middle" x="347.5" y="-593.24" font-family="Monaco" font-size="20.00">Scheduled?</text>
</g>
<!-- batch_cases&#45;&gt;scheduled -->
<g id="edge3" class="edge">
<title>batch_cases&#45;&gt;scheduled</title>
<path fill="none" stroke="black" d="M349.16,-792.53C348.81,-751.65 348.26,-687.62 347.89,-644.58"/>
<polygon fill="black" stroke="black" points="351.39,-644.35 347.8,-634.38 344.39,-644.41 351.39,-644.35"/>
</g>
<!-- run_batch -->
<g id="node18" class="node">
<title>run_batch</title>
<g id="a_node18"><a href="https://cee-gitlab.sandia.gov/ascic-test-infra/nvtest/-/blob/main/src/_nvtest/plugins/runners/nvtest_slurm.py?ref_type=heads#L77" xlink:title="Run batch">
<polygon fill="none" stroke="black" points="190,-394.24 67,-394.24 67,-358.24 190,-358.24 190,-394.24"/>
<text text-anchor="middle" x="128.5" y="-371.24" font-family="Monaco" font-size="20.00">Run batch</text>
</a>
</g>
</g>
<!-- run_batch&#45;&gt;run_async_b1 -->
<g id="edge6" class="edge">
<title>run_batch&#45;&gt;run_async_b1</title>
<path fill="none" stroke="black" d="M128.35,-357.89C128.21,-342.37 128.01,-319.08 127.83,-299.22"/>
<polygon fill="black" stroke="black" points="131.33,-299.18 127.75,-289.21 124.33,-299.24 131.33,-299.18"/>
</g>
<!-- run_batched_sched -->
<g id="node20" class="node">
<title>run_batched_sched</title>
<g id="a_node20"><a href="https://cee-gitlab.sandia.gov/ascic-test-infra/nvtest/-/blob/main/src/_nvtest/runners.py?ref_type=heads#L116" xlink:title="Run batches\nasynchronously\nthrough scheduler">
<polygon fill="none" stroke="black" points="238,-511.24 19,-511.24 19,-431.24 238,-431.24 238,-511.24"/>
<text text-anchor="middle" x="128.5" y="-488.24" font-family="Monaco" font-size="20.00">Run batches</text>
<text text-anchor="middle" x="128.5" y="-466.24" font-family="Monaco" font-size="20.00">asynchronously</text>
<text text-anchor="middle" x="128.5" y="-444.24" font-family="Monaco" font-size="20.00">through scheduler</text>
</a>
</g>
</g>
<!-- scheduled&#45;&gt;run_batched_sched -->
<g id="edge4" class="edge">
<title>scheduled&#45;&gt;run_batched_sched</title>
<path fill="none" stroke="black" d="M308.6,-575.04C280.16,-558.8 240.64,-536.25 205.87,-516.4"/>
<polygon fill="black" stroke="black" points="207.56,-513.33 197.14,-511.42 204.09,-519.41 207.56,-513.33"/>
<text text-anchor="middle" x="262" y="-533.04" font-family="Times,serif" font-size="14.00">Yes</text>
</g>
<!-- run_batched_no_sched -->
<g id="node22" class="node">
<title>run_batched_no_sched</title>
<g id="a_node22"><a href="https://cee-gitlab.sandia.gov/ascic-test-infra/nvtest/-/blob/main/src/_nvtest/runners.py?ref_type=heads#L116" xlink:title="Run batches\nasynchronously">
<polygon fill="none" stroke="black" points="439,-500.24 256,-500.24 256,-442.24 439,-442.24 439,-500.24"/>
<text text-anchor="middle" x="347.5" y="-477.24" font-family="Monaco" font-size="20.00">Run batches</text>
<text text-anchor="middle" x="347.5" y="-455.24" font-family="Monaco" font-size="20.00">asynchronously</text>
</a>
</g>
</g>
<!-- scheduled&#45;&gt;run_batched_no_sched -->
<g id="edge8" class="edge">
<title>scheduled&#45;&gt;run_batched_no_sched</title>
<path fill="none" stroke="black" d="M347.5,-562.09C347.5,-546.1 347.5,-527.13 347.5,-510.75"/>
<polygon fill="black" stroke="black" points="351,-510.42 347.5,-500.42 344,-510.42 351,-510.42"/>
<text text-anchor="middle" x="356" y="-533.04" font-family="Times,serif" font-size="14.00">No</text>
</g>
<!-- run_batched_sched&#45;&gt;run_batch -->
<g id="edge5" class="edge">
<title>run_batched_sched&#45;&gt;run_batch</title>
<path fill="none" stroke="black" d="M128.5,-431.07C128.5,-422.23 128.5,-413.04 128.5,-404.8"/>
<polygon fill="black" stroke="black" points="132,-404.62 128.5,-394.62 125,-404.62 132,-404.62"/>
</g>
<!-- run_async_b1&#45;&gt;finish -->
<g id="edge22" class="edge">
<title>run_async_b1&#45;&gt;finish</title>
<path fill="none" stroke="black" d="M174.49,-230.89C218.82,-204.37 284.4,-165.12 325.23,-140.69"/>
<polygon fill="black" stroke="black" points="327.27,-143.55 334.05,-135.41 323.68,-137.54 327.27,-143.55"/>
</g>
<!-- run_batched_no_sched&#45;&gt;run_batch -->
<g id="edge9" class="edge">
<title>run_batched_no_sched&#45;&gt;run_batch</title>
<path fill="none" stroke="black" d="M281.5,-442.21C248.31,-428.12 208.76,-411.33 178.19,-398.34"/>
<polygon fill="black" stroke="black" points="179.17,-394.96 168.6,-394.27 176.43,-401.4 179.17,-394.96"/>
</g>
<!-- run_async&#45;&gt;plug_test_run -->
<g id="edge12" class="edge">
<title>run_async&#45;&gt;plug_test_run</title>
<path fill="none" stroke="black" d="M690.02,-713.47C701.79,-713.47 713.55,-713.47 725.32,-713.47"/>
</g>
<!-- run_async&#45;&gt;finish -->
<g id="edge13" class="edge">
<title>run_async&#45;&gt;finish</title>
<path fill="none" stroke="black" d="M598.5,-684.33C598.5,-649.8 598.5,-589.46 598.5,-537.74 598.5,-537.74 598.5,-537.74 598.5,-259.01 598.5,-230.94 599.92,-218.04 579.5,-198.78 530.48,-152.57 494.53,-188.06 432.5,-161.78 419.49,-156.27 406.1,-148.55 394.55,-141.15"/>
<polygon fill="black" stroke="black" points="396.39,-138.17 386.12,-135.59 392.54,-144.01 396.39,-138.17"/>
</g>
<!-- nothing1 -->
<!-- nothing2 -->
</g>
</svg>
