<?xml version="1.0" encoding="UTF-8" standalone="no"?>
<!DOCTYPE svg PUBLIC "-//W3C//DTD SVG 1.1//EN"
 "http://www.w3.org/Graphics/SVG/1.1/DTD/svg11.dtd">
<!-- Generated by graphviz version 2.50.0 (0)
 -->
<!-- Title: G Pages: 1 -->
<svg width="889pt" height="1478pt"
 viewBox="0.00 0.00 889.00 1478.00" xmlns="http://www.w3.org/2000/svg" xmlns:xlink="http://www.w3.org/1999/xlink">
<g id="graph0" class="graph" transform="scale(1 1) rotate(0) translate(4 1474)">
<title>G</title>
<!-- run -->
<g id="node1" class="node">
<title>run</title>
<g id="a_node1"><a href="https://cee-gitlab.sandia.gov/ascic-test-infra/canary/-/blob/main/src/_canary/commands/run.py?ref_type=heads#L26" title="canary run [options] [pathspec ...]">
<text text-anchor="middle" x="357.5" y="-1447" font-family="Monaco" font-size="20.00">canary run [options] [pathspec ...]</text>
</a>
</g>
</g>
<!-- init -->
<g id="node4" class="node">
<title>init</title>
<g id="a_node4"><a href="https://cee-gitlab.sandia.gov/ascic-test-infra/canary/-/blob/main/src/_canary/session.py?ref_type=heads#L90" title="Initialize\nCreate test session\ndirectory, database, etc.">
<polygon fill="none" stroke="black" points="515,-1397 200,-1397 200,-1317 515,-1317 515,-1397"/>
<text text-anchor="middle" x="357.5" y="-1374" font-family="Monaco" font-size="20.00">Initialize</text>
<text text-anchor="middle" x="357.5" y="-1352" font-family="Monaco" font-size="20.00">Create test session</text>
<text text-anchor="middle" x="357.5" y="-1330" font-family="Monaco" font-size="20.00">directory, database, etc.</text>
</a>
</g>
</g>
<!-- run&#45;&gt;init -->
<g id="edge14" class="edge">
<title>run&#45;&gt;init</title>
<path fill="none" stroke="black" d="M357.5,-1433.94C357.5,-1426.39 357.5,-1417.09 357.5,-1407.61"/>
<polygon fill="black" stroke="black" points="361,-1407.33 357.5,-1397.33 354,-1407.33 361,-1407.33"/>
</g>
<!-- plug_test_run -->
<g id="node2" class="node">
<title>plug_test_run</title>
<g id="a_node2"><a href="https://cee-gitlab.sandia.gov/ascic-test-infra/canary/-/blob/main/src/_canary/plugin.py?ref_type=heads#L70" title="Plugins:\ntest_prelaunch\ntest_finish">
<polygon fill="none" stroke="black" points="619,-157.5 706,-157.5 706,-192.5 619,-192.5 607,-175 619,-157.5"/>
<text text-anchor="middle" x="656.5" y="-183.5" font-family="Monaco" font-size="10.00">Plugins:</text>
<text text-anchor="middle" x="656.5" y="-172.5" font-family="Monaco" font-size="10.00">test_prelaunch</text>
<text text-anchor="middle" x="656.5" y="-161.5" font-family="Monaco" font-size="10.00">test_finish</text>
</a>
</g>
</g>
<!-- plug_test_run_b1 -->
<g id="node3" class="node">
<title>plug_test_run_b1</title>
<g id="a_node3"><a href="https://cee-gitlab.sandia.gov/ascic-test-infra/canary/-/blob/main/src/_canary/plugin.py?ref_type=heads#L70" title="Plugins:\ntest_prelaunch\ntest_finish">
<polygon fill="none" stroke="black" points="296,-247 383,-247 383,-282 296,-282 284,-264.5 296,-247"/>
<text text-anchor="middle" x="333.5" y="-273" font-family="Monaco" font-size="10.00">Plugins:</text>
<text text-anchor="middle" x="333.5" y="-262" font-family="Monaco" font-size="10.00">test_prelaunch</text>
<text text-anchor="middle" x="333.5" y="-251" font-family="Monaco" font-size="10.00">test_finish</text>
</a>
</g>
</g>
<!-- run_async_b1 -->
<g id="node21" class="node">
<title>run_async_b1</title>
<g id="a_node21"><a href="https://cee-gitlab.sandia.gov/ascic-test-infra/canary/-/blob/main/src/_canary/runners.py?ref_type=heads#L26" title="Run tests in\nbatch asynchronously">
<polygon fill="none" stroke="black" points="370,-204 115,-204 115,-146 370,-146 370,-204"/>
<text text-anchor="middle" x="242.5" y="-181" font-family="Monaco" font-size="20.00">Run tests in</text>
<text text-anchor="middle" x="242.5" y="-159" font-family="Monaco" font-size="20.00">batch asynchronously</text>
</a>
</g>
</g>
<!-- plug_test_run_b1&#45;&gt;run_async_b1 -->
<g id="edge7" class="edge">
<title>plug_test_run_b1&#45;&gt;run_async_b1</title>
<path fill="none" stroke="black" d="M310.07,-240.97C298.37,-229.73 284.12,-216.02 271.72,-204.1"/>
</g>
<!-- search -->
<g id="node5" class="node">
<title>search</title>
<g id="a_node5"><a href="https://cee-gitlab.sandia.gov/ascic-test-infra/canary/-/blob/main/src/_canary/finder.py?ref_type=heads" title="Search\nFind test files and\ninstantiate TestGenerator\nobjects for each">
<polygon fill="none" stroke="black" points="515,-1280 200,-1280 200,-1178 515,-1178 515,-1280"/>
<text text-anchor="middle" x="357.5" y="-1257" font-family="Monaco" font-size="20.00">Search</text>
<text text-anchor="middle" x="357.5" y="-1235" font-family="Monaco" font-size="20.00">Find test files and</text>
<text text-anchor="middle" x="357.5" y="-1213" font-family="Monaco" font-size="20.00">instantiate TestGenerator</text>
<text text-anchor="middle" x="357.5" y="-1191" font-family="Monaco" font-size="20.00">objects for each</text>
</a>
</g>
</g>
<!-- init&#45;&gt;search -->
<g id="edge16" class="edge">
<title>init&#45;&gt;search</title>
<path fill="none" stroke="black" d="M357.5,-1316.82C357.5,-1308.43 357.5,-1299.37 357.5,-1290.38"/>
<polygon fill="black" stroke="black" points="361,-1290.3 357.5,-1280.3 354,-1290.3 361,-1290.3"/>
</g>
<!-- plug_session_init -->
<g id="node10" class="node">
<title>plug_session_init</title>
<g id="a_node10"><a href="https://cee-gitlab.sandia.gov/ascic-test-infra/canary/-/blob/main/src/_canary/session.py?ref_type=heads#L175" title="Plugin:\nsession_initialize">
<polygon fill="none" stroke="black" points="563,-1345 674,-1345 674,-1369 563,-1369 551,-1357 563,-1345"/>
<text text-anchor="middle" x="612.5" y="-1360" font-family="Monaco" font-size="10.00">Plugin:</text>
<text text-anchor="middle" x="612.5" y="-1349" font-family="Monaco" font-size="10.00">session_initialize</text>
</a>
</g>
</g>
<!-- init&#45;&gt;plug_session_init -->
<g id="edge15" class="edge">
<title>init&#45;&gt;plug_session_init</title>
<path fill="none" stroke="black" d="M515.38,-1357C527.14,-1357 538.9,-1357 550.66,-1357"/>
</g>
<!-- lock -->
<g id="node6" class="node">
<title>lock</title>
<g id="a_node6"><a href="https://cee-gitlab.sandia.gov/ascic-test-infra/canary/-/blob/main/src/_canary/finder.py?ref_type=heads#L161" title="Lock\nExpand parameters and\ncreate concrete test cases\nfrom each generator">
<polygon fill="none" stroke="black" points="521,-1141 194,-1141 194,-1039 521,-1039 521,-1141"/>
<text text-anchor="middle" x="357.5" y="-1118" font-family="Monaco" font-size="20.00">Lock</text>
<text text-anchor="middle" x="357.5" y="-1096" font-family="Monaco" font-size="20.00">Expand parameters and</text>
<text text-anchor="middle" x="357.5" y="-1074" font-family="Monaco" font-size="20.00">create concrete test cases</text>
<text text-anchor="middle" x="357.5" y="-1052" font-family="Monaco" font-size="20.00">from each generator</text>
</a>
</g>
</g>
<!-- search&#45;&gt;lock -->
<g id="edge18" class="edge">
<title>search&#45;&gt;lock</title>
<path fill="none" stroke="black" d="M357.5,-1177.76C357.5,-1169.2 357.5,-1160.23 357.5,-1151.43"/>
<polygon fill="black" stroke="black" points="361,-1151.23 357.5,-1141.23 354,-1151.23 361,-1151.23"/>
</g>
<!-- plug_session_discovery -->
<g id="node11" class="node">
<title>plug_session_discovery</title>
<g id="a_node11"><a href="https://cee-gitlab.sandia.gov/ascic-test-infra/canary/-/blob/main/src/_canary/session.py?ref_type=heads#L402" title="Plugin:\nsession_discovery">
<polygon fill="none" stroke="black" points="563,-1217 668,-1217 668,-1241 563,-1241 551,-1229 563,-1217"/>
<text text-anchor="middle" x="609.5" y="-1232" font-family="Monaco" font-size="10.00">Plugin:</text>
<text text-anchor="middle" x="609.5" y="-1221" font-family="Monaco" font-size="10.00">session_discovery</text>
</a>
</g>
</g>
<!-- search&#45;&gt;plug_session_discovery -->
<g id="edge17" class="edge">
<title>search&#45;&gt;plug_session_discovery</title>
<path fill="none" stroke="black" d="M515.49,-1229C527.24,-1229 538.99,-1229 550.75,-1229"/>
</g>
<!-- setup -->
<g id="node7" class="node">
<title>setup</title>
<g id="a_node7"><a href="https://cee-gitlab.sandia.gov/ascic-test-infra/canary/-/blob/main/src/_canary/test/case.py?ref_type=heads#L806" title="Setup\ncreate execution\ndirectories for test cases\nand copy/link resources">
<polygon fill="none" stroke="black" points="521,-1002 194,-1002 194,-900 521,-900 521,-1002"/>
<text text-anchor="middle" x="357.5" y="-979" font-family="Monaco" font-size="20.00">Setup</text>
<text text-anchor="middle" x="357.5" y="-957" font-family="Monaco" font-size="20.00">create execution</text>
<text text-anchor="middle" x="357.5" y="-935" font-family="Monaco" font-size="20.00">directories for test cases</text>
<text text-anchor="middle" x="357.5" y="-913" font-family="Monaco" font-size="20.00">and copy/link resources</text>
</a>
</g>
</g>
<!-- lock&#45;&gt;setup -->
<g id="edge19" class="edge">
<title>lock&#45;&gt;setup</title>
<path fill="none" stroke="black" d="M357.5,-1038.76C357.5,-1030.2 357.5,-1021.23 357.5,-1012.43"/>
<polygon fill="black" stroke="black" points="361,-1012.23 357.5,-1002.23 354,-1012.23 361,-1012.23"/>
</g>
<!-- plug_test_setup -->
<g id="node13" class="node">
<title>plug_test_setup</title>
<g id="a_node13"><a href="https://cee-gitlab.sandia.gov/ascic-test-infra/canary/-/blob/main/src/_canary/test/case.py?ref_type=heads#L818" title="Plugin:\ntest_setup">
<polygon fill="none" stroke="black" points="569,-939 632,-939 632,-963 569,-963 557,-951 569,-939"/>
<text text-anchor="middle" x="594.5" y="-954" font-family="Monaco" font-size="10.00">Plugin:</text>
<text text-anchor="middle" x="594.5" y="-943" font-family="Monaco" font-size="10.00">test_setup</text>
</a>
</g>
</g>
<!-- setup&#45;&gt;plug_test_setup -->
<g id="edge20" class="edge">
<title>setup&#45;&gt;plug_test_setup</title>
<path fill="none" stroke="black" d="M521.36,-951C533.17,-951 544.98,-951 556.79,-951"/>
</g>
<!-- batched -->
<g id="node16" class="node">
<title>batched</title>
<g id="a_node16"><a href="https://cee-gitlab.sandia.gov/ascic-test-infra/canary/-/blob/main/src/_canary/test/batch.py?ref_type=heads" title="Batched?">
<polygon fill="lightgrey" stroke="black" points="357.5,-863 249.5,-827 357.5,-791 465.5,-827 357.5,-863"/>
<text text-anchor="middle" x="357.5" y="-822" font-family="Monaco" font-size="20.00">Batched?</text>
</a>
</g>
</g>
<!-- setup&#45;&gt;batched -->
<g id="edge21" class="edge">
<title>setup&#45;&gt;batched</title>
<path fill="none" stroke="black" d="M357.5,-899.67C357.5,-890.99 357.5,-882.02 357.5,-873.48"/>
<polygon fill="black" stroke="black" points="361,-873.32 357.5,-863.32 354,-873.32 361,-873.32"/>
</g>
<!-- finish -->
<g id="node8" class="node">
<title>finish</title>
<polygon fill="none" stroke="black" points="404,-109 317,-109 317,-73 404,-73 404,-109"/>
<text text-anchor="middle" x="360.5" y="-86" font-family="Monaco" font-size="20.00">Finish</text>
</g>
<!-- done -->
<g id="node9" class="node">
<title>done</title>
<polygon fill="none" stroke="black" points="392,-36 329,-36 329,0 392,0 392,-36"/>
<text text-anchor="middle" x="360.5" y="-13" font-family="Monaco" font-size="20.00">Done</text>
</g>
<!-- finish&#45;&gt;done -->
<g id="edge24" class="edge">
<title>finish&#45;&gt;done</title>
<path fill="none" stroke="black" d="M360.5,-72.81C360.5,-64.79 360.5,-55.05 360.5,-46.07"/>
<polygon fill="black" stroke="black" points="364,-46.03 360.5,-36.03 357,-46.03 364,-46.03"/>
</g>
<!-- plug_session_finish -->
<g id="node12" class="node">
<title>plug_session_finish</title>
<polygon fill="none" stroke="black" points="452,-79 539,-79 539,-103 452,-103 440,-91 452,-79"/>
<text text-anchor="middle" x="489.5" y="-94" font-family="Monaco" font-size="10.00">Plugin:</text>
<text text-anchor="middle" x="489.5" y="-83" font-family="Monaco" font-size="10.00">session_finish</text>
</g>
<!-- finish&#45;&gt;plug_session_finish -->
<g id="edge23" class="edge">
<title>finish&#45;&gt;plug_session_finish</title>
<path fill="none" stroke="black" d="M404.09,-91C415.99,-91 427.89,-91 439.79,-91"/>
</g>
<!-- queue -->
<g id="node14" class="node">
<title>queue</title>
<g id="a_node14"><a href="https://cee-gitlab.sandia.gov/ascic-test-infra/canary/-/blob/main/src/_canary/queues.py?ref_type=heads#L203" title="Put test cases in\nResourceQueue">
<polygon fill="none" stroke="black" points="589,-740 370,-740 370,-682 589,-682 589,-740"/>
<text text-anchor="middle" x="479.5" y="-717" font-family="Monaco" font-size="20.00">Put test cases in</text>
<text text-anchor="middle" x="479.5" y="-695" font-family="Monaco" font-size="20.00">ResourceQueue</text>
</a>
</g>
</g>
<!-- run_async -->
<g id="node23" class="node">
<title>run_async</title>
<g id="a_node23"><a href="https://cee-gitlab.sandia.gov/ascic-test-infra/canary/-/blob/main/src/_canary/runners.py?ref_type=heads#L26" title="Run tests\nasynchronously">
<polygon fill="none" stroke="black" points="571,-204 388,-204 388,-146 571,-146 571,-204"/>
<text text-anchor="middle" x="479.5" y="-181" font-family="Monaco" font-size="20.00">Run tests</text>
<text text-anchor="middle" x="479.5" y="-159" font-family="Monaco" font-size="20.00">asynchronously</text>
</a>
</g>
</g>
<!-- queue&#45;&gt;run_async -->
<g id="edge11" class="edge">
<title>queue&#45;&gt;run_async</title>
<path fill="none" stroke="black" d="M479.5,-681.75C479.5,-660.83 479.5,-631.64 479.5,-606 479.5,-606 479.5,-606 479.5,-263.5 479.5,-247.45 479.5,-229.75 479.5,-214.5"/>
<polygon fill="black" stroke="black" points="483,-214.37 479.5,-204.37 476,-214.37 483,-214.37"/>
</g>
<!-- batch_queue -->
<g id="node15" class="node">
<title>batch_queue</title>
<g id="a_node15"><a href="https://cee-gitlab.sandia.gov/ascic-test-infra/canary/-/blob/main/src/_canary/queues.py?ref_type=heads#L264" title="Put test cases in\nBatchResourceQueue">
<polygon fill="none" stroke="black" points="352,-740 121,-740 121,-682 352,-682 352,-740"/>
<text text-anchor="middle" x="236.5" y="-717" font-family="Monaco" font-size="20.00">Put test cases in</text>
<text text-anchor="middle" x="236.5" y="-695" font-family="Monaco" font-size="20.00">BatchResourceQueue</text>
</a>
</g>
</g>
<!-- batch_cases -->
<g id="node17" class="node">
<title>batch_cases</title>
<g id="a_node17"><a href="https://cee-gitlab.sandia.gov/ascic-test-infra/canary/-/blob/main/src/_canary/partition.py?ref_type=heads#L53" title="Batch test cases\nusing tiling\nalgorithm">
<polygon fill="none" stroke="black" points="340,-645 133,-645 133,-565 340,-565 340,-645"/>
<text text-anchor="middle" x="236.5" y="-622" font-family="Monaco" font-size="20.00">Batch test cases</text>
<text text-anchor="middle" x="236.5" y="-600" font-family="Monaco" font-size="20.00">using tiling</text>
<text text-anchor="middle" x="236.5" y="-578" font-family="Monaco" font-size="20.00">algorithm</text>
</a>
</g>
</g>
<!-- batch_queue&#45;&gt;batch_cases -->
<g id="edge2" class="edge">
<title>batch_queue&#45;&gt;batch_cases</title>
<path fill="none" stroke="black" d="M236.5,-681.86C236.5,-673.64 236.5,-664.41 236.5,-655.29"/>
<polygon fill="black" stroke="black" points="240,-655.1 236.5,-645.1 233,-655.1 240,-655.1"/>
</g>
<!-- batched&#45;&gt;queue -->
<g id="edge10" class="edge">
<title>batched&#45;&gt;queue</title>
<path fill="none" stroke="black" d="M385.18,-800.13C401.92,-784.5 423.47,-764.35 441.75,-747.27"/>
<polygon fill="black" stroke="black" points="444.45,-749.55 449.36,-740.16 439.67,-744.43 444.45,-749.55"/>
<text text-anchor="middle" x="437" y="-761.8" font-family="Times,serif" font-size="14.00">No</text>
</g>
<!-- batched&#45;&gt;batch_queue -->
<g id="edge1" class="edge">
<title>batched&#45;&gt;batch_queue</title>
<path fill="none" stroke="black" d="M330.04,-800.13C313.45,-784.5 292.07,-764.35 273.94,-747.27"/>
<polygon fill="black" stroke="black" points="276.07,-744.47 266.39,-740.16 271.27,-749.57 276.07,-744.47"/>
<text text-anchor="middle" x="311" y="-761.8" font-family="Times,serif" font-size="14.00">Yes</text>
</g>
<!-- scheduled -->
<g id="node19" class="node">
<title>scheduled</title>
<polygon fill="lightgrey" stroke="black" points="236.5,-528 128.5,-492 236.5,-456 344.5,-492 236.5,-528"/>
<text text-anchor="middle" x="236.5" y="-487" font-family="Monaco" font-size="20.00">Scheduled?</text>
</g>
<!-- batch_cases&#45;&gt;scheduled -->
<g id="edge3" class="edge">
<title>batch_cases&#45;&gt;scheduled</title>
<path fill="none" stroke="black" d="M236.5,-564.87C236.5,-556.25 236.5,-547.06 236.5,-538.23"/>
<polygon fill="black" stroke="black" points="240,-538.08 236.5,-528.08 233,-538.08 240,-538.08"/>
</g>
<!-- run_batch -->
<g id="node18" class="node">
<title>run_batch</title>
<g id="a_node18"><a href="https://cee-gitlab.sandia.gov/ascic-test-infra/canary/-/blob/main/src/_canary/plugins/runners/canary_slurm.py?ref_type=heads#L77" title="Run batch">
<polygon fill="none" stroke="black" points="266,-282.5 143,-282.5 143,-246.5 266,-246.5 266,-282.5"/>
<text text-anchor="middle" x="204.5" y="-259.5" font-family="Monaco" font-size="20.00">Run batch</text>
</a>
</g>
</g>
<!-- run_batch&#45;&gt;run_async_b1 -->
<g id="edge6" class="edge">
<title>run_batch&#45;&gt;run_async_b1</title>
<path fill="none" stroke="black" d="M212.01,-246.21C216.06,-236.87 221.24,-224.96 226.17,-213.61"/>
<polygon fill="black" stroke="black" points="229.45,-214.84 230.22,-204.27 223.03,-212.05 229.45,-214.84"/>
</g>
<!-- run_batched_sched -->
<g id="node20" class="node">
<title>run_batched_sched</title>
<g id="a_node20"><a href="https://cee-gitlab.sandia.gov/ascic-test-infra/canary/-/blob/main/src/_canary/runners.py?ref_type=heads#L116" title="Run batches\nasynchronously\nthrough scheduler">
<polygon fill="none" stroke="black" points="219,-405 0,-405 0,-325 219,-325 219,-405"/>
<text text-anchor="middle" x="109.5" y="-382" font-family="Monaco" font-size="20.00">Run batches</text>
<text text-anchor="middle" x="109.5" y="-360" font-family="Monaco" font-size="20.00">asynchronously</text>
<text text-anchor="middle" x="109.5" y="-338" font-family="Monaco" font-size="20.00">through scheduler</text>
</a>
</g>
</g>
<!-- scheduled&#45;&gt;run_batched_sched -->
<g id="edge4" class="edge">
<title>scheduled&#45;&gt;run_batched_sched</title>
<path fill="none" stroke="black" d="M209.88,-464.8C194.6,-449.76 174.97,-430.44 157.13,-412.88"/>
<polygon fill="black" stroke="black" points="159.19,-410 149.61,-405.48 154.28,-414.98 159.19,-410"/>
<text text-anchor="middle" x="192" y="-426.8" font-family="Times,serif" font-size="14.00">Yes</text>
</g>
<!-- run_batched_no_sched -->
<g id="node22" class="node">
<title>run_batched_no_sched</title>
<g id="a_node22"><a href="https://cee-gitlab.sandia.gov/ascic-test-infra/canary/-/blob/main/src/_canary/runners.py?ref_type=heads#L116" title="Run batches\nasynchronously">
<polygon fill="none" stroke="black" points="420,-394 237,-394 237,-336 420,-336 420,-394"/>
<text text-anchor="middle" x="328.5" y="-371" font-family="Monaco" font-size="20.00">Run batches</text>
<text text-anchor="middle" x="328.5" y="-349" font-family="Monaco" font-size="20.00">asynchronously</text>
</a>
</g>
</g>
<!-- scheduled&#45;&gt;run_batched_no_sched -->
<g id="edge8" class="edge">
<title>scheduled&#45;&gt;run_batched_no_sched</title>
<path fill="none" stroke="black" d="M257.38,-462.64C270.49,-444.82 287.54,-421.66 301.65,-402.48"/>
<polygon fill="black" stroke="black" points="304.6,-404.38 307.71,-394.25 298.96,-400.23 304.6,-404.38"/>
<text text-anchor="middle" x="293" y="-426.8" font-family="Times,serif" font-size="14.00">No</text>
</g>
<!-- run_batched_sched&#45;&gt;run_batch -->
<g id="edge5" class="edge">
<title>run_batched_sched&#45;&gt;run_batch</title>
<path fill="none" stroke="black" d="M147.32,-324.79C158.64,-313.04 170.74,-300.51 180.87,-290"/>
<polygon fill="black" stroke="black" points="183.44,-292.38 187.86,-282.75 178.4,-287.52 183.44,-292.38"/>
</g>
<!-- run_async_b1&#45;&gt;finish -->
<g id="edge22" class="edge">
<title>run_async_b1&#45;&gt;finish</title>
<path fill="none" stroke="black" d="M283.11,-145.78C297.68,-135.65 313.92,-124.37 327.75,-114.76"/>
<polygon fill="black" stroke="black" points="329.79,-117.6 336.01,-109.02 325.8,-111.85 329.79,-117.6"/>
</g>
<!-- run_batched_no_sched&#45;&gt;run_batch -->
<g id="edge9" class="edge">
<title>run_batched_no_sched&#45;&gt;run_batch</title>
<path fill="none" stroke="black" d="M292.97,-335.77C274.39,-321.02 251.92,-303.17 234.27,-289.15"/>
<polygon fill="black" stroke="black" points="236.04,-286.08 226.03,-282.6 231.68,-291.56 236.04,-286.08"/>
</g>
<!-- run_async&#45;&gt;plug_test_run -->
<g id="edge12" class="edge">
<title>run_async&#45;&gt;plug_test_run</title>
<path fill="none" stroke="black" d="M571.11,-175C583.01,-175 594.9,-175 606.8,-175"/>
</g>
<!-- run_async&#45;&gt;finish -->
<g id="edge13" class="edge">
<title>run_async&#45;&gt;finish</title>
<path fill="none" stroke="black" d="M438.55,-145.78C423.85,-135.65 407.47,-124.37 393.53,-114.76"/>
<polygon fill="black" stroke="black" points="395.42,-111.81 385.2,-109.02 391.45,-117.58 395.42,-111.81"/>
</g>
<!-- nothing1 -->
<!-- nothing2 -->
</g>
</svg>
