<?xml version="1.0" encoding="UTF-8" standalone="no"?>
<!DOCTYPE svg PUBLIC "-//W3C//DTD SVG 1.1//EN"
 "http://www.w3.org/Graphics/SVG/1.1/DTD/svg11.dtd">
<!-- Generated by graphviz version 12.2.1 (20241206.2353)
 -->
<!-- Title: G Pages: 1 -->
<svg width="2054pt" height="1235pt"
 viewBox="0.00 0.00 2054.00 1234.60" xmlns="http://www.w3.org/2000/svg" xmlns:xlink="http://www.w3.org/1999/xlink">
<g id="graph0" class="graph" transform="scale(1 1) rotate(0) translate(4 1230.6)">
<title>G</title>
<g id="clust1" class="cluster">
<title>cluster_00</title>
<polygon fill="none" stroke="black" points="1590,-978.4 1590,-1210.6 2038,-1210.6 2038,-978.4 1590,-978.4"/>
<text text-anchor="middle" x="1814" y="-1193.3" font-family="Times,serif" font-size="14.00">Key</text>
</g>
<g id="clust2" class="cluster">
<title>cluster_10</title>
<polygon fill="none" stroke="black" points="8,-41.5 8,-1210.6 410,-1210.6 410,-41.5 8,-41.5"/>
<text text-anchor="middle" x="209" y="-1193.3" font-family="Times,serif" font-size="14.00">Standard Canary run</text>
</g>
<g id="clust3" class="cluster">
<title>cluster_11</title>
<polygon fill="none" stroke="black" points="26,-142.9 26,-274.7 392,-274.7 392,-142.9 26,-142.9"/>
</g>
<g id="clust4" class="cluster">
<title>cluster_20</title>
<polygon fill="none" stroke="black" points="418,-8 418,-1218.6 1582,-1218.6 1582,-8 418,-8"/>
<text text-anchor="middle" x="1000" y="-1201.3" font-family="Times,serif" font-size="14.00">Batched run as implemented in canary_hpc</text>
</g>
<g id="clust5" class="cluster">
<title>cluster_21</title>
<polygon fill="none" stroke="black" points="426,-16 426,-1186.1 984,-1186.1 984,-16 426,-16"/>
</g>
<g id="clust6" class="cluster">
<title>cluster_22</title>
<polygon fill="none" stroke="black" points="522,-142.9 522,-274.7 888,-274.7 888,-142.9 522,-142.9"/>
</g>
<g id="clust7" class="cluster">
<title>cluster_22</title>
<polygon fill="none" stroke="black" points="992,-41.5 992,-1186.1 1574,-1186.1 1574,-41.5 992,-41.5"/>
</g>
<!-- run -->
<g id="node1" class="node">
<title>run</title>
<path fill="black" stroke="black" d="M360.2,-1178.1C360.2,-1178.1 57.8,-1178.1 57.8,-1178.1 51.8,-1178.1 45.8,-1172.1 45.8,-1166.1 45.8,-1166.1 45.8,-1150.2 45.8,-1150.2 45.8,-1144.2 51.8,-1138.2 57.8,-1138.2 57.8,-1138.2 360.2,-1138.2 360.2,-1138.2 366.2,-1138.2 372.2,-1144.2 372.2,-1150.2 372.2,-1150.2 372.2,-1166.1 372.2,-1166.1 372.2,-1172.1 366.2,-1178.1 360.2,-1178.1"/>
<text text-anchor="middle" x="209" y="-1151.9" font-family="Monaco" font-size="20.00" fill="white">$ canary run [options] ...</text>
</g>
<!-- main -->
<g id="node7" class="node">
<title>main</title>
<polygon fill="none" stroke="black" points="300.2,-1102.2 117.8,-1102.2 117.8,-1062.3 300.2,-1062.3 300.2,-1102.2"/>
<text text-anchor="middle" x="209" y="-1076" font-family="Monaco" font-size="20.00">console_main()</text>
</g>
<!-- run&#45;&gt;main -->
<g id="edge3" class="edge">
<title>run&#45;&gt;main</title>
<path fill="none" stroke="black" d="M209,-1137.73C209,-1130.44 209,-1121.95 209,-1113.88"/>
<polygon fill="black" stroke="black" points="212.5,-1114.05 209,-1104.05 205.5,-1114.05 212.5,-1114.05"/>
</g>
<!-- run_0 -->
<g id="node2" class="node">
<title>run_0</title>
<path fill="black" stroke="black" d="M844.2,-1178.1C844.2,-1178.1 565.8,-1178.1 565.8,-1178.1 559.8,-1178.1 553.8,-1172.1 553.8,-1166.1 553.8,-1166.1 553.8,-1150.2 553.8,-1150.2 553.8,-1144.2 559.8,-1138.2 565.8,-1138.2 565.8,-1138.2 844.2,-1138.2 844.2,-1138.2 850.2,-1138.2 856.2,-1144.2 856.2,-1150.2 856.2,-1150.2 856.2,-1166.1 856.2,-1166.1 856.2,-1172.1 850.2,-1178.1 844.2,-1178.1"/>
<text text-anchor="middle" x="705" y="-1151.9" font-family="Monaco" font-size="20.00" fill="white">$ canary run &#45;b spec=...</text>
</g>
<!-- main_0 -->
<g id="node8" class="node">
<title>main_0</title>
<polygon fill="none" stroke="black" points="796.2,-1102.2 613.8,-1102.2 613.8,-1062.3 796.2,-1062.3 796.2,-1102.2"/>
<text text-anchor="middle" x="705" y="-1076" font-family="Monaco" font-size="20.00">console_main()</text>
</g>
<!-- run_0&#45;&gt;main_0 -->
<g id="edge16" class="edge">
<title>run_0&#45;&gt;main_0</title>
<path fill="none" stroke="black" d="M705,-1137.73C705,-1130.44 705,-1121.95 705,-1113.88"/>
<polygon fill="black" stroke="black" points="708.5,-1114.05 705,-1104.05 701.5,-1114.05 708.5,-1114.05"/>
</g>
<!-- run_1 -->
<g id="node3" class="node">
<title>run_1</title>
<path fill="black" stroke="black" d="M1554.2,-1178.1C1554.2,-1178.1 1011.8,-1178.1 1011.8,-1178.1 1005.8,-1178.1 999.8,-1172.1 999.8,-1166.1 999.8,-1166.1 999.8,-1150.2 999.8,-1150.2 999.8,-1144.2 1005.8,-1138.2 1011.8,-1138.2 1011.8,-1138.2 1554.2,-1138.2 1554.2,-1138.2 1560.2,-1138.2 1566.2,-1144.2 1566.2,-1150.2 1566.2,-1150.2 1566.2,-1166.1 1566.2,-1166.1 1566.2,-1172.1 1560.2,-1178.1 1554.2,-1178.1"/>
<text text-anchor="middle" x="1283" y="-1151.9" font-family="Monaco" font-size="20.00" fill="white">$ canary run &#45;b exec=backend:NAME,batch:ID ...</text>
</g>
<!-- main_1 -->
<g id="node9" class="node">
<title>main_1</title>
<polygon fill="none" stroke="black" points="1374.2,-1102.2 1191.8,-1102.2 1191.8,-1062.3 1374.2,-1062.3 1374.2,-1102.2"/>
<text text-anchor="middle" x="1283" y="-1076" font-family="Monaco" font-size="20.00">console_main()</text>
</g>
<!-- run_1&#45;&gt;main_1 -->
<g id="edge29" class="edge">
<title>run_1&#45;&gt;main_1</title>
<path fill="none" stroke="black" d="M1283,-1137.73C1283,-1130.44 1283,-1121.95 1283,-1113.88"/>
<polygon fill="black" stroke="black" points="1286.5,-1114.05 1283,-1104.05 1279.5,-1114.05 1286.5,-1114.05"/>
</g>
<!-- run_execute -->
<g id="node4" class="node">
<title>run_execute</title>
<polygon fill="lightgreen" stroke="black" points="378.2,-494.4 39.8,-494.4 39.8,-454.5 378.2,-454.5 378.2,-494.4"/>
<text text-anchor="middle" x="209" y="-468.2" font-family="Monaco" font-size="20.00">run.execute(config.options)</text>
</g>
<!-- canary_discover_generators -->
<g id="node22" class="node">
<title>canary_discover_generators</title>
<g id="a_node22"><a xlink:title="Search directories for testcase generators">
<polygon fill="lightgreen" stroke="black" points="402.2,-418.5 15.8,-418.5 15.8,-378.6 402.2,-378.6 402.2,-418.5"/>
<text text-anchor="middle" x="209" y="-392.3" font-family="Monaco" font-size="20.00">canary_discover_generators(...)</text>
</a>
</g>
</g>
<!-- run_execute&#45;&gt;canary_discover_generators -->
<g id="edge11" class="edge">
<title>run_execute&#45;&gt;canary_discover_generators</title>
<path fill="none" stroke="black" d="M209,-454.03C209,-446.74 209,-438.25 209,-430.18"/>
<polygon fill="black" stroke="black" points="212.5,-430.35 209,-420.35 205.5,-430.35 212.5,-430.35"/>
</g>
<!-- run_execute_0 -->
<g id="node5" class="node">
<title>run_execute_0</title>
<polygon fill="lightgreen" stroke="black" points="874.2,-494.4 535.8,-494.4 535.8,-454.5 874.2,-454.5 874.2,-494.4"/>
<text text-anchor="middle" x="705" y="-468.2" font-family="Monaco" font-size="20.00">run.execute(config.options)</text>
</g>
<!-- canary_discover_generators_0 -->
<g id="node23" class="node">
<title>canary_discover_generators_0</title>
<g id="a_node23"><a xlink:title="Search directories for testcase generators">
<polygon fill="lightgreen" stroke="black" points="898.2,-418.5 511.8,-418.5 511.8,-378.6 898.2,-378.6 898.2,-418.5"/>
<text text-anchor="middle" x="705" y="-392.3" font-family="Monaco" font-size="20.00">canary_discover_generators(...)</text>
</a>
</g>
</g>
<!-- run_execute_0&#45;&gt;canary_discover_generators_0 -->
<g id="edge24" class="edge">
<title>run_execute_0&#45;&gt;canary_discover_generators_0</title>
<path fill="none" stroke="black" d="M705,-454.03C705,-446.74 705,-438.25 705,-430.18"/>
<polygon fill="black" stroke="black" points="708.5,-430.35 705,-420.35 701.5,-430.35 708.5,-430.35"/>
</g>
<!-- run_execute_1 -->
<g id="node6" class="node">
<title>run_execute_1</title>
<polygon fill="lightgreen" stroke="black" points="1452.2,-494.4 1113.8,-494.4 1113.8,-454.5 1452.2,-454.5 1452.2,-494.4"/>
<text text-anchor="middle" x="1283" y="-468.2" font-family="Monaco" font-size="20.00">run.execute(config.options)</text>
</g>
<!-- canary_runtests_0 -->
<g id="node31" class="node">
<title>canary_runtests_0</title>
<g id="a_node31"><a xlink:title="Run test cases asynchronously">
<polygon fill="lightgreen" stroke="black" points="1422.2,-89.4 1143.8,-89.4 1143.8,-49.5 1422.2,-49.5 1422.2,-89.4"/>
<text text-anchor="middle" x="1283" y="-63.2" font-family="Monaco" font-size="20.00">canary_runtests(cases)</text>
</a>
</g>
</g>
<!-- run_execute_1&#45;&gt;canary_runtests_0 -->
<g id="edge37" class="edge">
<title>run_execute_1&#45;&gt;canary_runtests_0</title>
<path fill="none" stroke="black" d="M1283,-454.06C1283,-425.5 1283,-370.46 1283,-323.65 1283,-323.65 1283,-323.65 1283,-245.75 1283,-194.98 1283,-135.93 1283,-100.96"/>
<polygon fill="black" stroke="black" points="1286.5,-101.16 1283,-91.16 1279.5,-101.16 1286.5,-101.16"/>
</g>
<!-- preparse -->
<g id="node10" class="node">
<title>preparse</title>
<g id="a_node10"><a xlink:title="Parse command line for &#45;p PLUGIN and register with plugin manager">
<polygon fill="none" stroke="black" points="324.2,-1026.3 93.8,-1026.3 93.8,-986.4 324.2,-986.4 324.2,-1026.3"/>
<text text-anchor="middle" x="209" y="-1000.1" font-family="Monaco" font-size="20.00">parser.pre_parse()</text>
</a>
</g>
</g>
<!-- main&#45;&gt;preparse -->
<g id="edge4" class="edge">
<title>main&#45;&gt;preparse</title>
<path fill="none" stroke="black" d="M209,-1061.83C209,-1054.54 209,-1046.05 209,-1037.98"/>
<polygon fill="black" stroke="black" points="212.5,-1038.15 209,-1028.15 205.5,-1038.15 212.5,-1038.15"/>
</g>
<!-- preparse_0 -->
<g id="node11" class="node">
<title>preparse_0</title>
<g id="a_node11"><a xlink:title="Parse command line for &#45;p PLUGIN and register with plugin manager">
<polygon fill="none" stroke="black" points="820.2,-1026.3 589.8,-1026.3 589.8,-986.4 820.2,-986.4 820.2,-1026.3"/>
<text text-anchor="middle" x="705" y="-1000.1" font-family="Monaco" font-size="20.00">parser.pre_parse()</text>
</a>
</g>
</g>
<!-- main_0&#45;&gt;preparse_0 -->
<g id="edge17" class="edge">
<title>main_0&#45;&gt;preparse_0</title>
<path fill="none" stroke="black" d="M705,-1061.83C705,-1054.54 705,-1046.05 705,-1037.98"/>
<polygon fill="black" stroke="black" points="708.5,-1038.15 705,-1028.15 701.5,-1038.15 708.5,-1038.15"/>
</g>
<!-- preparse_1 -->
<g id="node12" class="node">
<title>preparse_1</title>
<g id="a_node12"><a xlink:title="Parse command line for &#45;p PLUGIN and register with plugin manager">
<polygon fill="none" stroke="black" points="1398.2,-1026.3 1167.8,-1026.3 1167.8,-986.4 1398.2,-986.4 1398.2,-1026.3"/>
<text text-anchor="middle" x="1283" y="-1000.1" font-family="Monaco" font-size="20.00">parser.pre_parse()</text>
</a>
</g>
</g>
<!-- main_1&#45;&gt;preparse_1 -->
<g id="edge30" class="edge">
<title>main_1&#45;&gt;preparse_1</title>
<path fill="none" stroke="black" d="M1283,-1061.83C1283,-1054.54 1283,-1046.05 1283,-1037.98"/>
<polygon fill="black" stroke="black" points="1286.5,-1038.15 1283,-1028.15 1279.5,-1038.15 1286.5,-1038.15"/>
</g>
<!-- canary_subcommand -->
<g id="node13" class="node">
<title>canary_subcommand</title>
<g id="a_node13"><a xlink:title="Add subcommands to canary">
<polygon fill="lightgreen" stroke="black" points="330.2,-950.4 87.8,-950.4 87.8,-910.5 330.2,-910.5 330.2,-950.4"/>
<text text-anchor="middle" x="209" y="-924.2" font-family="Monaco" font-size="20.00">canary_subcommand()</text>
</a>
</g>
</g>
<!-- preparse&#45;&gt;canary_subcommand -->
<g id="edge5" class="edge">
<title>preparse&#45;&gt;canary_subcommand</title>
<path fill="none" stroke="black" d="M209,-985.93C209,-978.64 209,-970.15 209,-962.08"/>
<polygon fill="black" stroke="black" points="212.5,-962.25 209,-952.25 205.5,-962.25 212.5,-962.25"/>
</g>
<!-- canary_subcommand_0 -->
<g id="node14" class="node">
<title>canary_subcommand_0</title>
<g id="a_node14"><a xlink:title="Add subcommands to canary">
<polygon fill="lightgreen" stroke="black" points="826.2,-950.4 583.8,-950.4 583.8,-910.5 826.2,-910.5 826.2,-950.4"/>
<text text-anchor="middle" x="705" y="-924.2" font-family="Monaco" font-size="20.00">canary_subcommand()</text>
</a>
</g>
</g>
<!-- preparse_0&#45;&gt;canary_subcommand_0 -->
<g id="edge18" class="edge">
<title>preparse_0&#45;&gt;canary_subcommand_0</title>
<path fill="none" stroke="black" d="M705,-985.93C705,-978.64 705,-970.15 705,-962.08"/>
<polygon fill="black" stroke="black" points="708.5,-962.25 705,-952.25 701.5,-962.25 708.5,-962.25"/>
</g>
<!-- canary_subcommand_1 -->
<g id="node15" class="node">
<title>canary_subcommand_1</title>
<g id="a_node15"><a xlink:title="Add subcommands to canary">
<polygon fill="lightgreen" stroke="black" points="1404.2,-950.4 1161.8,-950.4 1161.8,-910.5 1404.2,-910.5 1404.2,-950.4"/>
<text text-anchor="middle" x="1283" y="-924.2" font-family="Monaco" font-size="20.00">canary_subcommand()</text>
</a>
</g>
</g>
<!-- preparse_1&#45;&gt;canary_subcommand_1 -->
<g id="edge31" class="edge">
<title>preparse_1&#45;&gt;canary_subcommand_1</title>
<path fill="none" stroke="black" d="M1283,-985.93C1283,-978.64 1283,-970.15 1283,-962.08"/>
<polygon fill="black" stroke="black" points="1286.5,-962.25 1283,-952.25 1279.5,-962.25 1286.5,-962.25"/>
</g>
<!-- canary_addhooks -->
<g id="node16" class="node">
<title>canary_addhooks</title>
<g id="a_node16"><a xlink:title="Add additional plugin hooks to canary">
<polygon fill="lightgreen" stroke="black" points="318.2,-874.5 99.8,-874.5 99.8,-834.6 318.2,-834.6 318.2,-874.5"/>
<text text-anchor="middle" x="209" y="-848.3" font-family="Monaco" font-size="20.00">canary_addhooks()</text>
</a>
</g>
</g>
<!-- canary_subcommand&#45;&gt;canary_addhooks -->
<g id="edge6" class="edge">
<title>canary_subcommand&#45;&gt;canary_addhooks</title>
<path fill="none" stroke="black" d="M209,-910.03C209,-902.74 209,-894.25 209,-886.18"/>
<polygon fill="black" stroke="black" points="212.5,-886.35 209,-876.35 205.5,-886.35 212.5,-886.35"/>
</g>
<!-- canary_addhooks_0 -->
<g id="node17" class="node">
<title>canary_addhooks_0</title>
<g id="a_node17"><a xlink:title="Add additional plugin hooks to canary">
<polygon fill="lightgreen" stroke="black" points="814.2,-874.5 595.8,-874.5 595.8,-834.6 814.2,-834.6 814.2,-874.5"/>
<text text-anchor="middle" x="705" y="-848.3" font-family="Monaco" font-size="20.00">canary_addhooks()</text>
</a>
</g>
</g>
<!-- canary_subcommand_0&#45;&gt;canary_addhooks_0 -->
<g id="edge19" class="edge">
<title>canary_subcommand_0&#45;&gt;canary_addhooks_0</title>
<path fill="none" stroke="black" d="M705,-910.03C705,-902.74 705,-894.25 705,-886.18"/>
<polygon fill="black" stroke="black" points="708.5,-886.35 705,-876.35 701.5,-886.35 708.5,-886.35"/>
</g>
<!-- canary_addhooks_1 -->
<g id="node18" class="node">
<title>canary_addhooks_1</title>
<g id="a_node18"><a xlink:title="Add additional plugin hooks to canary">
<polygon fill="lightgreen" stroke="black" points="1392.2,-874.5 1173.8,-874.5 1173.8,-834.6 1392.2,-834.6 1392.2,-874.5"/>
<text text-anchor="middle" x="1283" y="-848.3" font-family="Monaco" font-size="20.00">canary_addhooks()</text>
</a>
</g>
</g>
<!-- canary_subcommand_1&#45;&gt;canary_addhooks_1 -->
<g id="edge32" class="edge">
<title>canary_subcommand_1&#45;&gt;canary_addhooks_1</title>
<path fill="none" stroke="black" d="M1283,-910.03C1283,-902.74 1283,-894.25 1283,-886.18"/>
<polygon fill="black" stroke="black" points="1286.5,-886.35 1283,-876.35 1279.5,-886.35 1286.5,-886.35"/>
</g>
<!-- canary_addoption -->
<g id="node36" class="node">
<title>canary_addoption</title>
<g id="a_node36"><a xlink:title="Add canary_hpc command line options">
<polygon fill="lightgreen" stroke="black" points="360.2,-798.6 57.8,-798.6 57.8,-758.7 360.2,-758.7 360.2,-798.6"/>
<text text-anchor="middle" x="209" y="-772.4" font-family="Monaco" font-size="20.00">canary_addoption(parser)</text>
</a>
</g>
</g>
<!-- canary_addhooks&#45;&gt;canary_addoption -->
<g id="edge7" class="edge">
<title>canary_addhooks&#45;&gt;canary_addoption</title>
<path fill="none" stroke="black" d="M209,-834.13C209,-826.84 209,-818.35 209,-810.28"/>
<polygon fill="black" stroke="black" points="212.5,-810.45 209,-800.45 205.5,-810.45 212.5,-810.45"/>
</g>
<!-- hpc_addoption -->
<g id="node37" class="node">
<title>hpc_addoption</title>
<g id="a_node37"><a xlink:title="Add canary_hpc command line options">
<polygon fill="lightcyan" stroke="black" points="922.2,-798.6 487.8,-798.6 487.8,-758.7 922.2,-758.7 922.2,-798.6"/>
<text text-anchor="middle" x="705" y="-772.4" font-family="Monaco" font-size="20.00">canary_hpc.canary_addoption(parser)</text>
</a>
</g>
</g>
<!-- canary_addhooks_0&#45;&gt;hpc_addoption -->
<g id="edge20" class="edge">
<title>canary_addhooks_0&#45;&gt;hpc_addoption</title>
<path fill="none" stroke="black" d="M705,-834.13C705,-826.84 705,-818.35 705,-810.28"/>
<polygon fill="black" stroke="black" points="708.5,-810.45 705,-800.45 701.5,-810.45 708.5,-810.45"/>
</g>
<!-- hpc_addoption_1 -->
<g id="node38" class="node">
<title>hpc_addoption_1</title>
<g id="a_node38"><a xlink:title="Add canary_hpc command line options">
<polygon fill="lightcyan" stroke="black" points="1500.2,-798.6 1065.8,-798.6 1065.8,-758.7 1500.2,-758.7 1500.2,-798.6"/>
<text text-anchor="middle" x="1283" y="-772.4" font-family="Monaco" font-size="20.00">canary_hpc.canary_addoption(parser)</text>
</a>
</g>
</g>
<!-- canary_addhooks_1&#45;&gt;hpc_addoption_1 -->
<g id="edge33" class="edge">
<title>canary_addhooks_1&#45;&gt;hpc_addoption_1</title>
<path fill="none" stroke="black" d="M1283,-834.13C1283,-826.84 1283,-818.35 1283,-810.28"/>
<polygon fill="black" stroke="black" points="1286.5,-810.45 1283,-800.45 1279.5,-810.45 1286.5,-810.45"/>
</g>
<!-- parse_args -->
<g id="node19" class="node">
<title>parse_args</title>
<g id="a_node19"><a xlink:title="parse the command line and determine subcommand to run">
<polygon fill="none" stroke="black" points="330.2,-722.7 87.8,-722.7 87.8,-682.8 330.2,-682.8 330.2,-722.7"/>
<text text-anchor="middle" x="209" y="-696.5" font-family="Monaco" font-size="20.00">parser.parse_args()</text>
</a>
</g>
</g>
<!-- canary_configure -->
<g id="node33" class="node">
<title>canary_configure</title>
<g id="a_node33"><a xlink:title="Add configurations">
<polygon fill="lightgreen" stroke="black" points="360.2,-608.55 57.8,-608.55 57.8,-568.65 360.2,-568.65 360.2,-608.55"/>
<text text-anchor="middle" x="209" y="-582.35" font-family="Monaco" font-size="20.00">canary_configure(config)</text>
</a>
</g>
</g>
<!-- parse_args&#45;&gt;canary_configure -->
<g id="edge9" class="edge">
<title>parse_args&#45;&gt;canary_configure</title>
<path fill="none" stroke="black" d="M209,-682.47C209,-665.38 209,-640.12 209,-620.26"/>
<polygon fill="black" stroke="black" points="212.5,-620.52 209,-610.52 205.5,-620.52 212.5,-620.52"/>
</g>
<!-- parse_args_0 -->
<g id="node20" class="node">
<title>parse_args_0</title>
<g id="a_node20"><a xlink:title="parse the command line and determine subcommand to run">
<polygon fill="none" stroke="black" points="826.2,-722.7 583.8,-722.7 583.8,-682.8 826.2,-682.8 826.2,-722.7"/>
<text text-anchor="middle" x="705" y="-696.5" font-family="Monaco" font-size="20.00">parser.parse_args()</text>
</a>
</g>
</g>
<!-- hpc_configure_0 -->
<g id="node34" class="node">
<title>hpc_configure_0</title>
<g id="a_node34"><a xlink:title="For batched runs, the canary_hpc.Conductor manages batching and running test cases.">
<polygon fill="lightcyan" stroke="black" points="976.2,-646.8 433.8,-646.8 433.8,-530.4 976.2,-530.4 976.2,-646.8"/>
<text text-anchor="start" x="441" y="-620.6" font-family="Monaco" font-size="20.00">canary_hpc.canary_configure(config):</text>
<text text-anchor="start" x="441" y="-595.1" font-family="Monaco" font-size="20.00"> &#160;&#160;&#160;conductor = canary_hpc.Conductor()</text>
<text text-anchor="start" x="441" y="-569.6" font-family="Monaco" font-size="20.00"> &#160;&#160;&#160;conductor.setup(config)</text>
<text text-anchor="start" x="441" y="-544.1" font-family="Monaco" font-size="20.00"> &#160;&#160;&#160;config.pluginmanager.register(conductor)</text>
</a>
</g>
</g>
<!-- parse_args_0&#45;&gt;hpc_configure_0 -->
<g id="edge22" class="edge">
<title>parse_args_0&#45;&gt;hpc_configure_0</title>
<path fill="none" stroke="black" d="M705,-682.47C705,-675.51 705,-667.2 705,-658.45"/>
<polygon fill="black" stroke="black" points="708.5,-658.72 705,-648.72 701.5,-658.72 708.5,-658.72"/>
</g>
<!-- parse_args_1 -->
<g id="node21" class="node">
<title>parse_args_1</title>
<g id="a_node21"><a xlink:title="parse the command line and determine subcommand to run">
<polygon fill="none" stroke="black" points="1404.2,-722.7 1161.8,-722.7 1161.8,-682.8 1404.2,-682.8 1404.2,-722.7"/>
<text text-anchor="middle" x="1283" y="-696.5" font-family="Monaco" font-size="20.00">parser.parse_args()</text>
</a>
</g>
</g>
<!-- hpc_configure_1 -->
<g id="node35" class="node">
<title>hpc_configure_1</title>
<g id="a_node35"><a xlink:title="For batched runs, the canary_hpc.Conductor manages in&#45;process running of test cases within a batch.">
<polygon fill="lightcyan" stroke="black" points="1548.2,-646.8 1017.8,-646.8 1017.8,-530.4 1548.2,-530.4 1548.2,-646.8"/>
<text text-anchor="start" x="1025" y="-620.6" font-family="Monaco" font-size="20.00">canary_hpc.canary_configure(config):</text>
<text text-anchor="start" x="1025" y="-595.1" font-family="Monaco" font-size="20.00"> &#160;&#160;&#160;executor = canary_hpc.Executor()</text>
<text text-anchor="start" x="1025" y="-569.6" font-family="Monaco" font-size="20.00"> &#160;&#160;&#160;executor.setup(config)</text>
<text text-anchor="start" x="1025" y="-544.1" font-family="Monaco" font-size="20.00"> &#160;&#160;&#160;config.pluginmanager.register(executor)</text>
</a>
</g>
</g>
<!-- parse_args_1&#45;&gt;hpc_configure_1 -->
<g id="edge35" class="edge">
<title>parse_args_1&#45;&gt;hpc_configure_1</title>
<path fill="none" stroke="black" d="M1283,-682.47C1283,-675.51 1283,-667.2 1283,-658.45"/>
<polygon fill="black" stroke="black" points="1286.5,-658.72 1283,-648.72 1279.5,-658.72 1286.5,-658.72"/>
</g>
<!-- lock -->
<g id="node24" class="node">
<title>lock</title>
<g id="a_node24"><a xlink:title="Generate testcases from generators">
<polygon fill="none" stroke="black" points="270.2,-342.6 147.8,-342.6 147.8,-302.7 270.2,-302.7 270.2,-342.6"/>
<text text-anchor="middle" x="209" y="-316.4" font-family="Monaco" font-size="20.00">lock(...)</text>
</a>
</g>
</g>
<!-- canary_discover_generators&#45;&gt;lock -->
<g id="edge12" class="edge">
<title>canary_discover_generators&#45;&gt;lock</title>
<path fill="none" stroke="black" d="M209,-378.13C209,-370.84 209,-362.35 209,-354.28"/>
<polygon fill="black" stroke="black" points="212.5,-354.45 209,-344.45 205.5,-354.45 212.5,-354.45"/>
</g>
<!-- lock_0 -->
<g id="node25" class="node">
<title>lock_0</title>
<g id="a_node25"><a xlink:title="Generate testcases from generators">
<polygon fill="none" stroke="black" points="766.2,-342.6 643.8,-342.6 643.8,-302.7 766.2,-302.7 766.2,-342.6"/>
<text text-anchor="middle" x="705" y="-316.4" font-family="Monaco" font-size="20.00">lock(...)</text>
</a>
</g>
</g>
<!-- canary_discover_generators_0&#45;&gt;lock_0 -->
<g id="edge25" class="edge">
<title>canary_discover_generators_0&#45;&gt;lock_0</title>
<path fill="none" stroke="black" d="M705,-378.13C705,-370.84 705,-362.35 705,-354.28"/>
<polygon fill="black" stroke="black" points="708.5,-354.45 705,-344.45 701.5,-354.45 708.5,-354.45"/>
</g>
<!-- canary_testsuite_mask -->
<g id="node26" class="node">
<title>canary_testsuite_mask</title>
<g id="a_node26"><a xlink:title="Filter tests">
<polygon fill="lightgreen" stroke="black" points="372.2,-266.7 45.8,-266.7 45.8,-226.8 372.2,-226.8 372.2,-266.7"/>
<text text-anchor="middle" x="209" y="-240.5" font-family="Monaco" font-size="20.00">canary_testsuite_mask(...)</text>
</a>
</g>
</g>
<!-- lock&#45;&gt;canary_testsuite_mask -->
<g id="edge13" class="edge">
<title>lock&#45;&gt;canary_testsuite_mask</title>
<path fill="none" stroke="black" d="M209,-302.23C209,-294.94 209,-286.45 209,-278.38"/>
<polygon fill="black" stroke="black" points="212.5,-278.55 209,-268.55 205.5,-278.55 212.5,-278.55"/>
</g>
<!-- canary_testsuite_mask_0 -->
<g id="node27" class="node">
<title>canary_testsuite_mask_0</title>
<g id="a_node27"><a xlink:title="Filter tests">
<polygon fill="lightgreen" stroke="black" points="868.2,-266.7 541.8,-266.7 541.8,-226.8 868.2,-226.8 868.2,-266.7"/>
<text text-anchor="middle" x="705" y="-240.5" font-family="Monaco" font-size="20.00">canary_testsuite_mask(...)</text>
</a>
</g>
</g>
<!-- lock_0&#45;&gt;canary_testsuite_mask_0 -->
<g id="edge26" class="edge">
<title>lock_0&#45;&gt;canary_testsuite_mask_0</title>
<path fill="none" stroke="black" d="M705,-302.23C705,-294.94 705,-286.45 705,-278.38"/>
<polygon fill="black" stroke="black" points="708.5,-278.55 705,-268.55 701.5,-278.55 708.5,-278.55"/>
</g>
<!-- canary_resources_avail -->
<g id="node28" class="node">
<title>canary_resources_avail</title>
<g id="a_node28"><a xlink:title="Filter tests">
<polygon fill="lightgreen" stroke="black" points="384.2,-190.8 33.8,-190.8 33.8,-150.9 384.2,-150.9 384.2,-190.8"/>
<text text-anchor="middle" x="209" y="-164.6" font-family="Monaco" font-size="20.00">canary_resources_avail(case)</text>
</a>
</g>
</g>
<!-- canary_testsuite_mask&#45;&gt;canary_resources_avail -->
<!-- canary_resources_avail_0 -->
<g id="node29" class="node">
<title>canary_resources_avail_0</title>
<g id="a_node29"><a xlink:title="Filter tests">
<polygon fill="lightcyan" stroke="black" points="880.2,-190.8 529.8,-190.8 529.8,-150.9 880.2,-150.9 880.2,-190.8"/>
<text text-anchor="middle" x="705" y="-164.6" font-family="Monaco" font-size="20.00">canary_resources_avail(case)</text>
</a>
</g>
</g>
<!-- canary_testsuite_mask_0&#45;&gt;canary_resources_avail_0 -->
<!-- canary_runtests -->
<g id="node30" class="node">
<title>canary_runtests</title>
<g id="a_node30"><a xlink:title="Run test cases asynchronously">
<polygon fill="lightgreen" stroke="black" points="348.2,-89.4 69.8,-89.4 69.8,-49.5 348.2,-49.5 348.2,-89.4"/>
<text text-anchor="middle" x="209" y="-63.2" font-family="Monaco" font-size="20.00">canary_runtests(cases)</text>
</a>
</g>
</g>
<!-- canary_resources_avail&#45;&gt;canary_runtests -->
<g id="edge15" class="edge">
<title>canary_resources_avail&#45;&gt;canary_runtests</title>
<path fill="none" stroke="black" d="M209,-150.68C209,-136.61 209,-117.21 209,-101"/>
<polygon fill="black" stroke="black" points="212.5,-101.41 209,-91.41 205.5,-101.41 212.5,-101.41"/>
</g>
<!-- hpc_runtests -->
<g id="node32" class="node">
<title>hpc_runtests</title>
<g id="a_node32"><a xlink:title="Run batches asynchronously">
<polygon fill="lightcyan" stroke="black" points="928.2,-114.9 481.8,-114.9 481.8,-24 928.2,-24 928.2,-114.9"/>
<text text-anchor="start" x="489" y="-88.7" font-family="Monaco" font-size="20.00">conductor.canary_runtests(cases):</text>
<text text-anchor="start" x="489" y="-63.2" font-family="Monaco" font-size="20.00"> &#160;&#160;&#160;batches = batch_testcases(cases)</text>
<text text-anchor="start" x="489" y="-37.7" font-family="Monaco" font-size="20.00"> &#160;&#160;&#160;exec_batches(batches)</text>
</a>
</g>
</g>
<!-- canary_resources_avail_0&#45;&gt;hpc_runtests -->
<g id="edge28" class="edge">
<title>canary_resources_avail_0&#45;&gt;hpc_runtests</title>
<path fill="none" stroke="black" d="M705,-150.68C705,-143.62 705,-135.22 705,-126.55"/>
<polygon fill="black" stroke="black" points="708.5,-126.61 705,-116.61 701.5,-126.61 708.5,-126.61"/>
</g>
<!-- canary_configure&#45;&gt;run_execute -->
<g id="edge10" class="edge">
<title>canary_configure&#45;&gt;run_execute</title>
<path fill="none" stroke="black" d="M209,-568.32C209,-551.23 209,-525.97 209,-506.11"/>
<polygon fill="black" stroke="black" points="212.5,-506.37 209,-496.37 205.5,-506.37 212.5,-506.37"/>
</g>
<!-- hpc_configure_0&#45;&gt;run_execute_0 -->
<g id="edge23" class="edge">
<title>hpc_configure_0&#45;&gt;run_execute_0</title>
<path fill="none" stroke="black" d="M705,-530.21C705,-521.89 705,-513.62 705,-506.11"/>
<polygon fill="black" stroke="black" points="708.5,-506.21 705,-496.21 701.5,-506.21 708.5,-506.21"/>
</g>
<!-- hpc_configure_1&#45;&gt;run_execute_1 -->
<g id="edge36" class="edge">
<title>hpc_configure_1&#45;&gt;run_execute_1</title>
<path fill="none" stroke="black" d="M1283,-530.21C1283,-521.89 1283,-513.62 1283,-506.11"/>
<polygon fill="black" stroke="black" points="1286.5,-506.21 1283,-496.21 1279.5,-506.21 1286.5,-506.21"/>
</g>
<!-- canary_addoption&#45;&gt;parse_args -->
<g id="edge8" class="edge">
<title>canary_addoption&#45;&gt;parse_args</title>
<path fill="none" stroke="black" d="M209,-758.23C209,-750.94 209,-742.45 209,-734.38"/>
<polygon fill="black" stroke="black" points="212.5,-734.55 209,-724.55 205.5,-734.55 212.5,-734.55"/>
</g>
<!-- hpc_addoption&#45;&gt;parse_args_0 -->
<g id="edge21" class="edge">
<title>hpc_addoption&#45;&gt;parse_args_0</title>
<path fill="none" stroke="black" d="M705,-758.23C705,-750.94 705,-742.45 705,-734.38"/>
<polygon fill="black" stroke="black" points="708.5,-734.55 705,-724.55 701.5,-734.55 708.5,-734.55"/>
</g>
<!-- hpc_addoption_1&#45;&gt;parse_args_1 -->
<g id="edge34" class="edge">
<title>hpc_addoption_1&#45;&gt;parse_args_1</title>
<path fill="none" stroke="black" d="M1283,-758.23C1283,-750.94 1283,-742.45 1283,-734.38"/>
<polygon fill="black" stroke="black" points="1286.5,-734.55 1283,-724.55 1279.5,-734.55 1286.5,-734.55"/>
</g>
<!-- builtin -->
<g id="node39" class="node">
<title>builtin</title>
<polygon fill="none" stroke="black" points="2030,-1178.1 1598,-1178.1 1598,-1138.2 2030,-1138.2 2030,-1178.1"/>
<text text-anchor="middle" x="1814" y="-1151.9" font-family="Monaco" font-size="20.00">Builtin functions</text>
</g>
<!-- standard -->
<g id="node40" class="node">
<title>standard</title>
<polygon fill="lightgreen" stroke="black" points="2030,-1102.2 1598,-1102.2 1598,-1062.3 2030,-1062.3 2030,-1102.2"/>
<text text-anchor="middle" x="1814" y="-1076" font-family="Monaco" font-size="20.00">Builtin plugin implementation</text>
</g>
<!-- builtin&#45;&gt;standard -->
<!-- outside -->
<g id="node41" class="node">
<title>outside</title>
<polygon fill="lightcyan" stroke="black" points="2030,-1026.3 1598,-1026.3 1598,-986.4 2030,-986.4 2030,-1026.3"/>
<text text-anchor="middle" x="1814" y="-1000.1" font-family="Monaco" font-size="20.00">External plugin implementation</text>
</g>
<!-- standard&#45;&gt;outside -->
</g>
</svg>
