<?xml version="1.0" encoding="UTF-8"?>
<svg id="Layer_1" xmlns="http://www.w3.org/2000/svg" version="1.1" viewBox="0 0 800 800">
  <!-- Generator: Adobe Illustrator 29.3.1, SVG Export Plug-In . SVG Version: 2.1.0 Build 151)  -->
  <defs>
    <style>
      .st0 {
        fill: #231f20;
      }

      .st1 {
        fill: #241f20;
      }

      .st2 {
        fill: #241f20;
      }
    </style>
  </defs>
  <g>
    <g>
      <path class="st1" d="M262.1,176.3c-11,0-19.9,8.3-19.9,18.5s8.9,18.5,19.9,18.5,19.9-8.3,19.9-18.5-8.9-18.5-19.9-18.5ZM267.5,195.9c-3.6.5-7-2.1-7.6-5.9-.5-3.8,2-7.2,5.7-7.7,3.6-.5,7,2.1,7.6,5.9.5,3.8-2,7.2-5.7,7.7Z"/>
      <path class="st1" d="M317,550.2c-2.6,0-5.4-.4-8.3-1.5-3.8-1.5-6.7-3-9.4-5.4l-6.2-2.5c-1.2-.5-11.8-4.8-16.5-11.6-5.9-8.6-7.4-17.6-4.5-26.8,4.4-13.7,16.8-16,17.3-16l1.6,9.8-.8-4.9.9,4.9c-.3,0-7,1.4-9.5,9.3-2,6.2-.9,12.1,3.2,18.1.9,1.3,2.4,2.5,4.1,3.7,0-.1,0-.3,0-.4-2.7-9.8,1.7-17.5,5.7-20,2.6-1.7,5.2-.8,6.6.7.3.3,2.8,3.2,0,6.7-.5.6-1.7,2.2-2.2,5.2-.3,1.8-.3,3.8-.3,5.8.4,1.2,1.1,2.5,2,4,4.3,6.8,6.6,8.2,11.7,10.2.9.4,1.9.6,2.8.7-2.2-3.2-4-7.4-3.9-12.2.2-11.9,9.3-16.7,17-17.3,9.2-.7,19.8,3,20.3,3.2l-3.3,9.4c0,0-9.2-3.1-16.3-2.7-3.5.3-7.7,1.8-7.8,7.5-.1,5.2,5,10,6.9,11.4l7,5.1-7.9,3.5c-.3.1-4.7,2-10.4,2Z"/>
      <path class="st2" d="M665.9,612.3c-4.5,0-9-.5-14.3-1.2-10.2-1.6-20.1-5.3-28.4-8.8-16.1-6.6-32.3-13.4-47.9-20.1l-3.3-1.4c-16.4-7.1-60-25.9-76.4-33.1-9.6-4.1-16.9-7.4-23.7-10.7-2.6,0-5.2.1-7.9.1s-4.8,0-7.1-.1c-11.4,1.7-23.3,2.5-35.3,2.5-25.3,0-51.8-3.8-78.7-11.2-38.6-11.9-74.8-37.5-102-72.1-41.8-51.4-58.4-117.3-43.7-172.4-5.7-7-9.7-14.8-12-23.1l-54-31.1,1.7-2.8c4.3-7,8.6-12.7,12.9-17.4,9.6-10.7,23.1-19.3,36.1-26.7l1.3-2.1c.7-1.6,15.9-38.1,62.3-47.3,8-1.6,15.8-2.4,23.3-2.4,34.8,0,54.9,16.9,65.8,26,13.6,11.4,24,27,32.8,49.1,1.3,3.4,4.7,13.8,8.2,24.9v.4c3.5,10.5,8.1,24.9,9.3,27.5,2,4.5,16.8,25.1,23.1,30.2.7.6,70.3,57.9,149.4,193.6,30.7,28.3,63.1,56.1,94.5,83,11.3,9.7,22.6,19.4,33.9,29.2h0c1,.8,2.6,2.2,5.6,4.8l3.5,3-10.5,5.8c-5.4,2.7-11.4,4-18.4,4h0ZM496.3,528.4c2.6,1.1,3.9,2,6.4,3,13.2,5.7,27.3,11.8,41.9,18.1,29.1,12.6,59.2,25.6,85.4,36.7,8.4,3.7,19.2,7.8,30.8,8.8-14.8-13-29.8-26-44.7-39-8.2-7.1-16.4-14.3-24.6-21.4l-.9-.8c-14.5-12.4-30.9-26.5-46.1-38.8-46.5-3.6-114-12.9-168.5-51-51-35.1-76-72.8-74.9-112.2.9-32.6,21.2-43.5,21.2-43.5,0,0-10.4,19.5-8,42.2,2,18.5,9,39.8,23.8,56.8,21,25.4,50.4,47.3,85,63.5,30.3,13,65.8,21.3,111,25.9-2.9-4.8-5.5-8.8-8.6-13.8-24.2-5.7-50-17.7-79.4-39.2-13.9-10.2-34.4-29.9-34.4-29.9,0,0,24.6,14.8,48.9,27,19.4,9.8,37.4,16.9,51.3,20.5-63.9-97.5-114.2-138.8-114.7-139.2-.9-.7-1.9-1.6-3-2.7l-.5-.3c-.7-.6-1.4-1.2-2.2-1.8-1.1-.9-2.1-1.8-3.2-2.5l-3-2-3.1-1.6c-7.9-4-17.7-8-27.9-9.4-6.8-1-20.8-.8-20.8-.8,0,0,10.7-8.1,31.3-8.5,2.3,0,3.5-.1,5.7.1-1.9-2.9-7.9-21.2-13.1-37.4-3.2-9.9-5.1-20.2-6.2-23.1-7.6-19.3-16.5-32.8-27.8-42.3-9.8-8.2-26.2-21.9-54.7-21.9s-13.1.7-20,2.1c-26.3,5.2-43.5,24.2-50.4,33.7,14.7,6.5,24.8,16.9,28.1,29.6,5.4,20.1-3.8,33.6-17.7,42.4-1.7,1.1-6.5,3.3-8,3.9,3.4,29.5,64.8,52.6,64.8,52.6,0,0-6.3,1.4-15.6.1-9.3-1.3-29.1-7.6-41.4-17.4-6.7,68,28.4,140.6,90.7,186.7,27.7,20.9,62.5,33.5,106.5,38.6,10.1,1.2,20,1.5,29.2,1.7,46.9,1.3,91-12.2,91-12.2,0,0-12.2,11.9-29.7,18.5ZM193,248.5c5.5-1.5,12.7-5.7,16.5-9.9,7.4-7.5,7.1-20.2,3.1-28.2-3.7-6.9-14.4-15.2-24.3-17.8-4.3,2.4-8.4,4.7-12.2,7.5-6.7,4.7-14.5,11.3-20.1,19.2l49.8.2-42.1,10.7,29.4,18.3Z"/>
      <path class="st1" d="M493.4,609.1c-4.5,0-9.3-1-14.3-2.9-6.7-2.6-159.7-60.5-161.2-61.1l4.2-11.2c6.3,2.4,154.7,58.5,161.4,61.1,5.6,2.2,10.7,2.7,14.7,1.4,3.3-1,5.6-3.2,6.9-6.5,1.2-3.1,1.3-5.7.3-8-2.6-5.7-12-9-15.5-10.2-8.1-2.9-107.3-37.3-108.3-37.6l3.9-11.3c1,.3,100.2,34.8,108.3,37.7,8.2,2.9,18.2,7.4,22.4,16.5,2.4,5.3,2.4,11.1,0,17.3-2.6,6.6-7.7,11.4-14.5,13.5-2.6.8-5.4,1.2-8.3,1.2Z"/>
    </g>
    <g>
      <g>
        <path class="st1" d="M143.6,456.6c-3.8-1.6-6.3-2.6-7-3-1.2-.7-2.6-2.1-3.1-4.1-.6-2.1-.2-4.4,1.3-6.8,3-5,12.5-1.6,12.5-1.6l2.9,1.1c2.3-4.2,4.6-7.6,6.5-10.3l-5-2c-7-2.7-20.5-4.4-27.1,6.6-4,6.6-3.6,12.4-2.5,16.1,1.4,5,4.7,9.2,9.1,11.6.4.2,3.7,1.6,9.2,3.9.9-4,2-7.9,3.3-11.5Z"/>
        <path class="st1" d="M196.4,447.5c-.4.2-2.3,4.7-3.6,7.9s0,4.7,2.5,5.6l81.7,30.9,4.4-11.1-84.9-33.3Z"/>
        <path class="st1" d="M178.6,482.8c32.5,13.4,70.1,30.2,95.6,40.6l-.9-13c-22.5-9.2-55.6-24.1-86.6-37-2.4-1-4.5-.2-5.4,2.1s-1.7,4.3-2.7,7.3Z"/>
      </g>
      <path class="st0" d="M164.6,492c-.5,0-1,0-1.5-.3l-25.7-10c-1.7-.7-2.8-2.4-2.7-4.2,2.5-30.5,22.6-53.3,23.4-54.2,1.2-1.4,3.2-1.8,4.8-1l24.8,10.9c1.1.5,2,1.5,2.3,2.6.4,1.2.2,2.5-.5,3.5-10,15.5-20.8,49.5-21,49.8-.3,1.1-1.1,2-2.2,2.5-.6.3-1.2.4-1.8.4ZM143.3,475.1l18.6,7.2c3-8.9,10.3-29.7,18-43.4l-17.5-7.7c-4.7,6-16.5,22.9-19.1,43.9Z"/>
    </g>
    <path class="st0" d="M145.9,572.3c-.5,0-.9,0-1.4-.2l-17.1-5.9c-1.5-.5-2.6-1.8-2.8-3.4-6-44.9,10.4-82.1,11.1-83.7,1-2.1,3.4-3.1,5.5-2.1,2.1.9,3.1,3.4,2.1,5.5-.2.5-15.5,35.3-10.8,76.6l9.4,3.3c1-14.5,4.8-53,19-76.7,1.2-2,3.8-2.6,5.8-1.4,2,1.2,2.6,3.8,1.4,5.8-16.2,27-18.1,77.8-18.1,78.3,0,1.3-.7,2.6-1.8,3.3-.7.5-1.5.7-2.4.7Z"/>
    <path class="st0" d="M145.9,572.3c-1.6,0-3.2-1-3.9-2.6-.9-2.1,0-4.6,2.2-5.5l10.4-4.4c2.3-8.8,12.1-44.4,20.9-68.7.8-2.2,2.7-3.5,4.9-2.8,2.2.8,4.6,2.2,3.8,4.4-9.9,27.4-21.9,70.7-22,71.1-.3,1.3-1.2,2.3-2.4,2.8l-12.3,5.2c-.5.2-1.1.3-1.6.3Z"/>
    <path class="st0" d="M180.5,494.9c-.2,0-.4,0-.6,0l-13-1.9c-2.3-.3-3.9-2.5-3.6-4.7.3-2.3,2.4-3.9,4.7-3.6l9.5,1.4,1.1-3.4c.7-2.2,3.1-3.4,5.3-2.7,2.2.7,3.4,3.1,2.7,5.3l-2.2,6.7c-.6,1.7-2.2,2.9-4,2.9Z"/>
    <g>
      <path class="st0" d="M190.3,439.4c-.4,0-.8,0-1.2-.2-2.2-.7-3.5-3-2.8-5.2,3.3-10.8,9.9-23.1,19.7-36.6,1.4-1.9,4-2.3,5.9-.9,1.9,1.4,2.3,4,.9,5.9-9.3,12.7-15.5,24.2-18.5,34.1-.5,1.8-2.2,3-4,3Z"/>
      <path class="st0" d="M165.6,427.3c-.6,0-1.2-.1-1.8-.4-2.1-1-2.9-3.5-1.9-5.6.5-1,12.8-26,36.9-49.2,1.7-1.6,4.3-1.6,5.9.1,1.6,1.7,1.6,4.3-.1,5.9-22.9,22.1-35,46.6-35.2,46.8-.7,1.5-2.2,2.4-3.8,2.4Z"/>
      <path class="st0" d="M201.3,449.7c-.6,0,.7-3.4,0-3.7-2.1-1-2.7-2.7-1.7-4.8,3.4-7.1,7.2-15.6,10.9-22.5l2.1-3.9c1.1-2,3.6-2.8,5.7-1.8,2,1.1,2.8,3.6,1.8,5.7l-2.1,3.9c-3.6,6.8-10.9,22.4-14.2,29.3-.7,1.5-.9-2.4-2.4-2.4Z"/>
      <path class="st0" d="M199.7,456.7c-.7.1-1.4,0-2.1-.2-2.2-.8-4.1-1.6-3.4-4.4l2.1-4.9-8.2-4.4c-2-1.2-2.7-3.8-1.5-5.7,1.2-2,3.8-2.7,5.7-1.5l11.3,6.7c1.7,1,2.4,2.6,1.7,4.5l-2.4,7.2c-.5,1.5-1.8,2.5-3.3,2.7Z"/>
    </g>
  </g>
  <path class="st0" d="M400,13.4c52.2,0,102.8,10.2,150.5,30.4,46,19.5,87.4,47.3,122.9,82.9,35.5,35.5,63.4,76.9,82.9,122.9,20.2,47.6,30.4,98.3,30.4,150.5s-10.2,102.8-30.4,150.5c-19.5,46-47.3,87.4-82.9,122.9-35.5,35.5-76.9,63.4-122.9,82.9-47.6,20.2-98.3,30.4-150.5,30.4s-102.8-10.2-150.5-30.4c-46-19.5-87.4-47.3-122.9-82.9s-63.4-76.9-82.9-122.9c-20.2-47.6-30.4-98.3-30.4-150.5s10.2-102.8,30.4-150.5c19.5-46,47.3-87.4,82.9-122.9,35.5-35.5,76.9-63.4,122.9-82.9,47.6-20.2,98.3-30.4,150.5-30.4M400,1.9C180.1,1.9,1.9,180.1,1.9,400s178.2,398.1,398.1,398.1,398.1-178.2,398.1-398.1S619.9,1.9,400,1.9h0Z"/>
</svg>