<?xml version="1.0" encoding="UTF-8"?>
<svg id="Layer_1" xmlns="http://www.w3.org/2000/svg" version="1.1" viewBox="0 0 800 800">
  <!-- Generator: Adobe Illustrator 29.3.1, SVG Export Plug-In . SVG Version: 2.1.0 Build 151)  -->
  <defs>
    <style>
      .st0 {
        fill: #231f20;
      }

      .st1 {
        fill: #bcbec0;
      }

      .st2 {
        fill: #fff;
      }

      .st3 {
        fill: #fbb040;
      }

      .st4 {
        fill: #a97c50;
      }

      .st5 {
        fill: #fff200;
      }
    </style>
  </defs>
  <path class="st3" d="M289.8,538c-.2-1.3-7.6-8.7-5.1-18s5.1-12.4,5.1-12.4l-17.8-9.4s-12.4,5.4-11.2,15.5,23.1,29.5,27.5,28.3c4.4-1.2,1.5-4.1,1.5-4.1Z"/>
  <path class="st4" d="M78.2,410.6s-12.7.4-16,4.4c-3.3,4-10.8,17.4-.2,21.3,10.5,4,12.3,5.1,12.3,5.1l-.4,21.1,36.6,16.2,14.2,1.3,6.6-12.3,102.6,41.5s1.1-27.7,9.7-33.2c0,0-99.1-40.4-97.8-41.5s4.4-11,4.4-11l-52.1-22-7.5,13.2-12.3-4.2Z"/>
  <path class="st3" d="M263.4,495.8s-10.4,16.1-10,24.2,3.9,8.3,3.9,8.3c0,0-15.7-13.5-16.8-21.1,0,0-2.5-17.6,3.5-22.2s5.1-5.1,5.9-4.6,14.7,16,14.7,16"/>
  <path class="st5" d="M513.2,521.7c3.2,1.4,4.9,2.4,8,3.8,16.5,7.1,34.3,14.8,52.5,22.7,36.5,15.8,74.2,32.1,107,46,10.5,4.6,24.1,9.8,38.6,11.1-18.6-16.3-37.4-32.6-56.1-48.9-10.3-9-20.6-17.9-30.8-26.8l-1.1-.9c-18.2-15.6-38.7-33.2-57.8-48.7-58.2-4.5-143-16.1-211.3-63.9-64-44-95.2-91.3-93.9-140.7,1.1-40.9,26.6-54.5,26.6-54.5,0,0-13,24.4-10,52.8,2.4,23.2,11.3,49.9,29.8,71.2,26.4,31.9,63.2,59.3,106.6,79.5,38,16.3,82.5,26.7,139.2,32.5-3.6-6-6.9-11.1-10.8-17.2-30.3-7.2-62.7-22.2-99.5-49.2-17.4-12.8-43.1-37.5-43.1-37.5,0,0,30.9,18.6,61.3,33.9,24.3,12.2,46.9,21.2,64.3,25.7-80.1-122.2-143.1-174-143.7-174.6-1.1-.9-2.4-2-3.7-3.4l-.6-.4c-.9-.7-1.8-1.5-2.7-2.2-1.4-1.2-2.7-2.3-4-3.1l-3.7-2.5-3.8-2c-9.8-5-22.2-10-34.9-11.8-8.5-1.2-26-1-26-1,0,0,13.5-10.2,39.2-10.6,2.9,0,4.3-.1,7.2.1-2.4-3.6-10-26.6-16.5-46.9-4-12.4-6.4-25.3-7.8-28.9-9.6-24.2-20.6-41.1-34.8-53-12.3-10.3-32.8-27.5-68.5-27.5s-16.4.9-25,2.6c-33,6.5-54.6,30.3-63.2,42.3,18.4,8.1,31,21.2,35.2,37.1,6.7,25.1-4.8,42.1-22.2,53.1-2.1,1.3-8.1,4.2-10,4.9,4.3,36.9,81.2,65.9,81.2,65.9,0,0-7.9,1.8-19.6.1-11.7-1.6-36.5-9.5-51.9-21.8-8.5,85.2,35.5,176.3,113.6,234,34.7,26.2,78.4,42,133.5,48.3,12.7,1.5,25,1.9,36.6,2.2,58.7,1.7,114.1-15.3,114.1-15.3,0,0-15.3,15-37.3,23.2Z"/>
  <g>
    <path class="st0" d="M209.7,727.1c-1.1-1-2.5-1.5-4.1-1.7-1.6-.1-3.4.4-5.4,1.7-4,2.8-8.2,4.8-12.6,6.2-4.5,1.4-9.1,2.1-14,2.1-8.4,0-15.4-1.7-21.2-5.2-5.7-3.5-10.1-8.5-13.1-15.2-3-6.7-4.5-14.7-4.5-24.2s1.5-17.5,4.5-24.1c3-6.6,7.3-11.7,13.1-15.1,5.7-3.5,12.8-5.2,21.2-5.2s9.5.7,13.9,2c4.4,1.3,8.4,3.4,12.1,6.1,2,1.3,3.8,1.9,5.5,1.8,1.7-.1,3.1-.7,4.2-1.7,1.1-1,1.8-2.3,2.2-3.9.4-1.5.3-3.2-.3-4.9-.6-1.7-1.8-3.2-3.7-4.4-4.4-3.3-9.6-5.8-15.6-7.6-6-1.8-12.3-2.6-18.8-2.6s-16.7,1.4-23.7,4.1c-7,2.8-12.9,6.8-17.7,12s-8.5,11.5-11,18.8c-2.5,7.3-3.8,15.6-3.8,24.7s2.2,22.8,6.7,31.8c4.5,9,10.9,15.9,19.3,20.7,8.4,4.9,18.5,7.3,30.3,7.3s13.2-.9,19.3-2.8c6.2-1.9,11.5-4.6,16-8.3,1.7-1.1,2.7-2.5,3.2-4.1.5-1.6.5-3.1.2-4.6-.4-1.5-1.1-2.7-2.2-3.7Z"/>
    <path class="st0" d="M276.7,670.4c-4.8-2.3-10.9-3.5-18.3-3.5s-8.7.5-13.4,1.5c-4.7,1-9.5,2.6-14.4,5-1.8.7-3,1.7-3.7,3-.7,1.3-1,2.7-1,4.1,0,1.4.5,2.6,1.2,3.8.8,1.2,1.8,1.9,3.1,2.2,1.3.3,2.9,0,4.8-.8,4.1-2.1,8-3.6,11.8-4.5,3.8-.9,7.5-1.3,11-1.3,6.1,0,10.4,1.4,13.1,4.1,2.6,2.8,4,7.3,4,13.6v4.3h-5.6c-11.9,0-21.4.7-28.4,2.2-7,1.5-12,4-15,7.4-3,3.5-4.5,8.2-4.5,14.1s1.3,9,3.8,12.7c2.5,3.7,6,6.7,10.5,8.9,4.5,2.2,9.5,3.3,15.1,3.3s8.5-.8,12.1-2.3c3.5-1.5,6.5-3.8,8.8-6.7,1.4-1.7,2.5-3.7,3.4-5.8v6.1c0,2.6.7,4.7,2.1,6.2,1.4,1.5,3.4,2.2,5.8,2.2s4.5-.7,5.8-2.2c1.3-1.5,2-3.6,2-6.2v-42.5c0-7.5-1.2-13.6-3.5-18.4-2.3-4.7-5.9-8.3-10.7-10.6ZM272.2,727.9c-1.8,3.3-4.3,5.9-7.4,7.9-3.1,1.9-6.7,2.9-10.7,2.9s-9-1.3-11.9-3.9c-2.9-2.6-4.3-6-4.3-10.2s1-5.7,2.9-7.5c1.9-1.8,5.2-3.1,9.8-3.9,4.6-.8,10.9-1.2,18.8-1.2h5.5v4.5c0,4.3-.9,8.1-2.7,11.4Z"/>
    <path class="st0" d="M366.3,670.5c-4.2-2.4-9.6-3.6-16-3.6s-12.7,1.6-17.9,4.7c-4,2.4-7.2,5.8-9.6,10.1v-6.1c0-2.8-.7-4.8-2.1-6.3-1.4-1.4-3.4-2.2-6-2.2s-4.5.7-6,2.2c-1.4,1.4-2.1,3.5-2.1,6.3v66.1c0,2.6.7,4.7,2.1,6.2,1.4,1.5,3.5,2.2,6.1,2.2,5.6,0,8.4-2.8,8.4-8.4v-38.4c0-7.1,2-12.7,6-16.9,4-4.2,9.4-6.3,16.1-6.3s9.9,1.6,12.6,4.8c2.7,3.2,4.1,8.3,4.1,15.2v41.5c0,2.6.7,4.7,2.2,6.2,1.4,1.5,3.5,2.2,6.3,2.2s4.7-.7,6.1-2.2c1.4-1.5,2.1-3.6,2.1-6.2v-42.5c0-7.3-1-13.3-3.1-18.1-2.1-4.8-5.3-8.4-9.5-10.7Z"/>
    <path class="st0" d="M445.5,670.4c-4.8-2.3-10.9-3.5-18.3-3.5s-8.7.5-13.4,1.5c-4.7,1-9.5,2.6-14.4,5-1.8.7-3,1.7-3.7,3-.7,1.3-1,2.7-1,4.1,0,1.4.5,2.6,1.2,3.8.8,1.2,1.8,1.9,3.1,2.2,1.3.3,2.9,0,4.8-.8,4.1-2.1,8-3.6,11.8-4.5,3.8-.9,7.5-1.3,11-1.3,6.1,0,10.4,1.4,13.1,4.1,2.6,2.8,4,7.3,4,13.6v4.3h-5.6c-11.9,0-21.4.7-28.4,2.2-7,1.5-12,4-15,7.4-3,3.5-4.5,8.2-4.5,14.1s1.3,9,3.8,12.7c2.5,3.7,6,6.7,10.5,8.9,4.5,2.2,9.5,3.3,15.1,3.3s8.5-.8,12.1-2.3c3.5-1.5,6.5-3.8,8.8-6.7,1.4-1.7,2.5-3.7,3.4-5.8v6.1c0,2.6.7,4.7,2.2,6.2,1.4,1.5,3.4,2.2,5.8,2.2s4.5-.7,5.8-2.2c1.3-1.5,2-3.6,2-6.2v-42.5c0-7.5-1.2-13.6-3.5-18.4-2.3-4.7-5.9-8.3-10.7-10.6ZM441.1,727.9c-1.8,3.3-4.3,5.9-7.4,7.9-3.1,1.9-6.7,2.9-10.7,2.9s-9-1.3-11.9-3.9c-2.9-2.6-4.3-6-4.3-10.2s1-5.7,2.9-7.5c1.9-1.8,5.2-3.1,9.8-3.9,4.6-.8,10.9-1.2,18.8-1.2h5.5v4.5c0,4.3-.9,8.1-2.7,11.4Z"/>
    <path class="st0" d="M522.8,668.3c-1.2-1.1-2.7-1.6-4.7-1.5-7.4.6-13.4,2.5-18.2,6-3.5,2.5-6.2,6-8.1,10.3v-7.3c0-2.8-.7-4.8-2.1-6.3-1.4-1.4-3.4-2.2-6-2.2s-4.5.7-5.9,2.2c-1.4,1.4-2.2,3.5-2.2,6.3v66.1c0,2.6.7,4.7,2.2,6.2,1.4,1.5,3.5,2.2,6.3,2.2s5-.7,6.4-2.2c1.4-1.5,2.1-3.6,2.1-6.2v-37.5c0-6.7,1.9-12,5.6-15.9,3.7-3.9,9.2-6.1,16.4-6.8l3.1-.3c2.5-.2,4.4-1,5.6-2.4,1.2-1.4,1.7-3.2,1.5-5.5-.1-2.3-.7-4-1.9-5.1Z"/>
    <path class="st0" d="M604.3,668.8c-1.2-1-2.7-1.6-4.7-1.6s-4.1.5-5.5,1.4c-1.3.9-2.5,2.7-3.5,5.2l-23,56-22.7-56c-1-2.4-2.1-4.1-3.3-5.1-1.2-1-2.9-1.5-5-1.5s-4.4.5-5.8,1.6c-1.4,1-2.3,2.5-2.5,4.2-.2,1.8,0,3.6.8,5.6l29.4,68.3-9.7,21.8c-.8,2-1.1,3.8-.9,5.5.2,1.7.9,3.1,2.1,4.1,1.3,1,2.9,1.6,4.9,1.6s4-.4,5.4-1.3c1.4-.9,2.6-2.6,3.7-5.1l41.3-95.1c.9-2,1.2-3.8.9-5.5-.3-1.7-1-3.1-2.1-4.1Z"/>
  </g>
  <circle class="st2" cx="226" cy="96.2" r="9.2"/>
  <path class="st1" d="M124.5,486c-10.9,15.8-27.4,83.3-27.4,83.3l-16.1,7.6-21.1-7.9s-5.9-24.4,0-47.1,15.8-55,15.8-55c0,0,15.8,3,28,10.9s20.8,8.3,20.8,8.3Z"/>
  <path class="st4" d="M294.9,508s-6.9,4.9-4.9,14.2,8.9,14.2,8.9,14.2l211.6,78.8s11.5,1,18.5-10.2c6.9-11.2,7.9-19.1,2-22.4s-30-14.5-30-14.5l-198.7-62s-3.6,2-7.3,2Z"/>
  <path class="st1" d="M114,382.8s28.7-35.9,32.3-38.2,9.2,3,9.2,3l17.1,42.2-18.5,33.6s-51.3-20.9-49.9-22.6,9.7-17.9,9.7-17.9Z"/>
  <path class="st3" d="M128.3,97.3s26.4,4,33,17.6,7.5,42-5.5,48.6-24.6,10.3-24.6,10.3l-56.2-36.9s23.1-42.8,53.4-39.5Z"/>
  <g>
    <g>
      <path class="st0" d="M219.9,80.6c-13.8,0-25,10.4-25,23.2s11.2,23.2,25,23.2,25-10.4,25-23.2-11.2-23.2-25-23.2ZM226.6,105.2c-4.6.6-8.8-2.7-9.5-7.4-.7-4.7,2.5-9.1,7.1-9.7,4.6-.6,8.8,2.7,9.5,7.4.7,4.7-2.5,9.1-7.1,9.7Z"/>
      <path class="st0" d="M288.7,549.2c-3.2,0-6.8-.5-10.4-1.9-4.7-1.9-8.4-3.8-11.8-6.8l-7.8-3.1c-1.5-.6-14.8-6.1-20.7-14.5-7.4-10.8-9.3-22.1-5.6-33.6,5.6-17.2,21-20,21.7-20.1l2.1,12.3-1-6.2,1.1,6.1c-.4,0-8.8,1.8-11.9,11.6-2.5,7.7-1.2,15.2,4,22.7,1.1,1.6,3,3.2,5.1,4.7,0-.2,0-.3,0-.5-3.4-12.2,2.2-21.9,7.1-25.1,3.3-2.1,6.5-1,8.3.9.4.4,3.5,4,0,8.4-.6.8-2.2,2.8-2.7,6.5-.3,2.3-.4,4.8-.3,7.3.5,1.5,1.3,3.2,2.5,5,5.4,8.5,8.3,10.3,14.7,12.8,1.2.5,2.4.7,3.5.9-2.7-4.1-5-9.3-4.9-15.3.3-14.9,11.7-21,21.4-21.7,11.6-.8,24.9,3.8,25.4,4l-4.1,11.8c-.1,0-11.5-3.9-20.4-3.3-4.4.3-9.6,2.2-9.8,9.5-.1,6.5,6.2,12.5,8.7,14.3l8.8,6.3-9.9,4.4c-.3.1-5.9,2.6-13,2.6Z"/>
      <path class="st0" d="M726.1,627.1c-5.7,0-11.3-.6-17.9-1.5-12.8-1.9-25.1-6.7-35.5-11-20.1-8.2-40.4-16.8-60.1-25.1l-4.2-1.8c-20.6-8.9-75.3-32.5-95.8-41.4-12-5.2-21.2-9.3-29.7-13.4-3.3,0-6.6.2-9.9.2s-6,0-8.9-.2c-14.3,2.1-29.2,3.2-44.2,3.2-31.7,0-65-4.7-98.7-14-48.3-15-93.7-47.1-127.9-90.4-52.4-64.4-73.3-147.1-54.8-216.2-7.1-8.8-12.2-18.5-15.1-29l-67.7-39,2.2-3.6c5.4-8.8,10.7-16,16.2-21.9,12.1-13.5,28.9-24.3,45.2-33.5l1.6-2.7c.9-2,20-47.7,78.1-59.3,10-2,19.8-3,29.2-3,43.6,0,68.9,21.2,82.5,32.5,17.1,14.3,30.1,33.9,41.1,61.6,1.7,4.2,5.9,17.3,10.3,31.2l.2.5c4.2,13.2,10,31.2,11.5,34.5,2.5,5.6,21.1,31.4,29,37.8.9.7,88.1,72.6,187.3,242.7,38.5,35.4,79.1,70.3,118.4,104.1,14.2,12.2,28.4,24.4,42.4,36.6h0c1.2,1,3.3,2.7,7.1,6l4.4,3.8-13.2,7.3c-6.7,3.4-14.2,5-23.1,5h0ZM513.4,521.9c3.2,1.4,4.9,2.4,8,3.8,16.5,7.1,34.3,14.8,52.5,22.7,36.5,15.8,74.2,32.1,107,46,10.5,4.6,24.1,9.8,38.6,11.1-18.6-16.3-37.4-32.6-56.1-48.9-10.3-9-20.6-17.9-30.8-26.8l-1.1-.9c-18.2-15.6-38.7-33.2-57.8-48.7-58.2-4.5-143-16.1-211.3-63.9-64-44-95.2-91.3-93.9-140.7,1.1-40.9,26.6-54.5,26.6-54.5,0,0-13,24.4-10,52.8,2.4,23.2,11.3,49.9,29.8,71.2,26.4,31.9,63.2,59.3,106.6,79.5,38,16.3,82.5,26.7,139.2,32.5-3.6-6-6.9-11.1-10.8-17.2-30.3-7.2-62.7-22.2-99.5-49.2-17.4-12.8-43.1-37.5-43.1-37.5,0,0,30.9,18.6,61.3,33.9,24.3,12.2,46.9,21.2,64.3,25.7-80.1-122.2-143.1-174-143.7-174.6-1.1-.9-2.4-2-3.7-3.4l-.6-.4c-.9-.7-1.8-1.5-2.7-2.2-1.4-1.2-2.7-2.3-4-3.1l-3.7-2.5-3.8-2c-9.8-5-22.2-10-34.9-11.8-8.5-1.2-26-1-26-1,0,0,13.5-10.2,39.2-10.6,2.9,0,4.3-.1,7.2.1-2.4-3.6-10-26.6-16.5-46.9-4-12.4-6.4-25.3-7.8-28.9-9.6-24.2-20.6-41.1-34.8-53-12.3-10.3-32.8-27.5-68.5-27.5s-16.4.9-25,2.6c-33,6.5-54.6,30.3-63.2,42.3,18.4,8.1,31,21.2,35.2,37.1,6.7,25.1-4.8,42.1-22.2,53.1-2.1,1.3-8.1,4.2-10,4.9,4.3,36.9,81.2,65.9,81.2,65.9,0,0-7.9,1.8-19.6.1-11.7-1.6-36.5-9.5-51.9-21.8-8.5,85.2,35.5,176.3,113.6,234,34.7,26.2,78.4,42,133.5,48.3,12.7,1.5,25,1.9,36.6,2.2,58.7,1.7,114.1-15.3,114.1-15.3,0,0-15.3,15-37.3,23.2ZM133.2,171.1c6.9-1.8,15.9-7.2,20.6-12.4,9.3-9.5,8.9-25.3,3.9-35.4-4.6-8.7-18-19.1-30.4-22.4-5.3,3-10.5,5.9-15.4,9.4-8.4,5.9-18.1,14.2-25.2,24.1l62.4.3-52.8,13.5,36.8,22.9Z"/>
      <path class="st0" d="M509.8,623.1c-5.7,0-11.7-1.2-17.9-3.7-8.3-3.3-200.2-75.8-202.1-76.6l5.3-14c7.9,3,193.9,73.3,202.3,76.6,7,2.7,13.4,3.4,18.4,1.8,4.2-1.3,7.1-4,8.7-8.1,1.5-3.9,1.6-7.2.4-10-3.3-7.1-15-11.2-19.4-12.8-10.2-3.6-134.5-46.7-135.7-47.2l4.9-14.2c1.3.4,125.6,43.6,135.8,47.2,10.3,3.6,22.8,9.3,28.1,20.7,3,6.6,3,13.9,0,21.7-3.2,8.3-9.7,14.3-18.1,17-3.3,1-6.8,1.5-10.4,1.5Z"/>
    </g>
    <g>
      <g>
        <path class="st0" d="M79.1,438c-4.8-2-7.9-3.3-8.7-3.7-1.5-.8-3.2-2.6-3.9-5.2-.7-2.7-.2-5.5,1.6-8.5,3.8-6.3,15.6-2,15.7-2l3.6,1.4c2.9-5.2,5.7-9.6,8.1-12.9l-6.3-2.5c-8.8-3.4-25.8-5.5-34,8.2-5,8.3-4.5,15.6-3.2,20.2,1.7,6.2,5.9,11.5,11.5,14.5.5.3,4.7,2,11.5,4.9,1.1-5.1,2.5-9.9,4.2-14.5Z"/>
        <path class="st0" d="M145.2,426.6c-.5.3-2.9,5.9-4.5,10s0,5.8,3.1,7l102.4,38.7,5.5-14-106.5-41.7Z"/>
        <path class="st0" d="M123,470.8c40.7,16.8,84.6,36.4,116.6,49.5l2.2-14.8c-28.2-11.6-69.7-30.2-108.6-46.4-3-1.2-5.7-.3-6.8,2.7s-2.1,5.3-3.4,9.1Z"/>
      </g>
      <path class="st0" d="M105.4,482.3c-.6,0-1.3-.1-1.9-.4l-32.2-12.5c-2.2-.8-3.5-3-3.3-5.3,3.1-38.2,28.3-66.8,29.4-68,1.5-1.7,4-2.2,6-1.3l31,13.7c1.4.6,2.5,1.8,2.9,3.3.4,1.5.2,3.1-.6,4.4-12.6,19.4-26.1,62-26.3,62.4-.4,1.4-1.4,2.5-2.7,3.2-.7.3-1.5.5-2.3.5ZM78.8,461.1l23.3,9.1c3.7-11.2,12.9-37.3,22.6-54.4l-21.9-9.7c-5.8,7.5-20.6,28.8-24,55Z"/>
    </g>
    <path class="st0" d="M81.9,583c-.6,0-1.2,0-1.7-.3l-21.4-7.5c-1.9-.7-3.2-2.3-3.5-4.3-7.6-56.3,13.1-103,13.9-104.9,1.2-2.6,4.3-3.8,6.9-2.6,2.6,1.2,3.8,4.3,2.6,6.9-.3.6-19.4,44.3-13.5,96l11.8,4.1c1.2-18.1,6-66.5,23.8-96.1,1.5-2.5,4.7-3.3,7.2-1.8,2.5,1.5,3.3,4.7,1.8,7.2-20.4,33.8-22.7,97.5-22.7,98.1,0,1.7-.9,3.2-2.3,4.2-.9.6-1.9.9-3,.9Z"/>
    <path class="st0" d="M81.9,583c-2,0-4-1.2-4.8-3.2-1.1-2.7.1-5.8,2.8-6.9l13-5.5c2.8-11.1,15.2-55.6,26.2-86.1,1-2.7,3.4-4.4,6.1-3.5,2.7,1,5.8,2.8,4.8,5.5-12.5,34.3-27.5,88.6-27.6,89.1-.4,1.6-1.5,2.9-3,3.6l-15.4,6.5c-.7.3-1.4.4-2.1.4Z"/>
    <path class="st0" d="M125.3,486c-.2,0-.5,0-.7,0l-16.3-2.3c-2.9-.4-4.9-3.1-4.5-5.9.4-2.9,3.1-4.9,5.9-4.5l12,1.7,1.4-4.2c.9-2.8,3.9-4.2,6.6-3.3,2.8.9,4.2,3.9,3.3,6.6l-2.8,8.4c-.7,2.2-2.8,3.6-5,3.6Z"/>
    <g>
      <path class="st0" d="M137.6,416.4c-.5,0-1,0-1.5-.2-2.8-.8-4.3-3.8-3.5-6.6,4.1-13.5,12.4-28.9,24.7-45.8,1.7-2.3,5-2.9,7.3-1.2,2.3,1.7,2.9,5,1.2,7.3-11.6,16-19.4,30.3-23.1,42.7s-2.8,3.7-5,3.7Z"/>
      <path class="st0" d="M106.6,401.2c-.8,0-1.6-.2-2.3-.5-2.6-1.3-3.7-4.4-2.4-7,.6-1.3,16.1-32.6,46.2-61.7,2.1-2,5.4-2,7.4.1,2,2.1,2,5.4-.1,7.4-28.8,27.7-43.9,58.4-44.1,58.7-.9,1.9-2.8,2.9-4.7,2.9Z"/>
      <path class="st0" d="M151.4,429.4c-.8,0,.9-4.3.1-4.6-2.6-1.3-3.4-3.3-2.1-6,4.3-8.9,9.1-19.6,13.6-28.2l2.6-4.9c1.4-2.6,4.5-3.5,7.1-2.2,2.6,1.4,3.6,4.5,2.2,7.1l-2.6,4.9c-4.5,8.5-13.6,28.1-17.8,36.8-.9,1.9-1.1-3-3.1-3Z"/>
      <path class="st0" d="M149.4,438.1c-.9.1-1.8,0-2.7-.3-2.7-1-5.2-2-4.3-5.5l2.6-6.2-10.3-5.5c-2.5-1.5-3.3-4.7-1.8-7.2,1.5-2.5,4.7-3.3,7.2-1.8l14.2,8.4c2.2,1.3,3,3.2,2.1,5.6l-3,9c-.7,1.8-2.3,3.1-4.1,3.4Z"/>
    </g>
  </g>
</svg>