<?xml version="1.0" encoding="UTF-8"?>
<svg id="Layer_1" xmlns="http://www.w3.org/2000/svg" version="1.1" viewBox="0 0 800 800">
  <!-- Generator: Adobe Illustrator 29.3.1, SVG Export Plug-In . SVG Version: 2.1.0 Build 151)  -->
  <defs>
    <style>
      .st0 {
        fill: #231f20;
      }
    </style>
  </defs>
  <g>
    <path class="st0" d="M211.7,141.7c-14.4,0-26.2,10.9-26.2,24.3s11.7,24.3,26.2,24.3,26.2-10.9,26.2-24.3-11.7-24.3-26.2-24.3ZM218.7,167.5c-4.8.7-9.2-2.8-9.9-7.8-.7-5,2.6-9.5,7.4-10.2,4.8-.7,9.2,2.8,9.9,7.8.7,5-2.6,9.5-7.4,10.2Z"/>
    <path class="st0" d="M283.9,633c-3.4,0-7.1-.5-10.8-2-4.9-2-8.8-3.9-12.4-7.1l-8.2-3.2c-1.6-.6-15.6-6.4-21.7-15.2-7.8-11.3-9.7-23.2-5.9-35.2,5.8-18.1,22-21,22.7-21.1l2.2,12.9-1.1-6.5,1.2,6.4c-.4,0-9.2,1.9-12.5,12.2-2.6,8.1-1.2,15.9,4.2,23.8,1.1,1.7,3.1,3.3,5.3,4.9,0-.2,0-.3,0-.5-3.5-12.8,2.3-23,7.4-26.3,3.4-2.2,6.8-1.1,8.7.9.4.4,3.6,4.2,0,8.8-.6.8-2.3,3-2.8,6.8-.3,2.4-.4,5-.3,7.6.6,1.6,1.4,3.3,2.6,5.2,5.6,8.9,8.7,10.8,15.4,13.4,1.2.5,2.5.8,3.7.9-2.9-4.3-5.3-9.7-5.1-16,.3-15.6,12.3-22,22.4-22.7,12.1-.9,26.1,4,26.7,4.2l-4.3,12.4c-.1,0-12-4.1-21.4-3.5-4.6.3-10.1,2.3-10.2,9.9-.1,6.8,6.5,13.1,9.1,15l9.2,6.6-10.4,4.7c-.3.2-6.1,2.7-13.6,2.7Z"/>
    <path class="st0" d="M742.3,714.5c-6,0-11.8-.6-18.8-1.6-13.4-2-26.3-7-37.3-11.6-21.1-8.6-42.4-17.6-63-26.4l-4.4-1.9c-21.6-9.3-78.9-34-100.4-43.4-12.6-5.4-22.2-9.8-31.1-14-3.4.1-6.9.2-10.4.2s-6.3,0-9.4-.2c-15,2.2-30.6,3.3-46.3,3.3-33.3,0-68.1-4.9-103.5-14.7-50.7-15.7-98.2-49.3-134-94.8-54.9-67.5-76.8-154.2-57.4-226.6-7.5-9.2-12.8-19.4-15.8-30.4l-71-40.8,2.3-3.7c5.7-9.3,11.2-16.7,16.9-22.9,12.6-14.1,30.3-25.4,47.4-35.1l1.7-2.8c1-2.1,20.9-50,81.9-62.1,10.5-2.1,20.8-3.1,30.6-3.1,45.7,0,72.2,22.2,86.4,34.1,17.9,15,31.6,35.5,43,64.6,1.8,4.4,6.2,18.2,10.8,32.7l.2.5c4.4,13.8,10.5,32.7,12,36.2,2.6,5.9,22.1,32.9,30.4,39.7.9.7,92.3,76.1,196.3,254.4,40.4,37.2,83,73.7,124.1,109.1,14.9,12.8,29.7,25.5,44.5,38.3h0c1.3,1.1,3.4,2.9,7.4,6.3l4.6,4-13.8,7.7c-7.1,3.5-14.9,5.2-24.2,5.2h0ZM519.4,604.3c3.4,1.4,5.1,2.6,8.4,4,17.3,7.4,35.9,15.5,55,23.8,38.3,16.6,77.8,33.7,112.2,48.2,11.1,4.9,25.2,10.3,40.5,11.6-19.5-17.1-39.2-34.2-58.8-51.2-10.8-9.4-21.6-18.8-32.3-28.1l-1.2-1c-19-16.3-40.6-34.8-60.6-51-61.1-4.7-149.8-16.9-221.4-67-67-46.1-99.8-95.7-98.4-147.5,1.2-42.9,27.8-57.1,27.8-57.1,0,0-13.7,25.6-10.5,55.4,2.6,24.4,11.8,52.3,31.2,74.7,27.6,33.4,66.2,62.2,111.7,83.4,39.9,17.1,86.4,28,145.9,34.1-3.8-6.3-7.3-11.6-11.3-18.1-31.8-7.5-65.7-23.3-104.3-51.5-18.3-13.4-45.2-39.3-45.2-39.3,0,0,32.4,19.5,64.3,35.5,25.5,12.8,49.2,22.2,67.4,27-84-128.1-150-182.4-150.7-183-1.2-.9-2.5-2.1-3.9-3.6l-.6-.4c-1-.7-1.9-1.5-2.8-2.3-1.4-1.2-2.8-2.4-4.2-3.3l-3.9-2.6-4-2.1c-10.3-5.3-23.2-10.5-36.6-12.4-8.9-1.3-27.3-1.1-27.3-1.1,0,0,14.1-10.7,41.1-11.1,3,0,4.6-.1,7.5.2-2.5-3.8-10.4-27.9-17.3-49.2-4.2-13-6.7-26.5-8.2-30.3-10-25.4-21.6-43.1-36.5-55.5-12.9-10.8-34.4-28.8-71.8-28.8s-17.2.9-26.3,2.7c-34.6,6.9-57.2,31.8-66.2,44.3,19.3,8.5,32.5,22.2,36.9,38.9,7,26.4-5,44.1-23.2,55.7-2.2,1.4-8.5,4.4-10.5,5.2,4.5,38.7,85.1,69.1,85.1,69.1,0,0-8.3,1.9-20.6.2-12.2-1.7-38.3-10-54.4-22.8-8.9,89.3,37.3,184.8,119.1,245.3,36.4,27.5,82.1,44,139.9,50.7,13.3,1.5,26.2,1.9,38.4,2.3,61.6,1.7,119.6-16,119.6-16,0,0-16,15.7-39.1,24.3ZM120.9,236.6c7.3-1.9,16.7-7.5,21.6-13,9.7-9.9,9.3-26.5,4.1-37.1-4.9-9.1-18.9-20-31.9-23.4-5.6,3.1-11,6.2-16.1,9.8-8.9,6.2-19,14.9-26.4,25.3l65.4.3-55.4,14.1,38.6,24Z"/>
    <path class="st0" d="M515.6,710.3c-5.9,0-12.3-1.3-18.8-3.8-8.7-3.4-209.8-79.5-211.9-80.3l5.6-14.7c8.3,3.1,203.2,76.9,212,80.3,7.4,2.9,14,3.5,19.3,1.9,4.4-1.4,7.4-4.2,9.1-8.5,1.6-4.1,1.7-7.5.4-10.5-3.4-7.4-15.7-11.8-20.4-13.4-10.7-3.8-141-49-142.3-49.5l5.2-14.8c1.3.5,131.6,45.7,142.3,49.5,10.8,3.8,23.9,9.7,29.4,21.7,3.2,6.9,3.2,14.6,0,22.7-3.4,8.7-10.1,15-19,17.8-3.4,1.1-7.1,1.6-10.9,1.6Z"/>
  </g>
  <g>
    <g>
      <path class="st0" d="M64.1,516.4c-5-2.1-8.2-3.5-9.2-3.9-1.5-.9-3.4-2.7-4.1-5.4-.8-2.8-.2-5.8,1.7-8.9,3.9-6.6,16.4-2.1,16.5-2.1l3.8,1.5c3-5.5,6-10,8.5-13.5l-6.6-2.6c-9.2-3.6-27-5.8-35.6,8.6-5.2,8.7-4.7,16.3-3.3,21.2,1.8,6.5,6.2,12.1,12,15.2.5.3,4.9,2.1,12.1,5.1,1.1-5.3,2.6-10.4,4.4-15.2Z"/>
      <path class="st0" d="M133.4,504.4c-.5.3-3,6.2-4.8,10.4s0,6.1,3.3,7.4l107.4,40.6,5.7-14.6-111.6-43.7Z"/>
      <path class="st0" d="M110.2,550.8c42.7,17.6,88.7,38.1,122.2,51.9l2.3-15.5c-29.5-12.1-73-31.6-113.8-48.7-3.1-1.3-5.9-.3-7.1,2.8s-2.2,5.6-3.6,9.6Z"/>
    </g>
    <path class="st0" d="M91.7,562.8c-.7,0-1.3-.1-2-.4l-33.8-13.1c-2.3-.9-3.7-3.2-3.5-5.6,3.2-40.1,29.7-70,30.8-71.3,1.6-1.8,4.1-2.3,6.3-1.4l32.5,14.4c1.5.7,2.6,1.9,3.1,3.5.5,1.5.2,3.2-.7,4.6-13.2,20.3-27.4,65-27.5,65.5-.5,1.5-1.5,2.6-2.9,3.3-.8.4-1.6.5-2.4.5ZM63.8,540.6l24.5,9.5c3.9-11.7,13.5-39.1,23.7-57l-23-10.1c-6.1,7.9-21.6,30.2-25.1,57.7Z"/>
  </g>
  <path class="st0" d="M67.1,668.3c-.6,0-1.2-.1-1.8-.3l-22.5-7.8c-2-.7-3.4-2.4-3.7-4.5-7.9-59,13.7-107.9,14.6-110,1.2-2.8,4.5-4,7.3-2.8,2.8,1.2,4,4.5,2.8,7.3-.3.7-20.4,46.4-14.1,100.7l12.3,4.3c1.3-19,6.3-69.7,24.9-100.7,1.6-2.6,5-3.4,7.6-1.9,2.6,1.6,3.5,5,1.9,7.6-21.3,35.5-23.8,102.2-23.8,102.8,0,1.8-.9,3.4-2.4,4.4-.9.6-2,1-3.1,1Z"/>
  <path class="st0" d="M67.1,668.3c-2.1,0-4.2-1.3-5.1-3.4-1.2-2.8.1-6,2.9-7.2l13.6-5.8c3-11.6,15.9-58.3,27.5-90.3,1-2.9,3.6-4.7,6.4-3.6,2.9,1,6.1,2.9,5,5.8-13.1,36-28.8,92.9-28.9,93.4-.4,1.7-1.6,3.1-3.2,3.7l-16.1,6.8c-.7.3-1.4.4-2.1.4Z"/>
  <path class="st0" d="M112.5,566.7c-.3,0-.5,0-.8,0l-17.1-2.4c-3-.4-5.1-3.2-4.7-6.2.4-3,3.2-5.1,6.2-4.7l12.5,1.8,1.5-4.4c1-2.9,4.1-4.4,7-3.5,2.9,1,4.4,4.1,3.5,7l-2.9,8.8c-.8,2.3-2.9,3.8-5.2,3.8Z"/>
  <g>
    <path class="st0" d="M125.5,493.7c-.5,0-1.1,0-1.6-.2-2.9-.9-4.6-4-3.7-6.9,4.3-14.1,13-30.3,25.9-48,1.8-2.5,5.2-3,7.7-1.2,2.5,1.8,3,5.2,1.2,7.7-12.2,16.7-20.3,31.8-24.3,44.7s-2.9,3.9-5.3,3.9Z"/>
    <path class="st0" d="M93,477.8c-.8,0-1.6-.2-2.4-.6-2.7-1.3-3.9-4.6-2.5-7.4.7-1.4,16.9-34.1,48.5-64.6,2.2-2.1,5.7-2,7.8.1,2.1,2.2,2,5.7-.1,7.8-30.1,29.1-46.1,61.2-46.2,61.5-1,2-2.9,3.1-5,3.1Z"/>
    <path class="st0" d="M139.9,507.3c-.8,0,.9-4.5.1-4.8-2.7-1.3-3.6-3.5-2.2-6.2,4.5-9.3,9.5-20.5,14.3-29.5l2.7-5.1c1.4-2.7,4.8-3.7,7.4-2.3,2.7,1.4,3.7,4.8,2.3,7.4l-2.7,5.1c-4.7,8.9-14.3,29.5-18.7,38.6-1,2-1.2-3.1-3.2-3.1Z"/>
    <path class="st0" d="M137.9,516.5c-.9.1-1.9,0-2.8-.3-2.9-1.1-5.4-2.1-4.5-5.7l2.7-6.5-10.8-5.7c-2.6-1.6-3.5-4.9-1.9-7.5,1.5-2.6,4.9-3.5,7.5-1.9l14.9,8.8c2.3,1.4,3.2,3.4,2.2,5.9l-3.1,9.5c-.7,1.9-2.4,3.2-4.3,3.5Z"/>
  </g>
</svg>