<?xml version="1.0" encoding="UTF-8"?>
<svg id="Layer_1" xmlns="http://www.w3.org/2000/svg" version="1.1" viewBox="0 0 800 800">
  <!-- Generator: Adobe Illustrator 29.3.1, SVG Export Plug-In . SVG Version: 2.1.0 Build 151)  -->
  <defs>
    <style>
      .st0 {
        fill: #231f20;
      }

      .st1 {
        fill: #bcbec0;
      }

      .st2 {
        fill: #fff;
      }

      .st3 {
        fill: #fbb040;
      }

      .st4 {
        fill: #a97c50;
      }

      .st5 {
        fill: #241f20;
      }

      .st6 {
        fill: #241f20;
      }

      .st7 {
        fill: #fff200;
      }
    </style>
  </defs>
  <g>
    <path class="st3" d="M316.1,545.5c-4.8,0-21.7-15.3-22.7-23.6-1-8.7,9.1-13.2,9.6-13.4l.4-.2,15.8,8.3-.8,1s-2,2.5-3.9,9.5c-1.4,5.3,1.7,9.9,3.2,12.2.4.7.7,1.1.9,1.5.4.4,1.1,1.5.8,2.7-.3,1-1.2,1.7-2.6,2.1-.2,0-.4,0-.6,0h0Z"/>
    <path class="st3" d="M317.6,541.2c-.1-1.1-6.1-7-4.1-14.4s4.1-9.9,4.1-9.9l-14.2-7.5s-9.9,4.4-9,12.4c.9,8,18.5,23.6,22,22.7s1.2-3.3,1.2-3.3Z"/>
    <path class="st4" d="M145.8,438.1s-10.2.4-12.8,3.5-8.6,13.9-.2,17c8.4,3.2,9.8,4,9.8,4l-.4,16.9,29.3,13,11.3,1.1,5.3-9.8,82.1,33.2s4.1-19.4,11-23.8c0,0-82.6-35.1-81.5-36s3.5-8.8,3.5-8.8l-41.7-17.6-6,10.5-9.8-3.3Z"/>
    <path class="st3" d="M294.5,534.5h-2.9c-.2-.1-1.7-.3-2.8-2.4-3.7-3.5-10.8-10.7-11.5-15.5-.2-1.5-1.9-14.8,3.1-18.7,2.3-1.8,3.3-2.8,3.8-3.3.5-.5,1.1-1.1,2.1-.5.7.4,6.9,7.3,12,13l-.9.8h0c0,.2-8.1,12.7-7.8,18.8.1,2,.4,3.3.8,4.2.7.7,1.4,1.3,1.9,1.7l2.2,1.9ZM285.4,496.2c-.6.5-1.6,1.6-3.9,3.3-3.5,2.7-2.9,13.1-2.4,16.9.5,3.1,4.7,8.1,8.5,11.9,0-.5,0-.9-.1-1.5-.3-6.3,6.7-17.7,8-19.7-3.7-4.1-8.6-9.6-10-11Z"/>
    <path class="st3" d="M296.5,507.4s-8.3,12.9-8,19.4c.3,6.5,3.1,6.6,3.1,6.6,0,0-12.5-10.8-13.5-16.9,0,0-2-14.1,2.8-17.8,4.7-3.7,4.1-4.1,4.7-3.7s11.7,12.8,11.7,12.8"/>
    <path class="st7" d="M661.4,596c-11.9-1-23-5.3-31.2-8.9-25.9-11-55.8-23.9-84.7-36.4l-1.2-.5c-14.5-6.3-28.7-12.4-41.8-18.1-1.2-.5-2.2-1-3.1-1.5-1-.5-2-1-3.3-1.6l-2.3-1,2.3-.9c12-4.5,21.5-11.6,26.2-15.5-11.5,3.1-45,11.1-80.8,11.1s-4.4,0-6.6,0c-9.8-.3-19.4-.6-29.4-1.8-44.3-5.1-79.4-17.8-107.3-38.9-30.8-22.7-55.6-52.3-71.8-85.7-16.2-33.3-22.9-68.7-19.6-102.4l.2-1.8,1.4,1.1c11.9,9.5,31.5,15.9,41.1,17.2,2.6.4,5.2.5,7.7.5s2.8,0,4-.2c-13.4-5.5-59.1-26.2-62.1-52.2v-.8c0,0,.6-.3.6-.3,1.5-.6,6.2-2.8,7.9-3.9,16.1-10.3,21.9-24.2,17.3-41.4-3.2-12.3-13-22.6-27.6-29l-1.1-.5.7-1c4.7-6.6,22.5-28.5,51.2-34.2,7-1.4,13.8-2.1,20.2-2.1,28.9,0,45.6,13.9,55.5,22.2,11.5,9.6,20.4,23.2,28.2,42.8.5,1.3,1.1,3.9,2,7.4,1.1,4.6,2.5,10.2,4.3,15.8,2.7,8.4,10.9,34,13.1,37.3l1.2,1.8-2.1-.2c-1.1-.1-2-.2-3-.2s-1.1,0-1.7,0h-.9c-13.9.3-23.4,4.2-27.8,6.5,4.7,0,12.7.2,17.4.8,8.8,1.2,18.3,4.4,28.3,9.6l3.1,1.6,3,2c1.1.7,2.2,1.6,3.3,2.6.7.6,1.4,1.2,2.1,1.8l.5.4h0c1.1,1.1,2,2,2.9,2.7.5.4,51.1,42,115.3,139.9l1.4,2.2-2.5-.7c-14.3-3.8-32.7-11.1-51.6-20.7-15.9-8-32.2-17.2-41.4-22.6,7.2,6.7,19,17.3,27.9,23.8,27.8,20.3,53.7,33.1,79.3,39.2h.4c0,0,.2.4.2.4,1.1,1.8,2.2,3.6,3.3,5.2,1.8,2.9,3.5,5.6,5.3,8.6l1,1.7-2-.2c-45.6-4.6-81.1-12.9-111.7-26.1-34.9-16.2-64.5-38.3-85.7-63.9-17.8-20.5-22.7-44.8-24.1-57.5-1.8-17.3,3.7-32.8,6.6-39.5-1.9,1.5-4.5,3.9-7.1,7.3-4.6,6.1-10.2,16.8-10.7,33.4-1.1,39.3,24.1,76.9,74.7,111.7,54.7,38.2,122.4,47.4,168.6,50.9h.3s.2.2.2.2c15.3,12.3,31.8,26.5,46.3,38.9l.9.8c8.2,7.1,16.4,14.3,24.6,21.4,14.7,12.7,29.8,25.9,44.9,39.1l2.3,2-3-.3Z"/>
    <path class="st7" d="M496.5,528.2c2.6,1.1,3.9,2,6.4,3,13.2,5.7,27.4,11.8,42,18.1,29.2,12.6,59.4,25.7,85.7,36.8,8.4,3.7,19.3,7.9,30.9,8.9-14.9-13-29.9-26.1-44.9-39.1-8.2-7.2-16.5-14.3-24.6-21.4l-.9-.8c-14.5-12.5-31-26.6-46.3-38.9-46.6-3.6-114.4-12.9-169.1-51.1-51.2-35.2-76.2-73-75.2-112.5.9-32.7,21.3-43.6,21.3-43.6,0,0-10.4,19.5-8,42.3s9,40,23.8,57c21.1,25.5,50.6,47.5,85.3,63.6,30.4,13.1,66,21.4,111.4,26-2.9-4.8-5.6-8.9-8.6-13.8-24.3-5.7-50.2-17.8-79.6-39.3-14-10.2-34.5-30-34.5-30,0,0,24.7,14.9,49.1,27.1,19.5,9.8,37.6,16.9,51.4,20.6-64.1-97.8-114.6-139.2-115.1-139.6-.9-.7-1.9-1.6-3-2.7l-.5-.3c-.7-.6-1.5-1.2-2.2-1.8-1.1-.9-2.2-1.8-3.2-2.5l-3-2-3.1-1.6c-7.9-4-17.7-8-28-9.5-6.8-1-20.9-.8-20.9-.8,0,0,10.8-8.1,31.4-8.5,2.3,0,3.5-.1,5.8.1-1.9-2.9-8-21.3-13.2-37.5-3.2-9.9-5.1-20.2-6.2-23.2-7.7-19.4-16.5-32.9-27.9-42.4-9.8-8.2-26.3-22-54.9-22s-13.1.7-20,2.1c-26.4,5.2-43.7,24.2-50.6,33.8,14.7,6.5,24.8,17,28.2,29.7,5.4,20.1-3.8,33.7-17.7,42.5-1.7,1.1-6.5,3.3-8,4,3.4,29.5,65,52.8,65,52.8,0,0-6.4,1.4-15.7.1-9.3-1.3-29.2-7.6-41.5-17.4-6.8,68.1,28.5,141,91,187.2,27.8,21,62.7,33.6,106.9,38.7,10.2,1.2,20,1.5,29.3,1.7,47,1.3,91.4-12.2,91.4-12.2,0,0-12.2,12-29.8,18.6Z"/>
    <path class="st2" d="M266.5,196.1c-4.6,0-8.4-3.8-8.4-8.4s3.8-8.4,8.4-8.4,8.4,3.8,8.4,8.4-3.8,8.4-8.4,8.4Z"/>
    <ellipse class="st2" cx="266.5" cy="187.7" rx="7.4" ry="7.4"/>
    <path class="st1" d="M181.1,493.9c-8.7,12.6-21.9,66.7-21.9,66.7l-12.9,6.1-16.9-6.3s-4.7-19.5,0-37.7c4.7-18.2,12.7-44,12.7-44,0,0,12.7,2.4,22.4,8.7,9.8,6.3,16.6,6.6,16.6,6.6Z"/>
    <path class="st4" d="M494.8,603.9c-.4,0-.7,0-.7,0h-.1s-169.6-63.1-169.6-63.1h-.1c-.2-.2-5.9-4.3-7.5-12-1.7-7.9,4.1-12.2,4.4-12.4l.3-.2h.3c2.6,0,5.3-1.4,5.3-1.5l.4-.2,159.5,49.7h0c.8.4,19.3,9,24.1,11.7,1.8,1,2.9,2.4,3.4,4.3.9,3.6-.6,8.6-4.6,15.1-5,8-12.8,8.7-15,8.7h0Z"/>
    <path class="st4" d="M321.7,517.2s-5.5,4-4,11.3c1.6,7.4,7.1,11.3,7.1,11.3l169.4,63s9.2.8,14.8-8.2c5.5-9,6.3-15.3,1.6-17.9-4.7-2.6-24-11.6-24-11.6l-159.1-49.6s-2.9,1.6-5.8,1.6Z"/>
    <path class="st1" d="M174.4,408.9s23-28.7,25.9-30.6c2.9-1.8,7.4,2.4,7.4,2.4l13.7,33.7-17.9,30.1s-37.9-19.9-36.8-21.3,7.7-14.3,7.7-14.3Z"/>
    <path class="st3" d="M144.2,220.6l.4-.8c.2-.3,4.4-8.1,11.6-16.1,9.5-10.6,19.7-16.2,29.4-16.2s1.9,0,2.8.2c.9.1,21.7,3.4,27.2,14.6,2.8,5.7,4.2,14.3,3.8,22-.5,9.2-3.6,15.6-8.6,18.1-10.3,5.2-19.8,8.3-19.8,8.3h-.5c0,.1-46.2-30.1-46.2-30.1Z"/>
    <path class="st3" d="M188.3,188.6s21.1,3.2,26.4,14.1c5.3,10.9,6,33.6-4.4,38.8-10.4,5.3-19.7,8.3-19.7,8.3l-45-29.5s18.5-34.3,42.7-31.6Z"/>
  </g>
  <g>
    <g>
      <path class="st5" d="M262.1,176.3c-11,0-19.9,8.3-19.9,18.5s8.9,18.5,19.9,18.5,19.9-8.3,19.9-18.5-8.9-18.5-19.9-18.5ZM267.5,195.9c-3.6.5-7-2.1-7.6-5.9-.5-3.8,2-7.2,5.7-7.7,3.6-.5,7,2.1,7.6,5.9.5,3.8-2,7.2-5.7,7.7Z"/>
      <path class="st5" d="M317,550.2c-2.6,0-5.4-.4-8.3-1.5-3.8-1.5-6.7-3-9.4-5.4l-6.2-2.5c-1.2-.5-11.8-4.8-16.5-11.6-5.9-8.6-7.4-17.6-4.5-26.8,4.4-13.7,16.8-16,17.3-16l1.6,9.8-.8-4.9.9,4.9c-.3,0-7,1.4-9.5,9.3-2,6.2-.9,12.1,3.2,18.1.9,1.3,2.4,2.5,4.1,3.7,0-.1,0-.3,0-.4-2.7-9.8,1.7-17.5,5.7-20,2.6-1.7,5.2-.8,6.6.7.3.3,2.8,3.2,0,6.7-.5.6-1.7,2.2-2.2,5.2-.3,1.8-.3,3.8-.3,5.8.4,1.2,1.1,2.5,2,4,4.3,6.8,6.6,8.2,11.7,10.2.9.4,1.9.6,2.8.7-2.2-3.2-4-7.4-3.9-12.2.2-11.9,9.3-16.7,17-17.3,9.2-.7,19.8,3,20.3,3.2l-3.3,9.4c0,0-9.2-3.1-16.3-2.7-3.5.3-7.7,1.8-7.8,7.5-.1,5.2,5,10,6.9,11.4l7,5.1-7.9,3.5c-.3.1-4.7,2-10.4,2Z"/>
      <path class="st6" d="M665.9,612.3c-4.5,0-9-.5-14.3-1.2-10.2-1.6-20.1-5.3-28.4-8.8-16.1-6.6-32.3-13.4-47.9-20.1l-3.3-1.4c-16.4-7.1-60-25.9-76.4-33.1-9.6-4.1-16.9-7.4-23.7-10.7-2.6,0-5.2.1-7.9.1s-4.8,0-7.1-.1c-11.4,1.7-23.3,2.5-35.3,2.5-25.3,0-51.8-3.8-78.7-11.2-38.6-11.9-74.8-37.5-102-72.1-41.8-51.4-58.4-117.3-43.7-172.4-5.7-7-9.7-14.8-12-23.1l-54-31.1,1.7-2.8c4.3-7,8.6-12.7,12.9-17.4,9.6-10.7,23.1-19.3,36.1-26.7l1.3-2.1c.7-1.6,15.9-38.1,62.3-47.3,8-1.6,15.8-2.4,23.3-2.4,34.8,0,54.9,16.9,65.8,26,13.6,11.4,24,27,32.8,49.1,1.3,3.4,4.7,13.8,8.2,24.9v.4c3.5,10.5,8.1,24.9,9.3,27.5,2,4.5,16.8,25.1,23.1,30.2.7.6,70.3,57.9,149.4,193.6,30.7,28.3,63.1,56.1,94.5,83,11.3,9.7,22.6,19.4,33.9,29.2h0c1,.8,2.6,2.2,5.6,4.8l3.5,3-10.5,5.8c-5.4,2.7-11.4,4-18.4,4h0ZM496.3,528.4c2.6,1.1,3.9,2,6.4,3,13.2,5.7,27.3,11.8,41.9,18.1,29.1,12.6,59.2,25.6,85.4,36.7,8.4,3.7,19.2,7.8,30.8,8.8-14.8-13-29.8-26-44.7-39-8.2-7.1-16.4-14.3-24.6-21.4l-.9-.8c-14.5-12.4-30.9-26.5-46.1-38.8-46.5-3.6-114-12.9-168.5-51-51-35.1-76-72.8-74.9-112.2.9-32.6,21.2-43.5,21.2-43.5,0,0-10.4,19.5-8,42.2,2,18.5,9,39.8,23.8,56.8,21,25.4,50.4,47.3,85,63.5,30.3,13,65.8,21.3,111,25.9-2.9-4.8-5.5-8.8-8.6-13.8-24.2-5.7-50-17.7-79.4-39.2-13.9-10.2-34.4-29.9-34.4-29.9,0,0,24.6,14.8,48.9,27,19.4,9.8,37.4,16.9,51.3,20.5-63.9-97.5-114.2-138.8-114.7-139.2-.9-.7-1.9-1.6-3-2.7l-.5-.3c-.7-.6-1.4-1.2-2.2-1.8-1.1-.9-2.1-1.8-3.2-2.5l-3-2-3.1-1.6c-7.9-4-17.7-8-27.9-9.4-6.8-1-20.8-.8-20.8-.8,0,0,10.7-8.1,31.3-8.5,2.3,0,3.5-.1,5.7.1-1.9-2.9-7.9-21.2-13.1-37.4-3.2-9.9-5.1-20.2-6.2-23.1-7.6-19.3-16.5-32.8-27.8-42.3-9.8-8.2-26.2-21.9-54.7-21.9s-13.1.7-20,2.1c-26.3,5.2-43.5,24.2-50.4,33.7,14.7,6.5,24.8,16.9,28.1,29.6,5.4,20.1-3.8,33.6-17.7,42.4-1.7,1.1-6.5,3.3-8,3.9,3.4,29.5,64.8,52.6,64.8,52.6,0,0-6.3,1.4-15.6.1-9.3-1.3-29.1-7.6-41.4-17.4-6.7,68,28.4,140.6,90.7,186.7,27.7,20.9,62.5,33.5,106.5,38.6,10.1,1.2,20,1.5,29.2,1.7,46.9,1.3,91-12.2,91-12.2,0,0-12.2,11.9-29.7,18.5ZM193,248.5c5.5-1.5,12.7-5.7,16.5-9.9,7.4-7.5,7.1-20.2,3.1-28.2-3.7-6.9-14.4-15.2-24.3-17.8-4.3,2.4-8.4,4.7-12.2,7.5-6.7,4.7-14.5,11.3-20.1,19.2l49.8.2-42.1,10.7,29.4,18.3Z"/>
      <path class="st5" d="M493.4,609.1c-4.5,0-9.3-1-14.3-2.9-6.7-2.6-159.7-60.5-161.2-61.1l4.2-11.2c6.3,2.4,154.7,58.5,161.4,61.1,5.6,2.2,10.7,2.7,14.7,1.4,3.3-1,5.6-3.2,6.9-6.5,1.2-3.1,1.3-5.7.3-8-2.6-5.7-12-9-15.5-10.2-8.1-2.9-107.3-37.3-108.3-37.6l3.9-11.3c1,.3,100.2,34.8,108.3,37.7,8.2,2.9,18.2,7.4,22.4,16.5,2.4,5.3,2.4,11.1,0,17.3-2.6,6.6-7.7,11.4-14.5,13.5-2.6.8-5.4,1.2-8.3,1.2Z"/>
    </g>
    <g>
      <g>
        <path class="st5" d="M143.6,456.6c-3.8-1.6-6.3-2.6-7-3-1.2-.7-2.6-2.1-3.1-4.1-.6-2.1-.2-4.4,1.3-6.8,3-5,12.5-1.6,12.5-1.6l2.9,1.1c2.3-4.2,4.6-7.6,6.5-10.3l-5-2c-7-2.7-20.5-4.4-27.1,6.6-4,6.6-3.6,12.4-2.5,16.1,1.4,5,4.7,9.2,9.1,11.6.4.2,3.7,1.6,9.2,3.9.9-4,2-7.9,3.3-11.5Z"/>
        <path class="st5" d="M196.4,447.5c-.4.2-2.3,4.7-3.6,7.9s0,4.7,2.5,5.6l81.7,30.9,4.4-11.1-84.9-33.3Z"/>
        <path class="st5" d="M178.6,482.8c32.5,13.4,70.1,30.2,95.6,40.6l-.9-13c-22.5-9.2-55.6-24.1-86.6-37-2.4-1-4.5-.2-5.4,2.1s-1.7,4.3-2.7,7.3Z"/>
      </g>
      <path class="st0" d="M164.6,492c-.5,0-1,0-1.5-.3l-25.7-10c-1.7-.7-2.8-2.4-2.7-4.2,2.5-30.5,22.6-53.3,23.4-54.2,1.2-1.4,3.2-1.8,4.8-1l24.8,10.9c1.1.5,2,1.5,2.3,2.6.4,1.2.2,2.5-.5,3.5-10,15.5-20.8,49.5-21,49.8-.3,1.1-1.1,2-2.2,2.5-.6.3-1.2.4-1.8.4ZM143.3,475.1l18.6,7.2c3-8.9,10.3-29.7,18-43.4l-17.5-7.7c-4.7,6-16.5,22.9-19.1,43.9Z"/>
    </g>
    <path class="st0" d="M145.9,572.3c-.5,0-.9,0-1.4-.2l-17.1-5.9c-1.5-.5-2.6-1.8-2.8-3.4-6-44.9,10.4-82.1,11.1-83.7,1-2.1,3.4-3.1,5.5-2.1,2.1.9,3.1,3.4,2.1,5.5-.2.5-15.5,35.3-10.8,76.6l9.4,3.3c1-14.5,4.8-53,19-76.7,1.2-2,3.8-2.6,5.8-1.4,2,1.2,2.6,3.8,1.4,5.8-16.2,27-18.1,77.8-18.1,78.3,0,1.3-.7,2.6-1.8,3.3-.7.5-1.5.7-2.4.7Z"/>
    <path class="st0" d="M145.9,572.3c-1.6,0-3.2-1-3.9-2.6-.9-2.1,0-4.6,2.2-5.5l10.4-4.4c2.3-8.8,12.1-44.4,20.9-68.7.8-2.2,2.7-3.5,4.9-2.8,2.2.8,4.6,2.2,3.8,4.4-9.9,27.4-21.9,70.7-22,71.1-.3,1.3-1.2,2.3-2.4,2.8l-12.3,5.2c-.5.2-1.1.3-1.6.3Z"/>
    <path class="st0" d="M180.5,494.9c-.2,0-.4,0-.6,0l-13-1.9c-2.3-.3-3.9-2.5-3.6-4.7.3-2.3,2.4-3.9,4.7-3.6l9.5,1.4,1.1-3.4c.7-2.2,3.1-3.4,5.3-2.7,2.2.7,3.4,3.1,2.7,5.3l-2.2,6.7c-.6,1.7-2.2,2.9-4,2.9Z"/>
    <g>
      <path class="st0" d="M190.3,439.4c-.4,0-.8,0-1.2-.2-2.2-.7-3.5-3-2.8-5.2,3.3-10.8,9.9-23.1,19.7-36.6,1.4-1.9,4-2.3,5.9-.9,1.9,1.4,2.3,4,.9,5.9-9.3,12.7-15.5,24.2-18.5,34.1-.5,1.8-2.2,3-4,3Z"/>
      <path class="st0" d="M165.6,427.3c-.6,0-1.2-.1-1.8-.4-2.1-1-2.9-3.5-1.9-5.6.5-1,12.8-26,36.9-49.2,1.7-1.6,4.3-1.6,5.9.1,1.6,1.7,1.6,4.3-.1,5.9-22.9,22.1-35,46.6-35.2,46.8-.7,1.5-2.2,2.4-3.8,2.4Z"/>
      <path class="st0" d="M201.3,449.7c-.6,0,.7-3.4,0-3.7-2.1-1-2.7-2.7-1.7-4.8,3.4-7.1,7.2-15.6,10.9-22.5l2.1-3.9c1.1-2,3.6-2.8,5.7-1.8,2,1.1,2.8,3.6,1.8,5.7l-2.1,3.9c-3.6,6.8-10.9,22.4-14.2,29.3-.7,1.5-.9-2.4-2.4-2.4Z"/>
      <path class="st0" d="M199.7,456.7c-.7.1-1.4,0-2.1-.2-2.2-.8-4.1-1.6-3.4-4.4l2.1-4.9-8.2-4.4c-2-1.2-2.7-3.8-1.5-5.7,1.2-2,3.8-2.7,5.7-1.5l11.3,6.7c1.7,1,2.4,2.6,1.7,4.5l-2.4,7.2c-.5,1.5-1.8,2.5-3.3,2.7Z"/>
    </g>
  </g>
  <path class="st0" d="M400,13.4c52.2,0,102.8,10.2,150.5,30.4,46,19.5,87.4,47.3,122.9,82.9,35.5,35.5,63.4,76.9,82.9,122.9,20.2,47.6,30.4,98.3,30.4,150.5s-10.2,102.8-30.4,150.5c-19.5,46-47.3,87.4-82.9,122.9-35.5,35.5-76.9,63.4-122.9,82.9-47.6,20.2-98.3,30.4-150.5,30.4s-102.8-10.2-150.5-30.4c-46-19.5-87.4-47.3-122.9-82.9s-63.4-76.9-82.9-122.9c-20.2-47.6-30.4-98.3-30.4-150.5s10.2-102.8,30.4-150.5c19.5-46,47.3-87.4,82.9-122.9,35.5-35.5,76.9-63.4,122.9-82.9,47.6-20.2,98.3-30.4,150.5-30.4M400,1.9C180.1,1.9,1.9,180.1,1.9,400s178.2,398.1,398.1,398.1,398.1-178.2,398.1-398.1S619.9,1.9,400,1.9h0Z"/>
</svg>